<svg width="67" height="66" viewBox="0 0 67 66" fill="none" xmlns="http://www.w3.org/2000/svg">
<path d="M26.0365 19.032C27.3786 19.032 28.4665 17.9375 28.4665 16.5875C28.4665 15.2375 27.3786 14.1431 26.0365 14.1431C24.6944 14.1431 23.6064 15.2375 23.6064 16.5875C23.6064 17.9375 24.6944 19.032 26.0365 19.032Z" stroke="#984A8A" stroke-width="2" stroke-miterlimit="10"/>
<path d="M34.0209 19.032C35.363 19.032 36.4509 17.9375 36.4509 16.5875C36.4509 15.2375 35.363 14.1431 34.0209 14.1431C32.6788 14.1431 31.5908 15.2375 31.5908 16.5875C31.5908 17.9375 32.6788 19.032 34.0209 19.032Z" stroke="#984A8A" stroke-width="2" stroke-miterlimit="10"/>
<path d="M41.8319 19.032C43.174 19.032 44.262 17.9375 44.262 16.5875C44.262 15.2375 43.174 14.1431 41.8319 14.1431C40.4898 14.1431 39.4019 15.2375 39.4019 16.5875C39.4019 17.9375 40.4898 19.032 41.8319 19.032Z" stroke="#984A8A" stroke-width="2" stroke-miterlimit="10"/>
<path d="M50.3367 1.22217H17.7046C14.9274 1.22217 12.6709 3.49201 12.6709 6.11106V26.5396C12.6709 29.3333 14.9274 31.4285 17.531 31.4285H19.0932V38.9365L28.8134 31.4285H50.3367C53.1139 31.4285 55.1968 29.1587 55.1968 26.5396V6.11106C55.1968 3.49201 52.9403 1.22217 50.3367 1.22217Z" stroke="#984A8A" stroke-width="2" stroke-miterlimit="10"/>
<path d="M12.6713 14.4917H6.07544C3.29823 14.4917 1.21533 16.7615 1.21533 19.3806V39.8092C1.21533 42.6028 3.47181 44.698 6.07544 44.698H7.63761V52.3806L17.3578 44.8727H38.7076C41.4848 44.8727 43.5677 42.6028 43.5677 39.9838V31.7774" stroke="#984A8A" stroke-width="2" stroke-miterlimit="10"/>
<path d="M54.8497 25.4922H60.7513C63.5285 25.4922 65.6114 27.762 65.6114 30.3811V50.8096C65.6114 53.6033 63.3549 55.6985 60.7513 55.6985H59.1891V63.2065L49.4689 55.8731H28.2927C25.5155 55.8731 23.4326 53.6033 23.4326 50.9843V45.0477" stroke="#984A8A" stroke-width="2" stroke-miterlimit="10"/>
</svg>
