<svg width="83" height="69" viewBox="0 0 83 69" fill="none" xmlns="http://www.w3.org/2000/svg">
<path d="M78.3286 57.4184H4.67202C2.89181 57.4184 1.55664 55.9545 1.55664 54.2654V4.94444C1.55664 3.14276 3.00307 1.7915 4.67202 1.7915H78.3286C80.1088 1.7915 81.444 3.25537 81.444 4.94444V54.2654C81.444 56.0671 80.1088 57.4184 78.3286 57.4184Z" stroke="#984A8A" stroke-width="2" stroke-miterlimit="10"/>
<path d="M76.5483 6.6333H6.45215V52.5762H76.5483V6.6333Z" stroke="#984A8A" stroke-width="2" stroke-miterlimit="10"/>
<path d="M32.71 57.7563V67.6656" stroke="#984A8A" stroke-width="2" stroke-miterlimit="10"/>
<path d="M50.4009 57.7563V67.6656" stroke="#984A8A" stroke-width="2" stroke-miterlimit="10"/>
<path d="M22.9189 67.6655H60.081" stroke="#984A8A" stroke-width="2" stroke-miterlimit="10"/>
<path d="M29.5947 38.7259C34.3262 38.7259 38.162 34.844 38.162 30.0554C38.162 25.2667 34.3262 21.3848 29.5947 21.3848C24.8631 21.3848 21.0273 25.2667 21.0273 30.0554C21.0273 34.844 24.8631 38.7259 29.5947 38.7259Z" stroke="#984A8A" stroke-width="2" stroke-miterlimit="10"/>
<path d="M29.5947 34.3344C31.9298 34.3344 33.8227 32.4186 33.8227 30.0554C33.8227 27.6921 31.9298 25.7764 29.5947 25.7764C27.2597 25.7764 25.3667 27.6921 25.3667 30.0554C25.3667 32.4186 27.2597 34.3344 29.5947 34.3344Z" stroke="#984A8A" stroke-width="2" stroke-miterlimit="10"/>
<path d="M38.1621 30.0554H61.9725" stroke="#984A8A" stroke-width="2" stroke-miterlimit="10"/>
<path d="M53.1826 30.0554V37.3747" stroke="#984A8A" stroke-width="2" stroke-miterlimit="10"/>
<path d="M56.6318 30.0554V34.3344" stroke="#984A8A" stroke-width="2" stroke-miterlimit="10"/>
</svg>
