<svg width="56" height="79" viewBox="0 0 56 79" fill="none" xmlns="http://www.w3.org/2000/svg">
<path d="M26.0376 13.2743C29.427 13.2743 32.1747 10.5266 32.1747 7.13717C32.1747 3.7477 29.427 1 26.0376 1C22.6481 1 19.9004 3.7477 19.9004 7.13717C19.9004 10.5266 22.6481 13.2743 26.0376 13.2743Z" stroke="#984A8A" stroke-width="2" stroke-miterlimit="10"/>
<path d="M10.5234 41.0621L15.8082 19.7525C15.8082 19.7525 28.4235 19.7525 32.0035 19.7525C35.5835 19.7525 45.3007 17.8773 48.1988 9.18293C50.0741 3.72767 55.1884 5.77339 54.1655 11.0582C53.1427 16.343 48.3693 24.8668 35.754 28.2763V41.2326" stroke="#984A8A" stroke-width="2" stroke-miterlimit="10"/>
<path d="M20.7523 28.959L17.3428 40.8924" stroke="#984A8A" stroke-width="2" stroke-miterlimit="10"/>
<path d="M2 41.2325L46.324 41.062C46.324 41.062 46.1535 46.1763 41.0392 47.5401H7.45526C7.45526 47.3697 2.17048 46.8582 2 41.2325Z" stroke="#984A8A" stroke-width="2" stroke-miterlimit="10"/>
<path d="M41.2105 47.3701H7.45605V53.8482H41.2105V47.3701Z" stroke="#984A8A" stroke-width="2" stroke-miterlimit="10"/>
<path d="M37.4588 53.8477H10.5234V71.2363H37.4588V53.8477Z" stroke="#984A8A" stroke-width="2" stroke-miterlimit="10"/>
<path d="M40.5286 71.2368H7.45605V77.374H40.5286V71.2368Z" stroke="#984A8A" stroke-width="2" stroke-miterlimit="10"/>
</svg>
