<svg width="78" height="66" viewBox="0 0 78 66" fill="none" xmlns="http://www.w3.org/2000/svg">
<path d="M5.64854 2.62463C5.64854 2.62463 9.02377 7.37104 4.06641 15.7036C-1.31285 24.5636 -0.152618 37.3261 11.8716 36.7988C23.8958 36.3769 24.2123 22.5595 18.7275 13.8051C13.5592 5.47248 5.64854 2.62463 5.64854 2.62463Z" stroke="#984A8A" stroke-width="2" stroke-miterlimit="10"/>
<path d="M7.863 16.8636C7.863 16.8636 3.85492 20.3443 4.3823 26.9893" stroke="#984A8A" stroke-width="2" stroke-miterlimit="10"/>
<path d="M6.4918 36.1658L5.01514 64.5388H19.4653L17.5667 35.322" stroke="#984A8A" stroke-width="2" stroke-miterlimit="10"/>
<path d="M28.2197 33.9509L38.029 4.31226L48.0492 33.9509V64.5389H28.2197V33.9509Z" stroke="#984A8A" stroke-width="2" stroke-miterlimit="10"/>
<path d="M28.2197 33.9509H48.0492" stroke="#984A8A" stroke-width="2" stroke-miterlimit="10"/>
<path d="M33.8101 17.0752H42.3536" stroke="#984A8A" stroke-width="2" stroke-miterlimit="10"/>
<path d="M59.0184 36.7988L53.3228 26.6731L64.6087 4.31226L76 26.6731L70.4098 36.7988L73.2577 64.5389H55.8542L59.0184 36.7988Z" stroke="#984A8A" stroke-width="2" stroke-miterlimit="10"/>
<path d="M59.019 36.7987H70.4104" stroke="#984A8A" stroke-width="2" stroke-miterlimit="10"/>
<path d="M65.9803 23.9305V15.176H63.1324V23.9305C62.1831 24.4579 61.6558 25.4072 61.6558 26.4619C61.6558 28.0441 62.9215 29.4152 64.6091 29.4152C66.1912 29.4152 67.5624 28.1495 67.5624 26.4619C67.5624 25.3017 66.9295 24.3524 65.9803 23.9305Z" stroke="#984A8A" stroke-width="2" stroke-miterlimit="10"/>
</svg>
