<svg width="73" height="58" viewBox="0 0 73 58" fill="none" xmlns="http://www.w3.org/2000/svg">
<path d="M55.8167 2L54.6436 9.87212L71.8004 17.89L71.5071 8.85166L55.8167 2Z" stroke="#984A8A" stroke-width="2" stroke-miterlimit="10"/>
<path d="M59.1891 12.0586C59.1891 12.0586 54.6433 13.808 52.8836 14.6826C51.124 15.5573 46.8714 17.8898 45.2584 19.3476C43.6453 20.8054 41.2991 22.409 40.2726 23.2837C39.0995 24.1583 36.6066 25.1788 37.0466 27.5113C37.4865 29.8438 41.2991 29.698 43.3521 29.4064C45.405 29.1149 47.6046 27.6571 49.071 26.7824C50.5374 25.9077 52.5904 26.345 53.6168 27.8028C54.6433 29.2606 54.7899 31.8847 52.5904 34.3629C50.5374 36.987 40.7126 45.0049 38.9529 48.3578C37.1932 51.7108 36.8999 54.7722 38.6596 56.23C40.4193 57.6878 43.4987 54.0432 45.2584 52.7312C47.0181 51.4192 55.0832 44.8591 59.1891 42.5266C63.295 40.1941 66.2278 37.7159 66.8144 33.3425C67.4009 28.9691 69.7472 20.5138 70.4804 17.5982" stroke="#984A8A" stroke-width="2" stroke-miterlimit="10"/>
<path d="M18.1303 2L19.3035 9.87212L2 17.89L2.43992 8.85166L18.1303 2Z" stroke="#984A8A" stroke-width="2" stroke-miterlimit="10"/>
<path d="M14.758 12.0586C14.758 12.0586 19.3039 13.808 21.0635 14.6826C22.8232 15.5573 27.0758 17.8898 28.6888 19.3476C30.3018 20.8054 32.6481 22.409 33.6745 23.2837C34.8477 24.1583 37.3405 25.1788 36.9006 27.5113C36.4607 29.8438 32.6481 29.698 30.5951 29.4064C28.5422 29.1149 26.3426 27.6571 24.8762 26.7824C23.4098 25.9077 21.3568 26.345 20.3303 27.8028C19.3039 29.2606 19.1572 31.8847 21.3568 34.3629C23.4098 36.987 33.2346 45.0049 34.9943 48.3578C36.754 51.7108 37.0472 54.7722 35.2876 56.23C33.5279 57.6878 30.4485 54.0432 28.6888 52.7312C26.9291 51.4192 18.8639 44.8591 14.758 42.5266C10.6521 40.1941 7.71934 37.7159 7.13278 33.3425C6.54623 28.9691 4.19999 20.5138 3.4668 17.5982" stroke="#984A8A" stroke-width="2" stroke-miterlimit="10"/>
</svg>
