<svg width="86" height="62" viewBox="0 0 86 62" fill="none" xmlns="http://www.w3.org/2000/svg">
<path d="M3 18.9121L43.0737 2L83.1474 19.0812L42.906 36.3316L3 18.9121Z" stroke="#984A8A" stroke-width="2" stroke-miterlimit="10"/>
<path d="M43.0731 22.1256C45.8512 22.1256 48.1033 20.8384 48.1033 19.2505C48.1033 17.6627 45.8512 16.3755 43.0731 16.3755C40.2951 16.3755 38.043 17.6627 38.043 19.2505C38.043 20.8384 40.2951 22.1256 43.0731 22.1256Z" stroke="#984A8A" stroke-width="2" stroke-miterlimit="10"/>
<path d="M60.1765 35.486V29.2285L46.7627 21.2798" stroke="#984A8A" stroke-width="2" stroke-miterlimit="10"/>
<path d="M60.3444 60.8542C58.3323 60.8542 56.8232 59.163 56.8232 57.3027V38.8684C56.8232 36.839 58.5 35.3169 60.3444 35.3169C62.3564 35.3169 63.8655 37.0081 63.8655 38.8684V57.1335C63.8655 59.163 62.1888 60.8542 60.3444 60.8542Z" stroke="#984A8A" stroke-width="2" stroke-miterlimit="10"/>
<path d="M63.6973 48.6776C68.2244 45.8025 69.3981 42.7583 69.3981 42.7583V24.8491" stroke="#984A8A" stroke-width="2" stroke-miterlimit="10"/>
<path d="M16.4131 25.3389V42.5892C16.4131 42.5892 20.6049 53.7512 42.57 53.7512C48.1031 53.7512 52.4626 53.0748 56.1514 52.06" stroke="#984A8A" stroke-width="2" stroke-miterlimit="10"/>
</svg>
