<svg width="56" height="62" viewBox="0 0 56 62" fill="none" xmlns="http://www.w3.org/2000/svg">
<g clip-path="url(#clip0)">
<path d="M34.2347 61.0564H4.71727C2.56075 61.0564 0.943359 59.3042 0.943359 57.2825V4.71727C0.943359 2.69553 2.69553 0.943359 4.71727 0.943359H34.2347C36.3912 0.943359 38.0086 2.69553 38.0086 4.71727V57.1477C38.0086 59.3042 36.3912 61.0564 34.2347 61.0564Z" stroke="#984A8A" stroke-width="2" stroke-miterlimit="10"/>
<path d="M38.0088 42.8607V21.4303C38.0088 21.4303 39.087 16.8477 45.287 16.8477C51.487 16.8477 54.3175 16.8477 54.3175 16.8477V42.7259H38.0088V42.8607Z" stroke="#984A8A" stroke-width="2" stroke-miterlimit="10"/>
<path d="M38.0088 42.8606C38.0088 42.8606 38.8175 36.7954 44.4784 36.7954C50.1392 36.7954 54.4523 36.7954 54.4523 36.7954" stroke="#984A8A" stroke-width="2" stroke-miterlimit="10"/>
<path d="M38.0089 42.8607V21.4303C38.0089 21.4303 36.9306 16.8477 30.7306 16.8477C24.5306 16.8477 21.7002 16.8477 21.7002 16.8477V42.7259H38.0089V42.8607Z" stroke="#984A8A" stroke-width="2" stroke-miterlimit="10"/>
<path d="M38.0089 42.8606C38.0089 42.8606 37.2002 36.7954 31.5393 36.7954C25.8785 36.7954 21.5654 36.7954 21.5654 36.7954" stroke="#984A8A" stroke-width="2" stroke-miterlimit="10"/>
<path d="M0.943359 9.70459H38.0086" stroke="#984A8A" stroke-width="2" stroke-miterlimit="10"/>
<path d="M0.943359 50.0044H38.0086" stroke="#984A8A" stroke-width="2" stroke-miterlimit="10"/>
<path d="M15.7695 55.3955H22.5087" stroke="#984A8A" stroke-width="2" stroke-miterlimit="10"/>
</g>
<defs>
<clipPath id="clip0">
<rect width="55.3956" height="62" fill="white"/>
</clipPath>
</defs>
</svg>
