<svg width="80" height="71" viewBox="0 0 80 71" fill="none" xmlns="http://www.w3.org/2000/svg">
<path d="M2 35.5449C2 35.5449 2.2 38.5449 3.2 40.3449V59.4449C3.2 59.4449 0.9 65.2449 3.2 67.9449C5.5 70.6449 9.3 69.1449 10.3 68.0449C11.3 66.9449 14.8 67.3449 17.4 67.3449C20 67.3449 33.7 67.3449 33.7 67.3449C33.7 67.3449 37.2 68.5449 40 68.5449C42.8 68.5449 46.3 67.3449 46.3 67.3449C46.3 67.3449 59.9 67.3449 62.6 67.3449C65.3 67.3449 68.7 67.0449 69.7 68.0449C70.7 69.0449 74.5 70.6449 76.8 67.9449C79.1 65.2449 76.8 59.4449 76.8 59.4449V40.3449C77.8 38.5449 78 35.5449 78 35.5449C78 35.5449 77.8 32.5449 76.8 30.7449V11.6449C76.8 11.6449 79.1 5.84489 76.8 3.14489C74.5 0.444889 70.7 1.94489 69.7 3.04489C68.7 4.14489 65.2 3.74489 62.6 3.74489C59.9 3.74489 46.3 3.74489 46.3 3.74489C46.3 3.74489 42.8 2.54489 40 2.54489C37.2 2.54489 33.7 3.74489 33.7 3.74489C33.7 3.74489 20.1 3.74489 17.4 3.74489C14.7 3.74489 11.4 4.24489 10.3 3.14489C9.2 2.04489 5.5 0.544889 3.2 3.24489C0.9 5.94489 3.2 11.7449 3.2 11.7449V30.8449C2.2 32.6449 2 35.5449 2 35.5449Z" stroke="#984A8A" stroke-width="2" stroke-miterlimit="10"/>
<path d="M69.1 11.1447H11V60.0447H69.1V11.1447Z" stroke="#984A8A" stroke-width="2" stroke-miterlimit="10"/>
<path d="M11 52.7449L33.4 38.5448L45.1 46.4449L63.4 33.3448L69 38.3448" stroke="#984A8A" stroke-width="2" stroke-miterlimit="10"/>
<path d="M26.1 31.7446C28.9167 31.7446 31.2 29.4612 31.2 26.6446C31.2 23.8279 28.9167 21.5446 26.1 21.5446C23.2833 21.5446 21 23.8279 21 26.6446C21 29.4612 23.2833 31.7446 26.1 31.7446Z" stroke="#984A8A" stroke-width="2" stroke-miterlimit="10"/>
</svg>
