<svg width="56" height="64" viewBox="0 0 56 64" fill="none" xmlns="http://www.w3.org/2000/svg">
<path d="M4.48311 26.7196C4.48311 26.7196 12.5687 22.6822 22.6008 22.5327C32.6328 22.3832 43.5633 22.5327 47.0072 22.0841C50.451 21.6355 54.6435 20.2897 54.3441 14.4579C54.0446 8.62617 46.4082 1 33.5312 1C20.6542 1 9.57402 11.9159 7.1783 14.757C4.78257 17.5981 2.38685 21.1869 1.48846 22.6822C0.590062 24.1776 0.590062 27.4673 4.48311 26.7196Z" stroke="#984A8A" stroke-width="2" stroke-miterlimit="10"/>
<path d="M13.3177 8.77556L7.17871 5.48584" stroke="#984A8A" stroke-width="2" stroke-miterlimit="10"/>
<path d="M21.1031 22.981C21.1031 22.981 19.456 32.252 13.7662 35.5417C8.07632 38.8314 8.22605 38.8314 8.22605 38.8314C8.22605 38.8314 3.73407 34.6445 4.63247 26.5697" stroke="#984A8A" stroke-width="2" stroke-miterlimit="10"/>
<path d="M21.2529 25.2243C21.2529 25.2243 35.777 34.6449 50.9 38.3832C50.9 38.3832 55.0925 35.3925 54.9428 30.757C54.793 26.1215 47.0069 21.9346 47.0069 21.9346" stroke="#984A8A" stroke-width="2" stroke-miterlimit="10"/>
<path d="M8.22656 38.8319C8.22656 38.8319 11.8201 62.7571 30.387 62.7571C47.756 62.9067 50.9004 38.3833 50.9004 38.3833" stroke="#984A8A" stroke-width="2" stroke-miterlimit="10"/>
<path d="M31.7344 46.0093C31.7344 46.0093 34.2798 51.8411 40.5686 51.3925" stroke="#984A8A" stroke-width="2" stroke-miterlimit="10"/>
<path d="M28.1409 46.0093C28.1409 46.0093 25.5954 51.8411 19.3066 51.3925" stroke="#984A8A" stroke-width="2" stroke-miterlimit="10"/>
</svg>
