<svg width="69" height="75" viewBox="0 0 69 75" fill="none" xmlns="http://www.w3.org/2000/svg">
<path d="M1.32324 4.44828L6.0069 2C6.0069 2 36.0249 56.075 37.6216 58.3103C39.2183 60.5457 42.731 63.952 45.6051 65.0165C45.6051 65.0165 41.773 70.1259 35.3862 73C35.3862 73 31.1283 68.2099 28.6801 63.4198C26.2318 58.6297 1.32324 4.44828 1.32324 4.44828Z" stroke="#984A8A" stroke-width="2" stroke-miterlimit="10"/>
<path d="M28.5732 63.6324L37.9406 58.8423" stroke="#984A8A" stroke-width="2" stroke-miterlimit="10"/>
<path d="M31.7678 48.0915C41.7738 46.6013 48.2671 50.0076 48.5864 56.7137C48.5864 56.7137 70.3015 51.8172 67.5339 29.9956C64.7663 8.17399 35.5999 5.83216 20.8038 14.3479C18.6749 15.5188 16.7588 16.9026 15.0557 18.2864" stroke="#984A8A" stroke-width="2" stroke-miterlimit="10"/>
<path d="M9.73209 23.6084C3.23884 31.4855 0.897007 40.5334 1.00345 46.2816C1.21635 54.5844 6.64513 63.2066 16.2253 62.5679C16.2253 62.5679 13.1384 55.2231 22.3993 50.7523" stroke="#984A8A" stroke-width="2" stroke-miterlimit="10"/>
<path d="M55.8211 42.7043C58.6479 41.7053 60.2248 38.8735 59.3433 36.3793C58.4618 33.8851 55.4557 32.6731 52.629 33.6721C49.8023 34.6711 48.2253 37.5029 49.1068 39.9971C49.9883 42.4912 52.9944 43.7033 55.8211 42.7043Z" stroke="#984A8A" stroke-width="2" stroke-miterlimit="10"/>
<path d="M52.345 28.2325C54.6188 26.2783 55.0643 23.0676 53.34 21.0612C51.6156 19.0549 48.3745 19.0126 46.1006 20.9669C43.8267 22.9211 43.3813 26.1318 45.1056 28.1382C46.8299 30.1445 50.0711 30.1868 52.345 28.2325Z" stroke="#984A8A" stroke-width="2" stroke-miterlimit="10"/>
<path d="M39.1978 22.2747C39.6622 19.3127 37.9201 16.5794 35.3066 16.1696C32.6931 15.7598 30.1979 17.8288 29.7335 20.7907C29.2691 23.7527 31.0112 26.486 33.6247 26.8958C36.2382 27.3056 38.7334 25.2366 39.1978 22.2747Z" stroke="#984A8A" stroke-width="2" stroke-miterlimit="10"/>
</svg>
