<svg width="82" height="64" viewBox="0 0 82 64" fill="none" xmlns="http://www.w3.org/2000/svg">
<path d="M69.5346 48.5385V62.8H1V1H69.5346V21.2039" stroke="#984A8A" stroke-width="2" stroke-miterlimit="10"/>
<path d="M1 12.3564H69.5346" stroke="#984A8A" stroke-width="2" stroke-miterlimit="10"/>
<path d="M76.0039 21.0718H46.8206C44.4437 21.0718 42.4629 23.0525 42.4629 25.4295V43.6526C42.4629 46.0295 44.4437 48.0102 46.8206 48.0102H48.1411V54.7449L56.9885 48.0102H76.136C78.5129 48.0102 80.4937 46.0295 80.4937 43.6526V25.5615C80.4937 23.0525 78.5129 21.0718 76.0039 21.0718Z" stroke="#984A8A" stroke-width="2" stroke-miterlimit="10"/>
<path d="M7.86674 7.60262C8.37725 7.60262 8.7911 7.18877 8.7911 6.67827C8.7911 6.16776 8.37725 5.75391 7.86674 5.75391C7.35623 5.75391 6.94238 6.16776 6.94238 6.67827C6.94238 7.18877 7.35623 7.60262 7.86674 7.60262Z" stroke="#984A8A" stroke-width="2" stroke-miterlimit="10"/>
<path d="M13.2808 7.60262C13.7913 7.60262 14.2052 7.18877 14.2052 6.67827C14.2052 6.16776 13.7913 5.75391 13.2808 5.75391C12.7703 5.75391 12.3564 6.16776 12.3564 6.67827C12.3564 7.18877 12.7703 7.60262 13.2808 7.60262Z" stroke="#984A8A" stroke-width="2" stroke-miterlimit="10"/>
<path d="M18.6958 7.60262C19.2064 7.60262 19.6202 7.18877 19.6202 6.67827C19.6202 6.16776 19.2064 5.75391 18.6958 5.75391C18.1853 5.75391 17.7715 6.16776 17.7715 6.67827C17.7715 7.18877 18.1853 7.60262 18.6958 7.60262Z" stroke="#984A8A" stroke-width="2" stroke-miterlimit="10"/>
<path d="M49.4629 28.5986H73.4962" stroke="#984A8A" stroke-width="2" stroke-miterlimit="10"/>
<path d="M49.4629 34.2769H73.4962" stroke="#984A8A" stroke-width="2" stroke-miterlimit="10"/>
<path d="M49.4629 39.9551H67.1578" stroke="#984A8A" stroke-width="2" stroke-miterlimit="10"/>
</svg>
