<svg width="71" height="59" viewBox="0 0 71 59" fill="none" xmlns="http://www.w3.org/2000/svg">
<path d="M67.2831 49.0269H3.68975C2.15275 49.0269 1 47.763 1 46.3047V3.72217C1 2.16665 2.24881 1 3.68975 1H67.2831C68.8201 1 69.9728 2.26387 69.9728 3.72217V46.3047C69.9728 47.8603 68.8201 49.0269 67.2831 49.0269Z" stroke="#984A8A" stroke-width="2" stroke-miterlimit="10"/>
<path d="M65.7459 5.18018H5.22656V44.8461H65.7459V5.18018Z" stroke="#984A8A" stroke-width="2" stroke-miterlimit="10"/>
<path d="M27.8975 49.3188V57.8742" stroke="#984A8A" stroke-width="2" stroke-miterlimit="10"/>
<path d="M43.1709 49.3184V57.8738" stroke="#984A8A" stroke-width="2" stroke-miterlimit="10"/>
<path d="M19.4434 57.874H51.5282" stroke="#984A8A" stroke-width="2" stroke-miterlimit="10"/>
<circle cx="18.5" cy="17.5" r="5.5" stroke="#984A8A" stroke-width="2"/>
<path d="M16 17L18.5 19L23.5 14" stroke="#984A8A" stroke-width="2"/>
<circle cx="18.5" cy="33.5" r="5.5" stroke="#984A8A" stroke-width="2"/>
<line x1="29" y1="13" x2="44" y2="13" stroke="#984A8A" stroke-width="2"/>
<line x1="29" y1="17" x2="58" y2="17" stroke="#984A8A" stroke-width="2"/>
<line x1="29" y1="21" x2="58" y2="21" stroke="#984A8A" stroke-width="2"/>
<line x1="29" y1="29" x2="44" y2="29" stroke="#984A8A" stroke-width="2"/>
<line x1="29" y1="33" x2="58" y2="33" stroke="#984A8A" stroke-width="2"/>
<line x1="29" y1="37" x2="58" y2="37" stroke="#984A8A" stroke-width="2"/>
</svg>
