<svg width="76" height="54" viewBox="0 0 76 54" fill="none" xmlns="http://www.w3.org/2000/svg">
<path d="M66.9758 20.9515V47.3126H8.8457V8.49316H51.3734" stroke="#984A8A" stroke-width="2" stroke-miterlimit="10"/>
<path d="M1.62402 47.3125V49.8403C1.62402 51.2847 2.78306 52.3681 4.12041 52.3681H71.8794C73.306 52.3681 74.3758 51.1944 74.3758 49.8403V47.3125H1.62402Z" stroke="#984A8A" stroke-width="2" stroke-miterlimit="10"/>
<path d="M72.5926 1.63184H51.4625V18.0624L47.9854 24.2013L56.2769 21.2221H72.5926V1.63184Z" stroke="#984A8A" stroke-width="2" stroke-miterlimit="10"/>
<path d="M56.4551 7.95117H67.0647" stroke="#984A8A" stroke-width="2" stroke-miterlimit="10"/>
<path d="M56.4551 12.9165H67.0647" stroke="#984A8A" stroke-width="2" stroke-miterlimit="10"/>
<path d="M38.2671 32.8683C41.517 32.8683 44.1515 29.6348 44.1515 25.6461C44.1515 21.6573 41.517 18.4238 38.2671 18.4238C35.0173 18.4238 32.3828 21.6573 32.3828 25.6461C32.3828 29.6348 35.0173 32.8683 38.2671 32.8683Z" stroke="#984A8A" stroke-width="2" stroke-miterlimit="10"/>
<path d="M35.6821 32.3262C35.6821 32.3262 35.4146 35.9373 33.7207 35.9373C32.0267 35.9373 31.7592 35.9373 30.511 35.9373C29.2628 35.9373 28.0146 37.2012 28.0146 38.8262C28.0146 40.4512 28.0146 47.5831 28.0146 47.5831" stroke="#984A8A" stroke-width="2" stroke-miterlimit="10"/>
<path d="M40.4961 32.3262C40.4961 32.3262 40.7636 35.9373 42.4575 35.9373C44.1515 35.9373 44.419 35.9373 45.6672 35.9373C46.9154 35.9373 48.1636 37.2012 48.1636 38.8262C48.1636 40.4512 48.1636 47.5831 48.1636 47.5831" stroke="#984A8A" stroke-width="2" stroke-miterlimit="10"/>
</svg>
