<svg width="82" height="69" viewBox="0 0 82 69" fill="none" xmlns="http://www.w3.org/2000/svg">
<path d="M69.5096 45.2279C76.4473 40.675 81.0002 33.5205 81.0002 25.4988C81.0002 12.057 68.6424 1 53.2494 1C37.8563 1 25.4985 12.057 25.4985 25.4988C25.4985 38.9406 37.8563 49.9975 53.2494 49.9975C54.3334 49.9975 55.4174 49.9975 56.5014 49.7807C60.4039 53.0328 66.908 57.1521 75.7969 56.7184C75.5801 56.7184 71.0272 52.3824 69.5096 45.2279Z" stroke="#984A8A" stroke-width="2" stroke-miterlimit="10"/>
<path d="M51.9488 49.7809C46.9623 56.285 38.507 60.6211 28.9676 60.6211C27.8836 60.6211 26.7996 60.6211 25.7156 60.4043C21.5963 63.6563 15.0922 67.5588 6.42008 67.1252C6.42008 67.1252 10.973 62.7891 12.4906 55.6346C5.55287 51.0817 1 43.9272 1 35.9055C1 22.4637 14.0082 12.0571 29.4012 12.0571" stroke="#984A8A" stroke-width="2" stroke-miterlimit="10"/>
<path d="M40.8912 28.7511C42.2083 28.7511 43.276 27.6834 43.276 26.3663C43.276 25.0492 42.2083 23.9814 40.8912 23.9814C39.5741 23.9814 38.5063 25.0492 38.5063 26.3663C38.5063 27.6834 39.5741 28.7511 40.8912 28.7511Z" stroke="#984A8A" stroke-width="2" stroke-miterlimit="10"/>
<path d="M52.6002 28.7511C53.9173 28.7511 54.985 27.6834 54.985 26.3663C54.985 25.0492 53.9173 23.9814 52.6002 23.9814C51.2831 23.9814 50.2153 25.0492 50.2153 26.3663C50.2153 27.6834 51.2831 28.7511 52.6002 28.7511Z" stroke="#984A8A" stroke-width="2" stroke-miterlimit="10"/>
<path d="M64.3062 28.7511C65.6233 28.7511 66.6911 27.6834 66.6911 26.3663C66.6911 25.0492 65.6233 23.9814 64.3062 23.9814C62.9891 23.9814 61.9214 25.0492 61.9214 26.3663C61.9214 27.6834 62.9891 28.7511 64.3062 28.7511Z" stroke="#984A8A" stroke-width="2" stroke-miterlimit="10"/>
</svg>
