<svg width="82" height="64" viewBox="0 0 82 64" fill="none" xmlns="http://www.w3.org/2000/svg">
<path d="M69.5346 48.5385V62.8H1V1H69.5346V21.2039" stroke="#984A8A" stroke-width="2" stroke-miterlimit="10"/>
<path d="M1 12.3566H69.5346" stroke="#984A8A" stroke-width="2" stroke-miterlimit="10"/>
<path d="M76.0039 21.0719H46.8206C44.4437 21.0719 42.4629 23.0527 42.4629 25.4296V43.6527C42.4629 46.0296 44.4437 48.0104 46.8206 48.0104H48.1411V54.745L56.9885 48.0104H76.136C78.5129 48.0104 80.4937 46.0296 80.4937 43.6527V25.5616C80.4937 23.0527 78.5129 21.0719 76.0039 21.0719Z" stroke="#984A8A" stroke-width="2" stroke-miterlimit="10"/>
<path d="M7.86674 7.60269C8.37725 7.60269 8.7911 7.18884 8.7911 6.67833C8.7911 6.16782 8.37725 5.75397 7.86674 5.75397C7.35623 5.75397 6.94238 6.16782 6.94238 6.67833C6.94238 7.18884 7.35623 7.60269 7.86674 7.60269Z" stroke="#984A8A" stroke-width="2" stroke-miterlimit="10"/>
<path d="M13.2808 7.60269C13.7913 7.60269 14.2052 7.18884 14.2052 6.67833C14.2052 6.16782 13.7913 5.75397 13.2808 5.75397C12.7703 5.75397 12.3564 6.16782 12.3564 6.67833C12.3564 7.18884 12.7703 7.60269 13.2808 7.60269Z" stroke="#984A8A" stroke-width="2" stroke-miterlimit="10"/>
<path d="M18.6958 7.60269C19.2064 7.60269 19.6202 7.18884 19.6202 6.67833C19.6202 6.16782 19.2064 5.75397 18.6958 5.75397C18.1853 5.75397 17.7715 6.16782 17.7715 6.67833C17.7715 7.18884 18.1853 7.60269 18.6958 7.60269Z" stroke="#984A8A" stroke-width="2" stroke-miterlimit="10"/>
<path d="M49.4629 28.5988H73.4962" stroke="#984A8A" stroke-width="2" stroke-miterlimit="10"/>
<path d="M49.4629 34.277H73.4962" stroke="#984A8A" stroke-width="2" stroke-miterlimit="10"/>
<path d="M49.4629 39.9551H67.1578" stroke="#984A8A" stroke-width="2" stroke-miterlimit="10"/>
</svg>
