<svg width="71" height="59" viewBox="0 0 71 59" fill="none" xmlns="http://www.w3.org/2000/svg">
<path d="M67.2831 49.0269H3.68975C2.15275 49.0269 1 47.763 1 46.3047V3.72217C1 2.16665 2.24881 1 3.68975 1H67.2831C68.8201 1 69.9728 2.26387 69.9728 3.72217V46.3047C69.9728 47.8603 68.8201 49.0269 67.2831 49.0269Z" stroke="#984A8A" stroke-width="2" stroke-miterlimit="10"/>
<path d="M65.7459 5.18018H5.22656V44.8461H65.7459V5.18018Z" stroke="#984A8A" stroke-width="2" stroke-miterlimit="10"/>
<path d="M27.8975 49.3188V57.8742" stroke="#984A8A" stroke-width="2" stroke-miterlimit="10"/>
<path d="M43.1709 49.3184V57.8738" stroke="#984A8A" stroke-width="2" stroke-miterlimit="10"/>
<path d="M19.4434 57.874H51.5282" stroke="#984A8A" stroke-width="2" stroke-miterlimit="10"/>
<path d="M50 13H22V37H50V13Z" stroke="#984A8A" stroke-width="2" stroke-miterlimit="10"/>
<path d="M22 33L32.8138 26.4124L38.4621 30.0773L47.2966 24L50 26.3196" stroke="#984A8A" stroke-width="2" stroke-miterlimit="10"/>
<path d="M29.5 23C30.8807 23 32 21.8807 32 20.5C32 19.1193 30.8807 18 29.5 18C28.1193 18 27 19.1193 27 20.5C27 21.8807 28.1193 23 29.5 23Z" stroke="#984A8A" stroke-width="2" stroke-miterlimit="10"/>
</svg>
