<svg width="81" height="77" viewBox="0 0 81 77" fill="none" xmlns="http://www.w3.org/2000/svg">
<path d="M74.9558 1.62463H6.56445V44.8877H74.9558V1.62463Z" stroke="#984A8A" stroke-width="2" stroke-miterlimit="10"/>
<path d="M80 44.8873H1.66895V54.8598H80V44.8873Z" stroke="#984A8A" stroke-width="2" stroke-miterlimit="10"/>
<path d="M40.8345 54.8599V75.8315" stroke="#984A8A" stroke-width="2" stroke-miterlimit="10"/>
<path d="M34.6034 54.8599L19.6196 75.8315" stroke="#984A8A" stroke-width="2" stroke-miterlimit="10"/>
<path d="M47.0654 54.8597L62.0492 75.8313" stroke="#984A8A" stroke-width="2" stroke-miterlimit="10"/>
<path d="M23.4771 31.5422C23.4771 31.5422 32.5267 18.3433 35.3454 16.4368C38.0158 14.5303 40.6861 14.9702 40.0927 18.6366C39.351 22.303 37.5707 26.116 37.5707 28.1691C37.5707 30.2223 39.796 30.8089 41.5763 29.6357C43.3565 28.4624 44.9884 26.9959 46.472 25.9693C47.9555 24.9427 49.1423 25.9693 49.1423 27.7292C49.1423 29.489 48.8456 31.8355 50.6259 32.4221C52.4061 33.0087 56.2633 29.489 56.2633 29.489" stroke="#984A8A" stroke-width="2" stroke-miterlimit="10"/>
</svg>
