<svg width="58" height="62" viewBox="0 0 58 62" fill="none" xmlns="http://www.w3.org/2000/svg">
<path d="M15.8318 7.88117C20.2159 4.24554 25.7763 2 31.9782 2C45.7722 2 56.9999 13.2277 56.9999 27.0217C56.9999 40.8157 45.7722 52.0434 31.8713 52.0434C17.9704 52.0434 6.95654 40.8157 6.95654 27.0217C6.95654 23.2791 7.81199 19.7504 9.20208 16.6494" stroke="#984A8A" stroke-width="2" stroke-miterlimit="10"/>
<path d="M24.3861 13.8688L16.9009 17.0767L13.693 24.6688L10.4851 17.0767L3 13.8688L10.4851 10.7678L13.693 3.17578L16.9009 10.7678L24.3861 13.8688Z" stroke="#984A8A" stroke-width="2" stroke-miterlimit="10"/>
<path d="M45.3447 20.071L39.7844 22.4235L37.4319 27.9839L35.0794 22.4235L29.519 20.071L35.0794 17.7186L37.4319 12.1582L39.7844 17.7186L45.3447 20.071Z" stroke="#984A8A" stroke-width="2" stroke-miterlimit="10"/>
<path d="M30.8023 33.0101L26.2043 35.0417L24.2796 39.5328L22.3548 35.0417L17.7568 33.0101L22.3548 31.0853L24.2796 26.5942L26.2043 31.0853L30.8023 33.0101Z" stroke="#984A8A" stroke-width="2" stroke-miterlimit="10"/>
<path d="M19.6819 48.9419L12.5176 56.7478V60.7042H51.6541V56.7478L44.2759 49.0488" stroke="#984A8A" stroke-width="2" stroke-miterlimit="10"/>
</svg>
