<svg width="206" height="59" viewBox="0 0 75 21" fill="none" xmlns="http://www.w3.org/2000/svg">
<path fill-rule="evenodd" clip-rule="evenodd" d="M16.8633 2.75355C17.3592 2.5545 17.6899 2.32227 17.6899 2.32227H17.4915C17.4915 2.32227 17.6568 2.18957 17.723 2.09004C17.8222 2.02369 17.8552 1.89099 17.8552 1.89099V1.82464C17.8222 1.82464 17.756 1.79147 17.723 1.82464C17.6899 1.82464 17.5907 1.89099 17.5907 1.89099C17.5907 1.89099 17.9544 1.59241 18.0536 1.49289C18.1528 1.39336 18.2851 1.22749 18.2851 1.16113C18.3181 1.09478 18.3181 1.09478 18.3181 1.09478C18.3181 1.09478 18.3181 1.06161 18.2851 1.09478C18.252 1.09478 18.0867 1.22749 18.0536 1.22749C18.0206 1.26066 17.9214 1.26066 17.9214 1.26066C17.9214 1.26066 18.3843 0.829381 18.5496 0.663504C18.7149 0.497628 18.6819 0.497628 18.7149 0.431277C18.748 0.331751 19.1117 0.0995233 19.1117 0.0995233C19.1117 0.0995233 19.1448 0.0331726 19.0456 0.0331726C18.9464 0.066348 17.8552 0.69668 17.1609 0.995258C14.0527 2.25592 7.50581 2.5545 6.15013 6.03791C5.29044 8.26066 7.37355 9.62085 8.03485 9.98578C8.69616 10.3507 10.5147 10.782 10.7793 10.981C11.0438 11.1469 11.0438 11.1469 11.0438 11.1469L13.7882 8.89099C13.7882 8.89099 14.1189 8.32701 13.4245 8.09478C12.7301 7.86256 10.3825 7.49763 10.5478 6.00474C10.8454 3.84834 14.7471 3.58294 16.8633 2.75355Z" fill="#984A8A"/>
<path fill-rule="evenodd" clip-rule="evenodd" d="M4.99305 20.7014C8.56409 19.7062 11.7053 15.3602 14.2844 12.9052C14.2844 12.9052 14.2844 12.9052 14.2844 12.8389C14.2844 12.7725 14.2844 12.7062 14.4166 12.5735C14.5489 12.4076 14.6812 12.2749 14.7804 12.1422C14.8465 12.0426 14.9788 11.8104 14.9788 11.8104C14.9788 11.8104 14.9788 11.7772 14.9457 11.7772H14.8796C14.8796 11.7772 14.9126 11.7441 14.9457 11.7109C14.9788 11.6777 14.9788 11.6445 14.9788 11.6445C14.9788 11.6445 14.9457 11.6445 14.9126 11.6777C14.8796 11.7109 14.8796 11.6777 14.8796 11.6777V11.6445C14.9126 11.6114 15.0118 11.545 15.0118 11.5118C15.0118 11.4787 15.0118 11.4787 14.9788 11.4455C14.9788 11.4123 14.9788 11.4123 14.9788 11.3791C14.9788 11.3791 15.0449 11.3128 15.0449 11.2796C15.0449 11.2796 15.0449 11.2464 15.0118 11.2464C14.9788 11.2464 14.9126 11.2464 14.9126 11.2464C14.9126 11.2464 14.9457 11.2133 14.9126 11.2133C14.9126 11.1801 14.8796 11.1801 14.8465 11.2133C14.8134 11.2133 14.7804 11.2133 14.7804 11.2133C14.7804 11.1801 15.4086 10.6493 15.1441 10.782C15.111 10.782 15.0779 10.8152 15.0449 10.8483C15.0118 10.8815 14.9126 10.9147 14.9126 10.9147C14.9126 10.9147 14.9126 10.9147 14.9126 10.8815C14.9126 10.8483 14.9457 10.8152 14.9788 10.782C15.0118 10.7488 15.0779 10.6825 15.0779 10.6825H14.8796C14.8465 10.6825 14.8134 10.6825 14.8134 10.6825C14.8134 10.6825 14.9126 10.5498 14.9457 10.4834C14.9788 10.4171 15.3425 10.0853 15.3425 10.0521C15.3755 10.019 15.3755 10.019 15.3755 9.98578H15.3425C15.3425 9.98578 15.2763 10.019 15.2433 10.0521C15.2102 10.0853 14.6812 10.4834 14.6812 10.4834C14.6812 10.4834 14.6812 10.4502 14.7473 10.3839C14.7804 10.2844 14.8796 10.1848 14.9457 10.0853C15.0118 9.98578 14.9788 9.9526 14.9457 9.9526C14.9126 9.98578 14.6812 10.1517 14.582 10.218C14.4828 10.2844 14.3836 10.3175 14.3836 10.3175C14.3836 10.3175 14.5489 10.0853 14.582 10.019C14.615 9.9526 14.6481 9.88625 14.6812 9.85308C14.7142 9.78673 15.0118 9.38862 15.0118 9.35545C15.0118 9.32227 14.9457 9.32227 14.9457 9.32227C14.9457 9.32227 15.2433 8.92417 15.2763 8.85782C15.3094 8.79147 15.3425 8.69194 15.2763 8.65876C15.2102 8.62559 15.111 8.69194 15.111 8.69194C13.7223 10.019 6.54711 16.8531 3.07526 17.5498C1.98411 17.782 1.48813 16.4881 1.48813 16.4881C-1.42161 17.5166 0.0663263 22.0616 4.99305 20.7014Z" fill="#984A8A"/>
<path d="M21.2279 11.346L19.3101 8.69194H20.3682L21.8231 10.7488L23.2779 8.69194H24.336L22.4182 11.346L24.5013 14.1659H23.4433L21.79 11.9431L20.2029 14.1659H19.1448L21.2279 11.346Z" fill="#323031"/>
<path d="M26.9151 8.69194L28.6676 11.6777L30.3208 8.69194H31.3458L29.0643 12.7062C28.403 13.8673 27.9732 14.2322 27.3119 14.2322C27.0474 14.2322 26.7828 14.1659 26.5844 14.0663V13.3365C26.7167 13.4028 26.9151 13.4692 27.1135 13.4692C27.5433 13.4692 27.8079 13.2701 28.2708 12.5735L25.9562 8.72512H26.9151V8.69194Z" fill="#323031"/>
<path d="M32.1725 13.4028H32.8668C33.2306 12.872 33.462 11.545 33.462 8.69194H37.3637V13.4028H38.1903V15.4597H37.3968V14.1327H32.966V15.4597H32.2055V13.4028H32.1725ZM36.504 13.4028V9.4218H34.2886C34.2886 11.4123 34.0903 12.673 33.7927 13.4028H36.504Z" fill="#323031"/>
<path d="M42.2243 8.62559C43.8114 8.62559 44.9357 9.78673 44.9357 11.4455C44.9357 13.0711 43.7784 14.2654 42.2243 14.2654C40.6372 14.2654 39.513 13.1043 39.513 11.4455C39.513 9.78673 40.6372 8.62559 42.2243 8.62559ZM42.2243 13.436C43.2824 13.436 44.076 12.6066 44.076 11.4455C44.076 10.2844 43.2824 9.45497 42.2243 9.45497C41.1332 9.45497 40.3727 10.2844 40.3727 11.4455C40.3727 12.6066 41.1662 13.436 42.2243 13.436Z" fill="#323031"/>
<path d="M46.2913 14.199V13.436H46.3575C46.5228 13.436 46.7212 13.3365 46.7873 13.2038L48.0438 11.346L46.9526 9.65402C46.8534 9.52132 46.6881 9.42179 46.5228 9.42179H46.4236V8.65876H46.7873C47.118 8.65876 47.4156 8.82464 47.5809 9.09004L48.639 10.7488C48.7382 10.8815 48.9035 10.981 49.0688 10.981H49.5979V8.69194H50.4245V10.981H50.9535C51.1189 10.981 51.2842 10.9147 51.3834 10.7488L52.4415 9.09004C52.6068 8.82464 52.9044 8.65876 53.235 8.65876H53.5988V9.42179H53.4996C53.3342 9.42179 53.1358 9.48814 53.0697 9.65402L51.9786 11.346L53.235 13.2038C53.3342 13.3365 53.4996 13.436 53.6649 13.436H53.731V14.199H53.3673C53.0366 14.199 52.7391 14.0332 52.5737 13.7678L51.3834 11.9763C51.2842 11.8436 51.1189 11.7441 50.9535 11.7441H50.4245V14.1659H49.5979V11.7441H49.0358C48.8704 11.7441 48.7051 11.8436 48.6059 11.9763L47.4156 13.7678C47.2502 14.0332 46.9526 14.199 46.622 14.199H46.2913Z" fill="#323031"/>
<path d="M55.5496 14.1659V8.69194H56.4093V11.0142H59.5174V8.69194H60.3771V14.1327H59.5174V11.7441H56.4093V14.1327H55.5496V14.1659Z" fill="#323031"/>
<path d="M63.3861 8.69194V12.7393L66.6926 8.69194H67.4531V14.1327H66.5934V10.0853L63.2538 14.1327H62.4933V8.69194H63.3861Z" fill="#323031"/>
<path d="M69.6023 8.69194H70.462V10.981H71.1233C71.2887 10.981 71.454 10.8815 71.5532 10.7488L72.7105 9.12322C72.8758 8.85782 73.1734 8.69194 73.504 8.69194H73.9008V9.45497H73.8016C73.6363 9.45497 73.471 9.5545 73.3718 9.6872L72.2145 11.3791L73.5702 13.237C73.6694 13.3697 73.8347 13.4692 74 13.4692H74.0662V14.2322H73.7355C73.4048 14.2322 73.1073 14.0663 72.9419 13.8009L71.6524 12.0095C71.5532 11.8768 71.3879 11.7772 71.2225 11.7772H70.5612V14.199H69.7015V8.69194H69.6023Z" fill="#323031"/>
<path d="M20.5004 17.9479C21.3601 17.9479 21.9884 18.5782 21.9884 19.4739C21.9884 20.3697 21.3601 21 20.5004 21C19.6408 21 19.0125 20.3697 19.0125 19.4739C19.0125 18.5782 19.6408 17.9479 20.5004 17.9479ZM20.5004 20.5355C21.0956 20.5355 21.4924 20.0711 21.4924 19.4408C21.4924 18.8104 21.0626 18.346 20.5004 18.346C19.9053 18.346 19.5085 18.8104 19.5085 19.4408C19.4754 20.1043 19.9053 20.5355 20.5004 20.5355Z" fill="#323031"/>
<path d="M29.6595 20.9336V17.981H30.1224V19.2417H31.8088V17.981H32.2717V20.9336H31.8088V19.6398H30.1224V20.9336H29.6595Z" fill="#323031"/>
<path d="M39.8436 20.5024C39.9097 20.5355 39.9759 20.5355 40.042 20.5355C40.3727 20.5355 40.538 20.0711 40.538 17.981H42.6542V20.9336H42.1912V18.3791H40.9678C40.9678 20.4028 40.7033 20.9668 40.2073 20.9668C40.1081 20.9668 39.9759 20.9336 39.8767 20.9005V20.5024H39.8436Z" fill="#323031"/>
<path d="M50.2592 20.9336L51.5487 17.981H51.9785L53.2681 20.9336H52.7721L52.4745 20.2701H51.0527L50.7551 20.9336H50.2592ZM51.218 19.872H52.2761L51.7471 18.6114L51.218 19.872Z" fill="#323031"/>
<path d="M60.8731 17.981H61.336V20.1706L63.1215 17.981H63.5514V20.9336H63.0885V18.7441L61.3029 20.9336H60.9062V17.981H60.8731ZM61.832 17.218C61.832 17.3839 61.9973 17.5498 62.1957 17.5498C62.3941 17.5498 62.5594 17.4171 62.5594 17.218H62.8901C62.8901 17.5829 62.5925 17.8483 62.1957 17.8483C61.7989 17.8483 61.5013 17.5829 61.5013 17.218H61.832Z" fill="#323031"/>
<path d="M71.3878 20.9336V17.981H71.8508V19.2417H73.5371V17.981H74V20.9336H73.5371V19.6398H71.8508V20.9336H71.3878Z" fill="#323031"/>
</svg>
