<svg width="26" height="26" viewBox="0 0 26 26" fill="none" xmlns="http://www.w3.org/2000/svg">
<path d="M15 14.8261C15 14.8261 15.2609 16.0435 16.2174 16.7391C17.1739 17.4348 19.087 17.6957 20.0435 18.2174C21 18.7391 21.9565 18.913 22.3043 20.6522M11 14.8261C11 14.8261 10.7391 16.0435 9.78261 16.7391C8.82609 17.4348 6.91304 17.6957 5.95652 18.2174C5 18.7391 4.04348 18.913 3.69565 20.6522M25 13C25 19.6274 19.6274 25 13 25C6.37258 25 1 19.6274 1 13C1 6.37258 6.37258 1 13 1C19.6274 1 25 6.37258 25 13ZM16.5652 7.08696C15.9565 6.13043 15.087 5.34783 13 5.34783C10.913 5.34783 10.0435 6.13043 9.43478 7.08696C8.73913 8.04348 8.3913 11.4348 10.1304 14.1304C11.2609 15.8696 12.4783 15.9565 13 15.9565C13.5217 15.9565 14.7391 15.8696 15.8696 14.1304C17.5217 11.4348 17.1739 8.04348 16.5652 7.08696Z" stroke="#D885C9" stroke-width="1.5" stroke-miterlimit="10"/>
</svg>
