<?xml version="1.0" standalone="no"?>
<!DOCTYPE svg PUBLIC "-//W3C//DTD SVG 1.1//EN" "http://www.w3.org/Graphics/SVG/1.1/DTD/svg11.dtd" >
<svg xmlns="http://www.w3.org/2000/svg" xmlns:xlink="http://www.w3.org/1999/xlink" version="1.1">
<metadata>
Created by FontForge 20170924 at Fri Jul 19 06:11:58 2019
 By www-data
-a- without a hook
</metadata>
<defs>
<font id="CloserText-Medium" horiz-adv-x="650" >
  <font-face 
    font-family="Closer Text Med"
    font-weight="500"
    font-stretch="normal"
    units-per-em="1000"
    panose-1="0 0 0 0 0 0 0 0 0 0"
    ascent="850"
    descent="-150"
    x-height="495"
    cap-height="700"
    bbox="-69 -250.003 1217.99 993"
    underline-thickness="50"
    underline-position="-175"
    unicode-range="U+000D-FB04"
  />
<missing-glyph horiz-adv-x="364" 
d="M33 0v666h265v-666h-265zM66 33h199v600h-199v-600z" />
    <glyph glyph-name="f_f" unicode="ff" horiz-adv-x="748" 
d="M398 411l0.000976562 84h84v95c0 52 13.333 93 40 123s63.667 45 111 45c38 0 68.333 -7.33301 91 -22v-80c-10 8 -27.333 12 -52 12c-26.667 0 -47.334 -8.33301 -62.001 -25s-22 -40 -22 -70v-78h136v-84h-136v-411h-106v411h-84zM350.001 411h-135.999v-411h-106v411
h-84v84h84v95c0 52 13.333 93 40 123s63.667 45 111 45c38 0 68.333 -7.33301 91 -22v-80c-10 8 -27.333 12 -52 12c-26.667 0 -47.334 -8.33301 -62.001 -25s-22 -40 -22 -70v-78h136v-84z" />
    <glyph glyph-name="fi" unicode="fi" horiz-adv-x="625" 
d="M24 411l0.000976562 84h84v95c0 52 13.333 93 40 123s63.667 45 111 45c38 0 68.333 -7.33301 91 -22v-80c-10 8 -27.333 12 -52 12c-26.667 0 -47.334 -8.33301 -62.001 -25s-22 -40 -22 -70v-78h136v-84h-136v-411h-106v411h-84zM447.001 495h106v-495h-106v495z
M434.001 672c0 18.667 6.16699 34.167 18.5 46.5s28.166 18.5 47.499 18.5c18.667 0 34.167 -6.16699 46.5 -18.5s18.5 -27.833 18.5 -46.5s-6.16699 -34.167 -18.5 -46.5s-27.833 -18.5 -46.5 -18.5c-19.333 0 -35.166 6.16699 -47.499 18.5s-18.5 27.833 -18.5 46.5z" />
    <glyph glyph-name="fl" unicode="fl" horiz-adv-x="657" 
d="M24 411l0.000976562 84h84v95c0 52 13.333 93 40 123s63.667 45 111 45c38 0 68.333 -7.33301 91 -22v-80c-10 8 -27.333 12 -52 12c-26.667 0 -47.334 -8.33301 -62.001 -25s-22 -40 -22 -70v-78h136v-84h-136v-411h-106v411h-84zM447.001 750l106 -0.000976562v-620
c0 -15.333 4 -27.5 12 -36.5s19.333 -13.5 34 -13.5c13.333 0 24.333 2.33301 33 7v-77c-22 -12 -46.333 -18 -73 -18c-34.667 0 -62 9.83301 -82 29.5s-30 46.834 -30 81.501v647z" />
    <glyph glyph-name="f_f_i" unicode="ffi" horiz-adv-x="999" 
d="M398 411l0.000976562 84h84v95c0 52 13.333 93 40 123s63.667 45 111 45c38 0 68.333 -7.33301 91 -22v-80c-10 8 -27.333 12 -52 12c-26.667 0 -47.334 -8.33301 -62.001 -25s-22 -40 -22 -70v-78h136v-84h-136v-411h-106v411h-84zM24.001 495h84.001v95
c0 52 13.333 93 40 123s63.667 45 111 45c38 0 68.333 -7.33301 91 -22v-80c-10 8 -27.333 12 -52 12c-26.667 0 -47.334 -8.33301 -62.001 -25s-22 -40 -22 -70v-78h136v-84h-136v-411h-106v411h-84v84zM927.002 0h-106v495h106v-495zM808.002 672
c0 18.667 6.16699 34.167 18.5 46.5s28.166 18.5 47.499 18.5c18.667 0 34.167 -6.16699 46.5 -18.5s18.5 -27.833 18.5 -46.5s-6.16699 -34.167 -18.5 -46.5s-27.833 -18.5 -46.5 -18.5c-19.333 0 -35.166 6.16699 -47.499 18.5s-18.5 27.833 -18.5 46.5z" />
    <glyph glyph-name="f_f_l" unicode="ffl" horiz-adv-x="1031" 
d="M350 411h-135.999v-411h-106v411h-84v84h84v95c0 52 13.333 93 40 123s63.667 45 111 45c38 0 68.333 -7.33301 91 -22v-80c-10 8 -27.333 12 -52 12c-26.667 0 -47.334 -8.33301 -62.001 -25s-22 -40 -22 -70v-78h136v-84zM398.001 411l0.000976562 84h84v95
c0 52 13.333 93 40 123s63.667 45 111 45c38 0 68.333 -7.33301 91 -22v-80c-10 8 -27.333 12 -52 12c-26.667 0 -47.334 -8.33301 -62.001 -25s-22 -40 -22 -70v-78h136v-84h-136v-411h-106v411h-84zM821.002 750l106 -0.000976562v-620c0 -15.333 4 -27.5 12 -36.5
s19.333 -13.5 34 -13.5c13.333 0 24.333 2.33301 33 7v-77c-22 -12 -46.333 -18 -73 -18c-34.667 0 -62 9.83301 -82 29.5s-30 46.834 -30 81.501v647z" />
    <glyph glyph-name=".notdef" horiz-adv-x="364" 
d="M33 0v666h265v-666h-265zM66 33h199v600h-199v-600z" />
    <glyph glyph-name="uni0000" horiz-adv-x="0" 
 />
    <glyph glyph-name="uni0000" horiz-adv-x="0" 
 />
    <glyph glyph-name="uni000D" unicode="&#xd;" horiz-adv-x="250" 
 />
    <glyph glyph-name="space" unicode=" " horiz-adv-x="273" 
 />
    <glyph glyph-name="exclam" unicode="!" horiz-adv-x="252" 
d="M168 216h-84l-11 234v250h106v-250zM60 55c0 18.667 6.16699 34.167 18.5 46.5s28.166 18.5 47.499 18.5c18.667 0 34.167 -6.16699 46.5 -18.5s18.5 -27.833 18.5 -46.5s-6.16699 -34.167 -18.5 -46.5s-27.833 -18.5 -46.5 -18.5
c-19.333 0 -35.166 6.16699 -47.499 18.5s-18.5 27.833 -18.5 46.5z" />
    <glyph glyph-name="quotedbl" unicode="&#x22;" horiz-adv-x="420" 
d="M89 445l-11 255h91l-12 -255h-68zM263 445l-12 255h91l-12 -255h-67z" />
    <glyph glyph-name="numbersign" unicode="#" horiz-adv-x="679" 
d="M29 179l14 73h123l34 196h-123l13 74h123l32 178h73l-32 -178h167l32 178h73l-32 -178h124l-13 -74h-124l-34 -196h124l-14 -73h-123l-32 -179h-73l32 179h-167l-32 -179h-73l32 179h-124zM239 252h167l34 196h-167z" />
    <glyph glyph-name="dollar" unicode="$" horiz-adv-x="682" 
d="M63 237h105.004c-6 -14 -9 -28 -9 -42c0 -20.667 6.33301 -38.334 19 -53.001s29.167 -25.667 49.5 -33s40.166 -12.666 59.499 -15.999s39 -5 59 -5c18.667 0 37.167 1.5 55.5 4.5s37.166 8 56.499 15s35 17.5 47 31.5s18 30.667 18 50c0 48 -48.667 82.333 -146 103
c-5.33301 1.33301 -13.333 2.83301 -24 4.5s-18.334 2.83398 -23.001 3.50098c-3.33301 0.666992 -7.83301 1.5 -13.5 2.5s-9.83398 1.5 -12.501 1.5c-80.667 15.333 -141.167 38.166 -181.5 68.499s-60.5 73.5 -60.5 129.5c0 59.333 21.833 107.5 65.5 144.5
s102.5 57.833 176.5 62.5v116h73v-117c69.333 -6.66699 125.166 -27 167.499 -61s63.5 -76.333 63.5 -127c0 -8.66699 -6 -27.334 -18 -56.001h-106c6 15.333 9 29 9 41c0 26 -9.5 47.5 -28.5 64.5s-40 28.333 -63 34s-47.5 8.5 -73.5 8.5c-24 0 -47 -2.66699 -69 -8
s-42.333 -15.666 -61 -30.999s-28 -35 -28 -59c0 -46.667 44.667 -80 134 -100c10.667 -2 27.334 -5 50.001 -9c26.667 -3.33301 51.667 -7.66602 75 -12.999s47.833 -13.333 73.5 -24s47.5 -23.334 65.5 -38.001s33 -33.167 45 -55.5s18 -47.5 18 -75.5
c0 -60 -22.833 -108.333 -68.5 -145s-107.5 -57.667 -185.5 -63v-116h-73v116c-76 6 -137.333 26.333 -184 61s-70 77.667 -70 129c0 19.333 4.33301 38 13 56z" />
    <glyph glyph-name="percent" unicode="%" horiz-adv-x="893" 
d="M230 0h-93l527 700h93zM41 508c0 58.667 15.3291 107 45.9961 145s69.334 57 116.001 57s85.334 -19 116.001 -57s46 -86.333 46 -145s-15.167 -107.167 -45.5 -145.5s-69.166 -57.5 -116.499 -57.5s-86.166 19.167 -116.499 57.5s-45.5 86.833 -45.5 145.5zM116.996 509
c0 -38.667 8 -70.5 24 -95.5s36.667 -37.5 62 -37.5c24.667 0 45.167 12.5 61.5 37.5s24.5 56.833 24.5 95.5c0 37.333 -8.16699 68.5 -24.5 93.5s-36.833 37.5 -61.5 37.5c-25.333 0 -46 -12.333 -62 -37s-24 -56 -24 -94zM527.996 193c0 58.667 15.3311 107 45.998 145
s69.667 57 117 57c46.667 0 85.334 -19 116.001 -57s46 -86.333 46 -145s-15.167 -107.167 -45.5 -145.5s-69.166 -57.5 -116.499 -57.5s-86.333 19 -117 57s-46 86.667 -46 146zM604.994 194c0 -38.667 8 -70.5 24 -95.5s36.667 -37.5 62 -37.5c24.667 0 45 12.5 61 37.5
s24 56.833 24 95.5c0 38 -8 69.333 -24 94s-36.333 37 -61 37c-25.333 0 -46 -12.333 -62 -37s-24 -56 -24 -94z" />
    <glyph glyph-name="ampersand" unicode="&#x26;" horiz-adv-x="706" 
d="M39 209c0 46.667 13.001 85.167 39.001 115.5s61.333 56.833 106 79.5c-28.667 42.667 -43 85.334 -43 128.001c0 52 17.5 94.667 52.5 128s79.5 50 133.5 50c51.333 0 93.833 -15 127.5 -45s50.5 -67.667 50.5 -113c0 -41.333 -14.167 -75 -42.5 -101
s-68.833 -51.333 -121.5 -76l149 -163c20 40.667 31.667 87.334 35 140.001h106c-6 -84.667 -29.333 -157.334 -70 -218.001l123 -134h-137l-54 59c-56.667 -46 -123 -69 -199 -69c-74.667 0 -135.834 20.667 -183.501 62s-71.5 93.666 -71.5 156.999zM297.001 82
c50.667 0 94.333 15.667 131 47l-183 200c-66.667 -36 -100 -77.667 -100 -125c0 -35.333 14.167 -64.5 42.5 -87.5s64.833 -34.5 109.5 -34.5zM407 551c0 19.333 -7.5 35.334 -22.5 48.001s-33.833 19 -56.5 19c-25.333 0 -46 -7.5 -62 -22.5s-24 -33.833 -24 -56.5
c0 -26 12.667 -57 38 -93c42.667 17.333 74.5 33.666 95.5 48.999s31.5 34 31.5 56z" />
    <glyph glyph-name="quotesingle" unicode="'" horiz-adv-x="246" 
d="M157 445h-68l-11 255h91z" />
    <glyph glyph-name="parenleft" unicode="(" horiz-adv-x="365" 
d="M261 800h81.002c-0.666992 0 -6.33398 -7.33301 -17.001 -22s-24.334 -37.167 -41.001 -67.5s-32.834 -64.666 -48.501 -102.999s-29.167 -85 -40.5 -140s-17 -110.833 -17 -167.5s5.66699 -112.5 17 -167.5s25 -101.667 41 -140s32 -72.666 48 -102.999
s29.667 -52.833 41 -67.5l17 -22h-81c-4.66699 4.66699 -11.167 11.5 -19.5 20.5s-23.166 29.167 -44.499 60.5s-40 64.666 -56 99.999s-30.667 81.833 -44 139.5s-20 117.5 -20 179.5s6.33301 121.5 19 178.5s28 104.167 46 141.5s36 70.166 54 98.499
s33.333 48.833 46 61.5z" />
    <glyph glyph-name="parenright" unicode=")" horiz-adv-x="365" 
d="M24 800l80.999 -0.00195312c4.66699 -4.66699 11.167 -11.5 19.5 -20.5s23 -29.167 44 -60.5s39.5 -64.666 55.5 -99.999s30.667 -81.833 44 -139.5s20 -117.5 20 -179.5s-6.33301 -121.5 -19 -178.5s-28 -104.167 -46 -141.5s-35.833 -70.166 -53.5 -98.499
s-32.834 -48.833 -45.501 -61.5l-19 -20h-81c4.66699 5.33301 10.667 13 18 23s20.333 31.833 39 65.5s35.334 68.667 50.001 105s27.834 82.333 39.501 138s17.5 111.834 17.5 168.501s-5.66699 112.5 -17 167.5s-25 101.667 -41 140s-32 72.666 -48 102.999
s-29.667 52.833 -41 67.5z" />
    <glyph glyph-name="asterisk" unicode="*" horiz-adv-x="462" 
d="M39 532l25 76l139 -57l-12 149h80l-12 -149l139 57l25 -76l-146 -35l97 -114l-65 -47l-78 128l-78 -128l-65 47l97 114z" />
    <glyph glyph-name="plus" unicode="+" 
d="M288 313h-193v74h193v193h74v-193h193v-74h-193v-193h-74v193z" />
    <glyph glyph-name="comma" unicode="," horiz-adv-x="243" 
d="M35 -145c31.333 44.667 47 98.001 47 160.001c0 36 -5.33301 68.667 -16 98h112c5.33301 -18 8 -39.333 8 -64c0 -80.667 -27.667 -145.334 -83 -194.001h-68z" />
    <glyph glyph-name="hyphen" unicode="-" horiz-adv-x="375" 
d="M64 243v74h247v-74h-247z" />
    <glyph glyph-name="period" unicode="." horiz-adv-x="243" 
d="M51 63c0 20.667 6.66699 37.667 20 51s30.333 20 51 20c20 0 36.667 -6.66699 50 -20s20 -30.333 20 -51s-6.66699 -37.667 -20 -51s-30 -20 -50 -20c-20.667 0 -37.667 6.66699 -51 20s-20 30.333 -20 51z" />
    <glyph glyph-name="slash" unicode="/" horiz-adv-x="548" 
d="M82 -200h-82l466 1000h82z" />
    <glyph glyph-name="zero" unicode="0" horiz-adv-x="684" 
d="M53 350c0 104.667 27.167 190.834 81.5 258.501s123.5 101.5 207.5 101.5s153.167 -33.833 207.5 -101.5s81.5 -153.834 81.5 -258.501s-27.167 -190.834 -81.5 -258.501s-123.5 -101.5 -207.5 -101.5s-153.167 33.833 -207.5 101.5s-81.5 153.834 -81.5 258.501z
M159 350c0 -76 17.167 -138.667 51.5 -188s78.166 -74 131.499 -74s97.166 24.667 131.499 74s51.5 112 51.5 188s-17.167 138.667 -51.5 188s-78.166 74 -131.499 74s-97.166 -24.667 -131.499 -74s-51.5 -112 -51.5 -188z" />
    <glyph glyph-name="one" unicode="1" horiz-adv-x="458" 
d="M64 475v101c48.667 11.333 90.334 28.5 125.001 51.5s54.667 47.167 60 72.5h88v-700h-106v556c-46.667 -40.667 -102.334 -67.667 -167.001 -81z" />
    <glyph glyph-name="two" unicode="2" horiz-adv-x="635" 
d="M156 463l-102.999 0.00195312c6.66699 74.667 35.5 134.5 86.5 179.5s114.833 67.5 191.5 67.5c72 0 130.667 -19.833 176 -59.5s68 -91.834 68 -156.501c0 -42.667 -11 -80.167 -33 -112.5s-50 -58.833 -84 -79.5s-68.5 -40 -103.5 -58s-68.333 -39.667 -100 -65
s-53.834 -53.333 -66.501 -84h395v-95h-522v24c0 39.333 7.5 75 22.5 107s34.5 58.833 58.5 80.5s50.5 41.667 79.5 60s58 35.333 87 51s55.5 31.5 79.5 47.5s43.5 34.667 58.5 56s22.5 44.666 22.5 69.999c0 35.333 -13 63.5 -39 84.5s-60.333 31.5 -103 31.5
c-48 0 -87.5 -13.5 -118.5 -40.5s-48.5 -63.167 -52.5 -108.5z" />
    <glyph glyph-name="three" unicode="3" horiz-adv-x="647" 
d="M159 463l-103.002 -0.00195312c7.33301 74.667 36.5 134.5 87.5 179.5s115.5 67.5 193.5 67.5c70.667 0 128.334 -18.333 173.001 -55s67 -84.334 67 -143.001c0 -67.333 -31.667 -117.666 -95 -150.999c35.333 -14.667 63.333 -36.667 84 -66s31 -61.666 31 -96.999
c0 -61.333 -25.5 -111.333 -76.5 -150s-116.5 -58 -196.5 -58c-79.333 0 -143.666 18.5 -192.999 55.5s-74 85.5 -74 145.5c0 20 3.66699 38.667 11 56h100c-6 -21.333 -9 -37.333 -9 -48c0 -33.333 15.167 -60.166 45.5 -80.499s69.5 -30.5 117.5 -30.5
c50.667 0 91.5 11 122.5 33s46.5 51.333 46.5 88c0 28.667 -11.833 53.334 -35.5 74.001s-54.5 31 -92.5 31h-75v84h55c38.667 0 69.667 9.66699 93 29s35 44 35 74c0 33.333 -12.833 60.166 -38.5 80.499s-59.5 30.5 -101.5 30.5c-48.667 0 -88.5 -13.5 -119.5 -40.5
s-48.5 -63.167 -52.5 -108.5z" />
    <glyph glyph-name="four" unicode="4" horiz-adv-x="655" 
d="M52 219l274 481h114l-261 -456h235v181h101v-181h89v-90h-89v-154h-101v154h-362v65z" />
    <glyph glyph-name="five" unicode="5" horiz-adv-x="632" 
d="M48 169c0 14.667 3.00195 29.998 9.00195 45.998h92c-4 -14 -6 -26.333 -6 -37c0 -27.333 13.833 -49.666 41.5 -66.999s64.167 -26 109.5 -26c54.667 0 98.167 13 130.5 39s48.5 59.333 48.5 100c0 40 -15.333 73 -46 99s-70 39 -118 39
c-33.333 0 -63.833 -6.16699 -91.5 -18.5s-46.834 -28.166 -57.501 -47.499l-87 21l33 383h409v-95h-328l-16 -188c46 24.667 96 37 150 37c73.333 0 134.666 -21.833 183.999 -65.5s74 -99.167 74 -166.5c0 -68 -25.833 -123.667 -77.5 -167s-119.167 -65 -202.5 -65
c-74 0 -134.333 17 -181 51s-70 76.667 -70 128z" />
    <glyph glyph-name="six" unicode="6" horiz-adv-x="658" 
d="M53 321c0 118 31.998 212.331 95.998 282.998s149.333 106 256 106c52.667 0 96.667 -7 132 -21v-94c-39.333 11.333 -80.666 17 -123.999 17c-77.333 0 -140 -24.5 -188 -73.5s-71.667 -113.5 -71 -193.5c13.333 34 38.833 61.833 76.5 83.5s79.834 32.5 126.501 32.5
c70 0 128.833 -22.167 176.5 -66.5s71.5 -100.166 71.5 -167.499c0 -69.333 -25.333 -126.166 -76 -170.499s-115 -66.5 -193 -66.5c-84.667 0 -153 28.5 -205 85.5s-78 138.833 -78 245.5zM178.998 224.998c0 -39.333 15 -72 45 -98s68.333 -39 115 -39s85 13 115 39
s45 58.667 45 98c0 40 -15 73 -45 99s-68.333 39 -115 39s-85 -13 -115 -39s-45 -59 -45 -99z" />
    <glyph glyph-name="seven" unicode="7" horiz-adv-x="623" 
d="M322 0l-109.002 0.000976562c0 55.333 7.33301 113.833 22 175.5s32.334 117 53.001 166s41.334 94 62.001 135s38.334 72.833 53.001 95.5l22 33h-381v95h523v-66c-6.66699 -8.66699 -15.5 -20.834 -26.5 -36.501s-30.5 -47.5 -58.5 -95.5s-52.833 -96 -74.5 -144
s-41.334 -105 -59.001 -171s-26.5 -128.333 -26.5 -187z" />
    <glyph glyph-name="eight" unicode="8" horiz-adv-x="637" 
d="M175 352c-32.667 17.333 -58.168 39.833 -76.501 67.5s-27.5 58.5 -27.5 92.5c0 56 23.333 102.167 70 138.5s106 54.5 178 54.5c71.333 0 130.333 -18.167 177 -54.5s70 -82.5 70 -138.5c0 -34 -9.16699 -64.833 -27.5 -92.5s-43.833 -50.167 -76.5 -67.5
c38.667 -16.667 69 -39.5 91 -68.5s33 -61.833 33 -98.5c0 -56.667 -25.167 -103.334 -75.5 -140.001s-114.166 -55 -191.499 -55c-78 0 -142.167 18.333 -192.5 55s-75.5 83.334 -75.5 140.001c0 36.667 11 69.5 33 98.5s52.333 51.833 91 68.5zM153.999 197
c0 -33.333 15.5 -60.833 46.5 -82.5s70.5 -32.5 118.5 -32.5c47.333 0 86.333 10.833 117 32.5s46 49.167 46 82.5c0 32.667 -15.5 59.667 -46.5 81s-69.833 32 -116.5 32c-48 0 -87.5 -10.667 -118.5 -32s-46.5 -48.333 -46.5 -81zM318.999 389
c41.333 0 75.5 10.5 102.5 31.5s40.5 47.833 40.5 80.5c0 32 -13.5 58.5 -40.5 79.5s-61.167 31.5 -102.5 31.5c-42 0 -76.667 -10.5 -104 -31.5s-41 -47.5 -41 -79.5c0 -32.667 13.667 -59.5 41 -80.5s62 -31.5 104 -31.5z" />
    <glyph glyph-name="nine" unicode="9" horiz-adv-x="658" 
d="M605 376c0 -120.667 -32.498 -215.167 -97.498 -283.5s-153.5 -102.5 -265.5 -102.5c-58.667 0 -104.334 7.66699 -137.001 23v94c36 -12.667 79.333 -19 130 -19c80 0 145.167 24.333 195.5 73s74.5 112.667 72.5 192c-12.667 -35.333 -37.334 -63.833 -74.001 -85.5
s-78.667 -32.5 -126 -32.5c-70.667 0 -130 22.5 -178 67.5s-72 101.5 -72 169.5c0 69.333 25.333 126.333 76 171s115 67 193 67c84.667 0 153 -28.667 205 -86s78 -140 78 -248zM479.002 473c0 40.667 -15 74 -45 100s-68 39 -114 39c-46.667 0 -85.167 -13 -115.5 -39
s-45.5 -59.333 -45.5 -100s15.167 -74.167 45.5 -100.5s68.833 -39.5 115.5 -39.5c46 0 84 13.167 114 39.5s45 59.833 45 100.5z" />
    <glyph glyph-name="colon" unicode=":" horiz-adv-x="243" 
d="M51 63c0 20.667 6.66699 37.667 20 51s30.333 20 51 20c20 0 36.667 -6.66699 50 -20s20 -30.333 20 -51s-6.66699 -37.667 -20 -51s-30 -20 -50 -20c-20.667 0 -37.667 6.66699 -51 20s-20 30.333 -20 51zM51 435c0 20.667 6.66699 37.667 20 51s30.333 20 51 20
c20 0 36.667 -6.66699 50 -20s20 -30.333 20 -51s-6.66699 -37.667 -20 -51s-30 -20 -50 -20c-20.667 0 -37.667 6.66699 -51 20s-20 30.333 -20 51z" />
    <glyph glyph-name="semicolon" unicode=";" horiz-adv-x="243" 
d="M51 435c0 20.667 6.66699 37.667 20 51s30.333 20 51 20c20 0 36.667 -6.66699 50 -20s20 -30.333 20 -51s-6.66699 -37.667 -20 -51s-30 -20 -50 -20c-20.667 0 -37.667 6.66699 -51 20s-20 30.333 -20 51zM103 -145l-68 0.000976562c31.333 44.667 47 98 47 160
c0 36 -5.33301 68.667 -16 98h112c5.33301 -18 8 -39.333 8 -64c0 -80.667 -27.667 -145.334 -83 -194.001z" />
    <glyph glyph-name="less" unicode="&#x3c;" 
d="M185 350l370 -146v-79l-470 186v79l470 184v-79z" />
    <glyph glyph-name="equal" unicode="=" 
d="M95 433v74h460v-74h-460zM555 193h-460v74h460v-74z" />
    <glyph glyph-name="greater" unicode="&#x3e;" 
d="M565 311l-470 -186v79l370 146l-370 145v79l470 -184v-79z" />
    <glyph glyph-name="question" unicode="?" horiz-adv-x="590" 
d="M313 710c68.667 0 125.167 -18.1689 169.5 -54.502s66.5 -83.166 66.5 -140.499c0 -54 -18.333 -98.167 -55 -132.5s-86.334 -63.833 -149.001 -88.5l-2 -78h-85l-6 126c72 37.333 118.333 64 139 80c34.667 27.333 52 57 52 89c0 29.333 -12.5 53.5 -37.5 72.5
s-57.167 28.5 -96.5 28.5c-46.667 0 -85 -13.167 -115 -39.5s-46.333 -61.166 -49 -104.499h-104c6.66699 72.667 34.834 131.167 84.501 175.5s112.167 66.5 187.5 66.5zM235 54.998c0 18.667 6.16699 34.167 18.5 46.5s27.833 18.5 46.5 18.5
c19.333 0 35.166 -6.16699 47.499 -18.5s18.5 -27.833 18.5 -46.5s-6.16699 -34.167 -18.5 -46.5s-28.166 -18.5 -47.499 -18.5c-18.667 0 -34.167 6.16699 -46.5 18.5s-18.5 27.833 -18.5 46.5z" />
    <glyph glyph-name="at" unicode="@" horiz-adv-x="941" 
d="M54 259c0 124 39.166 226.17 117.499 306.503s177.833 120.5 298.5 120.5c119.333 0 218.666 -38.667 297.999 -116s119 -171.333 119 -282c0 -68.667 -16.167 -124.834 -48.5 -168.501s-73.5 -65.5 -123.5 -65.5c-28 0 -53.167 7 -75.5 21s-39.5 32.667 -51.5 56
c-33.333 -52 -80.666 -78 -141.999 -78c-51.333 0 -93.5 19.333 -126.5 58s-49.5 88 -49.5 148s16.5 109.5 49.5 148.5s75.167 58.5 126.5 58.5c52 0 95 -20 129 -60v51h85v-259c0 -18.667 6 -34.167 18 -46.5s27 -18.5 45 -18.5c26.667 0 48.334 14.167 65.001 42.5
s25 64.833 25 109.5c0 91.333 -32.667 168.666 -98 231.999s-147 95 -245 95c-99.333 0 -181.333 -33.333 -246 -100s-97 -151.334 -97 -254.001s32 -187 96 -253s146.667 -99 248 -99c72.667 0 137.667 17 195 51v-77c-58.667 -32 -125 -48 -199 -48
c-120 0 -218.833 40.333 -296.5 121s-116.5 182.667 -116.5 306zM356.999 259.003c0 -37.333 10 -68 30 -92s45.667 -36 77 -36s57 12 77 36s30 54.667 30 92s-10.167 68.166 -30.5 92.499s-45.833 36.5 -76.5 36.5s-56.167 -12.167 -76.5 -36.5
s-30.5 -55.166 -30.5 -92.499z" />
    <glyph glyph-name="A" unicode="A" horiz-adv-x="754" 
d="M141 0h-122l308 700h101l307 -700h-122l-67 159h-337zM378 555l-129 -301h256z" />
    <glyph glyph-name="B" unicode="B" horiz-adv-x="697" 
d="M78 700l319.999 -0.000976562c70 0 126.667 -17.667 170 -53s65 -80.666 65 -135.999c0 -68.667 -31.333 -119 -94 -151c36.667 -14 65.334 -35.5 86.001 -64.5s31 -62.833 31 -101.5c0 -56.667 -22 -103.167 -66 -139.5s-101.333 -54.5 -172 -54.5h-340v700z
M416.999 309.999l-228 0.000976562v-215h228c38.667 0 69.5 10.167 92.5 30.5s34.5 46.166 34.5 77.499s-11.5 57 -34.5 77s-53.833 30 -92.5 30zM396.999 605l-208 0.000976562v-205h208c37.333 0 67.5 9.66699 90.5 29s34.5 44 34.5 74
c0 29.333 -11.5 53.666 -34.5 72.999s-53.167 29 -90.5 29z" />
    <glyph glyph-name="C" unicode="C" horiz-adv-x="755" 
d="M686 423l-102.999 -0.000976562c6 20 9 38.333 9 55c0 37.333 -17.167 68.166 -51.5 92.499s-78.5 36.5 -132.5 36.5c-75.333 0 -135.5 -24.167 -180.5 -72.5s-67.5 -110.166 -67.5 -185.499c0 -74.667 22 -136 66 -184s102 -72 174 -72
c57.333 0 104.5 14.833 141.5 44.5s57.5 67.834 61.5 114.501h106c-6.66699 -76.667 -39.5 -139.5 -98.5 -188.5s-132.167 -73.5 -219.5 -73.5c-102 0 -184.667 33.667 -248 101s-95 153.333 -95 258c0 106 32.833 192.667 98.5 260s152.167 101 259.5 101
c85.333 0 155.166 -21 209.499 -63s81.5 -96 81.5 -162c0 -21.333 -3.66699 -42 -11 -62z" />
    <glyph glyph-name="D" unicode="D" horiz-adv-x="768" 
d="M78 0v700h281c105.333 0 191.833 -32.833 259.5 -98.5s101.5 -149.5 101.5 -251.5c0 -102.667 -34.167 -186.667 -102.5 -252s-154.5 -98 -258.5 -98h-281zM189 95h170c72.667 0 132.5 24 179.5 72s70.5 109 70.5 183s-23.5 135 -70.5 183s-106.833 72 -179.5 72h-170
v-510z" />
    <glyph glyph-name="E" unicode="E" horiz-adv-x="648" 
d="M78 0v700h516v-95h-405v-205h363v-93h-363v-212h415v-95h-526z" />
    <glyph glyph-name="F" unicode="F" horiz-adv-x="629" 
d="M78 700h511v-95h-400v-205h358v-93h-358v-307h-111v700z" />
    <glyph glyph-name="G" unicode="G" horiz-adv-x="758" 
d="M48 353c0 104.667 33.165 190.334 99.498 257.001s154.5 100 264.5 100c81.333 0 148.333 -18.333 201 -55s79 -85 79 -145c0 -20.667 -4 -40 -12 -58h-102c6 21.333 9 38 9 50c0 33.333 -16.167 59.666 -48.5 78.999s-73.5 29 -123.5 29
c-79.333 0 -141.666 -23.833 -186.999 -71.5s-68 -109.167 -68 -184.5c0 -76.667 23.667 -139.334 71 -188.001s110.333 -73 189 -73c72.667 0 129.667 20 171 60v135h-211v90h312v-282c-65.333 -70.667 -156 -106 -272 -106c-111.333 0 -201.166 33.833 -269.499 101.5
s-102.5 154.834 -102.5 261.501z" />
    <glyph glyph-name="H" unicode="H" horiz-adv-x="776" 
d="M189 0h-111v700h111v-299h398v299h111v-700h-111v305h-398v-305z" />
    <glyph glyph-name="I" unicode="I" horiz-adv-x="267" 
d="M78 0v700h111v-700h-111z" />
    <glyph glyph-name="J" unicode="J" horiz-adv-x="449" 
d="M29 7l-0.000976562 100c26.667 -9.33301 54.334 -14 83.001 -14c48 0 86 14.167 114 42.5s42 67.166 42 116.499v448h111v-464c0 -73.333 -23 -132.666 -69 -177.999s-106.667 -68 -182 -68c-41.333 0 -74.333 5.66699 -99 17z" />
    <glyph glyph-name="K" unicode="K" horiz-adv-x="696" 
d="M78 0v700h111v-329l321 329h139l-279 -288l302 -412h-131l-250 338l-102 -108v-230h-111z" />
    <glyph glyph-name="L" unicode="L" horiz-adv-x="594" 
d="M78 0v700h111v-605h381v-95h-492z" />
    <glyph glyph-name="M" unicode="M" horiz-adv-x="932" 
d="M186 0h-108v700h157l231 -515l231 515h158v-700h-109v554l-232 -519h-95l-233 519v-554z" />
    <glyph glyph-name="N" unicode="N" horiz-adv-x="780" 
d="M78 0v700h73l443 -505v505h109v-700h-77l-440 506v-506h-108z" />
    <glyph glyph-name="O" unicode="O" horiz-adv-x="798" 
d="M48 350c0 104.667 33 190.834 99 258.501s150 101.5 252 101.5s186 -33.833 252 -101.5s99 -153.834 99 -258.501s-33 -190.834 -99 -258.501s-150 -101.5 -252 -101.5s-186 33.833 -252 101.5s-99 153.834 -99 258.501zM160 350c0 -74.667 22.5 -136.167 67.5 -184.5
s102.167 -72.5 171.5 -72.5s126.5 24.167 171.5 72.5s67.5 109.833 67.5 184.5s-22.5 136.167 -67.5 184.5s-102.167 72.5 -171.5 72.5s-126.5 -24.167 -171.5 -72.5s-67.5 -109.833 -67.5 -184.5z" />
    <glyph glyph-name="P" unicode="P" horiz-adv-x="667" 
d="M78 700l311 0.000976562c70.667 0 128 -19.833 172 -59.5s66 -90.834 66 -153.501s-22.167 -113.667 -66.5 -153s-101.5 -59 -171.5 -59h-200v-275h-111v700zM189 370.001h199c38.667 0 69.5 11 92.5 33s34.5 50 34.5 84c0 34.667 -11.5 63 -34.5 85s-53.833 33 -92.5 33
h-199v-235z" />
    <glyph glyph-name="Q" unicode="Q" horiz-adv-x="798" 
d="M399 710c102 0 186 -33.833 252 -101.5s99 -153.834 99 -258.501c0 -69.333 -15.167 -131.333 -45.5 -186s-71.833 -97.334 -124.5 -128.001l134 -149l-81 -67l-151 179c-26 -6 -53.667 -9 -83 -9c-102 0 -186 33.833 -252 101.5s-99 153.834 -99 258.501
s33 190.834 99 258.501s150 101.5 252 101.5zM399 93c69.333 0 126.5 24.167 171.5 72.5s67.5 109.833 67.5 184.5s-22.5 136.167 -67.5 184.5s-102.167 72.5 -171.5 72.5s-126.5 -24.167 -171.5 -72.5s-67.5 -109.833 -67.5 -184.5s22.5 -136.167 67.5 -184.5
s102.167 -72.5 171.5 -72.5z" />
    <glyph glyph-name="R" unicode="R" horiz-adv-x="693" 
d="M78 0l0.000976562 700.002h311c70.667 0 128 -19.333 172 -58s66 -88.334 66 -149.001c0 -42.667 -11.333 -80.334 -34 -113.001s-54 -57 -94 -73c13.333 -10 23.666 -23 30.999 -39l132 -268h-115l-123 249c-8.66699 17.333 -24 26 -46 26h-189v-275h-111z
M388.001 605.002h-199v-235h199c38.667 0 69.5 11 92.5 33s34.5 50 34.5 84c0 34.667 -11.5 63 -34.5 85s-53.833 33 -92.5 33z" />
    <glyph glyph-name="S" unicode="S" horiz-adv-x="686" 
d="M63 237h104.999c-6 -14 -9 -28 -9 -42c0 -32.667 17 -58.667 51 -78s80 -29 138 -29c54.667 0 98.334 9.16699 131.001 27.5s49 42.833 49 73.5c0 31.333 -17.5 55.333 -52.5 72s-83.167 29.667 -144.5 39c-89.333 14.667 -156.5 37.334 -201.5 68.001
s-67.5 75.334 -67.5 134.001c0 63.333 24.5 113.833 73.5 151.5s114.5 56.5 196.5 56.5c81.333 0 147.5 -17.667 198.5 -53s76.5 -81 76.5 -137c0 -18.667 -4 -37.334 -12 -56.001h-106c5.33301 13.333 8 27 8 41c0 32.667 -14.833 58.667 -44.5 78s-70.167 29 -121.5 29
c-48.667 0 -87.667 -9 -117 -27s-44 -41.667 -44 -71c0 -32 16.5 -55.833 49.5 -71.5s81.167 -28.167 144.5 -37.5c88 -12 155.333 -34.167 202 -66.5s70 -78.5 70 -138.5c0 -64.667 -26.167 -115.834 -78.5 -153.501s-122.833 -56.5 -211.5 -56.5
c-87.333 0 -158.5 17.833 -213.5 53.5s-82.5 81.5 -82.5 137.5c0 19.333 4.33301 38 13 56z" />
    <glyph glyph-name="T" unicode="T" horiz-adv-x="669" 
d="M645 605h-255v-605h-111v605h-255v95h621v-95z" />
    <glyph glyph-name="U" unicode="U" horiz-adv-x="750" 
d="M70 281v419h112v-409c0 -59.333 17.667 -107.166 53 -143.499s82 -54.5 140 -54.5s104.833 18.167 140.5 54.5s53.5 84.166 53.5 143.499v409h111v-419c0 -87.333 -28 -157.666 -84 -210.999s-129.667 -80 -221 -80s-165 26.667 -221 80s-84 123.666 -84 210.999z" />
    <glyph glyph-name="V" unicode="V" horiz-adv-x="754" 
d="M327 0l-308 700h122l237 -555l235 555h122l-307 -700h-101z" />
    <glyph glyph-name="W" unicode="W" horiz-adv-x="1098" 
d="M267 0l-248 700h120l178 -532l181 532h102l182 -532l177 532h120l-246 -700h-101l-183 535l-182 -535h-100z" />
    <glyph glyph-name="X" unicode="X" horiz-adv-x="732" 
d="M24 0l268 361l-248 339h135l187 -262l187 262h135l-247 -339l267 -361h-136l-206 285l-206 -285h-136z" />
    <glyph glyph-name="Y" unicode="Y" horiz-adv-x="698" 
d="M293 310l-274 390h136l194 -285l194 285h136l-274 -390v-310h-112v310z" />
    <glyph glyph-name="Z" unicode="Z" horiz-adv-x="675" 
d="M623 0h-571v66l409 539h-404v95h561v-66l-409 -539h414v-95z" />
    <glyph glyph-name="bracketleft" unicode="[" horiz-adv-x="365" 
d="M82 800h260v-74h-164v-852h164v-74h-260v1000z" />
    <glyph glyph-name="backslash" unicode="\" horiz-adv-x="548" 
d="M82 800l466 -1000h-82l-466 1000h82z" />
    <glyph glyph-name="bracketright" unicode="]" horiz-adv-x="365" 
d="M24 -126h164v852h-164v74h259v-1000h-259v74z" />
    <glyph glyph-name="asciicircum" unicode="^" 
d="M68 454l257 256l257 -256l-52 -53l-205 205l-205 -205z" />
    <glyph glyph-name="underscore" unicode="_" horiz-adv-x="500" 
d="M0 -147v74h500v-74h-500z" />
    <glyph glyph-name="grave" unicode="`" horiz-adv-x="305" 
d="M34 746h123l114 -167h-82z" />
    <glyph glyph-name="a" unicode="a" horiz-adv-x="561" 
d="M224 290l146.998 0.000976562v34c0 24.667 -10.333 45.334 -31 62.001s-46 25 -76 25c-28.667 0 -52.667 -7.83301 -72 -23.5s-30 -34.834 -32 -57.501h-97c4.66699 51.333 26.334 93.5 65.001 126.5s86.667 49.5 144 49.5c58.667 0 107.5 -17 146.5 -51
s58.5 -77 58.5 -129v-209c0 -12 3.33301 -21.667 10 -29s15.667 -11 27 -11c10 0 18.333 2.33301 25 7v-73c-18 -12.667 -39.667 -19 -65 -19c-23.333 0 -43.5 5.66699 -60.5 17s-29.167 26.666 -36.5 45.999c-40.667 -44 -93 -66 -157 -66
c-51.333 0 -93.666 14.333 -126.999 43s-50 66 -50 112c0 45.333 16.333 81 49 107s76.667 39 132 39zM148.998 148.001c0 -18.667 7.99902 -33.834 23.999 -45.501s37 -17.5 63 -17.5c36 0 67.5 11.333 94.5 34s40.5 50.667 40.5 84v8h-129
c-27.333 0 -49.666 -5.66699 -66.999 -17s-26 -26.666 -26 -45.999z" />
    <glyph glyph-name="b" unicode="b" horiz-adv-x="608" 
d="M73 0v750.002h106v-319c42.667 50 96.667 75 162 75s119 -24.333 161 -73s63 -110.334 63 -185.001s-21 -136.334 -63 -185.001s-95.667 -73 -161 -73s-119.333 25 -162 75v-65h-106zM181 248.002c0 -47.333 13.167 -86.333 39.5 -117s59.5 -46 99.5 -46
s73.167 15.333 99.5 46s39.5 69.667 39.5 117c0 46.667 -13.167 85.5 -39.5 116.5s-59.5 46.5 -99.5 46.5s-73.167 -15.5 -99.5 -46.5s-39.5 -69.833 -39.5 -116.5z" />
    <glyph glyph-name="c" unicode="c" horiz-adv-x="553" 
d="M494 290h-94.999c4 12.667 6 24.334 6 35.001c0 25.333 -10.167 46 -30.5 62s-46.5 24 -78.5 24c-44.667 0 -80.334 -15.167 -107.001 -45.5s-40 -69.5 -40 -117.5s13.333 -87.167 40 -117.5s62.334 -45.5 107.001 -45.5c33.333 0 61.166 8.66699 83.499 26
s34.5 39.666 36.5 66.999h96c-4.66699 -54.667 -28 -99.667 -70 -135s-94 -53 -156 -53c-72 0 -130.5 24 -175.5 72s-67.5 109.667 -67.5 185c0 76 23.167 138.167 69.5 186.5s106.833 72.5 181.5 72.5c61.333 0 111.5 -16 150.5 -48s58.5 -72.667 58.5 -122
c0 -14.667 -3 -30 -9 -46z" />
    <glyph glyph-name="d" unicode="d" horiz-adv-x="608" 
d="M267 506c65.333 0 119.333 -25.002 162 -75.002v319h106v-750h-106v65c-42.667 -50 -96.667 -75 -162 -75s-119 24.333 -161 73s-63 110.334 -63 185.001s21 136.334 63 185.001s95.667 73 161 73zM288 84.998c40 0 73.167 15.333 99.5 46s39.5 69.667 39.5 117
c0 46.667 -13.167 85.5 -39.5 116.5s-59.5 46.5 -99.5 46.5c-39.333 0 -72.333 -15.5 -99 -46.5s-40 -69.833 -40 -116.5c0 -47.333 13.167 -86.333 39.5 -117s59.5 -46 99.5 -46z" />
    <glyph glyph-name="e" unicode="e" horiz-adv-x="566" 
d="M293 506c66 0 120.001 -19.833 162.001 -59.5s63 -90.5 63 -152.5c0 -24 -5 -50.333 -15 -79h-355c6 -40 22.5 -71.833 49.5 -95.5s61.5 -35.5 103.5 -35.5c34.667 0 63.5 7.83301 86.5 23.5s35.5 35.5 37.5 59.5h95c-4.66699 -51.333 -28.334 -93.5 -71.001 -126.5
s-95 -49.5 -157 -49.5c-74 0 -134 24 -180 72s-69 109.333 -69 184c0 75.333 23.5 137.333 70.5 186s106.833 73 179.5 73zM152.001 297l269 -0.00195312c-2 34.667 -14.5 62.834 -37.5 84.501s-52.833 32.5 -89.5 32.5c-35.333 0 -65.833 -10.667 -91.5 -32
s-42.5 -49.666 -50.5 -84.999z" />
    <glyph glyph-name="f" unicode="f" horiz-adv-x="374" 
d="M24 495h84.001v95c0 52 13.333 93 40 123s63.667 45 111 45c38 0 68.333 -7.33301 91 -22v-80c-10 8 -27.333 12 -52 12c-26.667 0 -47.334 -8.33301 -62.001 -25s-22 -40 -22 -70v-78h136v-84h-136v-411h-106v411h-84v84z" />
    <glyph glyph-name="g" unicode="g" horiz-adv-x="608" 
d="M267 506c65.333 0 119.334 -25.0029 162.001 -75.0029v64h106v-503c0 -76.667 -21.5 -136.167 -64.5 -178.5s-104.833 -63.5 -185.5 -63.5c-68.667 0 -123.834 14.5 -165.501 43.5s-62.5 67.5 -62.5 115.5c0 16.667 3 31 9 43h98c-4 -8 -6 -17.667 -6 -29
c0 -23.333 11.5 -42.166 34.5 -56.499s53.5 -21.5 91.5 -21.5c96.667 0 145 49.333 145 148v72c-42.667 -50 -96.667 -75 -162 -75s-119 24.333 -161 73s-63 110.334 -63 185.001s21 136.334 63 185.001s95.667 73 161 73zM149.001 247.997
c0 -47.333 13.332 -86.333 39.999 -117s60 -46 100 -46s73 15.333 99 46s39 69.667 39 117c0 46.667 -13.167 85.5 -39.5 116.5s-59.166 46.5 -98.499 46.5c-40 0 -73.333 -15.5 -100 -46.5s-40 -69.833 -40 -116.5z" />
    <glyph glyph-name="h" unicode="h" horiz-adv-x="596" 
d="M73 0v749.999h106v-317c43.333 48.667 99.333 73 168 73c54.667 0 98.167 -16.333 130.5 -49s48.5 -77 48.5 -133v-324h-106v300c0 34.667 -9.5 61.834 -28.5 81.501s-44.5 29.5 -76.5 29.5c-40 0 -72.667 -14.5 -98 -43.5s-38 -65.833 -38 -110.5v-257h-106z" />
    <glyph glyph-name="i" unicode="i" horiz-adv-x="252" 
d="M73 0v495h106v-495h-106zM60 672c0 18.667 6.16699 34.167 18.5 46.5s28.166 18.5 47.499 18.5c18.667 0 34.167 -6.16699 46.5 -18.5s18.5 -27.833 18.5 -46.5s-6.16699 -34.167 -18.5 -46.5s-27.833 -18.5 -46.5 -18.5c-19.333 0 -35.166 6.16699 -47.499 18.5
s-18.5 27.833 -18.5 46.5z" />
    <glyph glyph-name="j" unicode="j" horiz-adv-x="259" 
d="M68 672c0 18.667 6.16699 34.167 18.5 46.5s27.833 18.5 46.5 18.5c19.333 0 35.166 -6.16699 47.499 -18.5s18.5 -27.833 18.5 -46.5s-6.16699 -34.167 -18.5 -46.5s-28.166 -18.5 -47.499 -18.5c-18.667 0 -34.167 6.16699 -46.5 18.5s-18.5 27.833 -18.5 46.5zM80 495
h105.999v-612c0 -40.667 -11.167 -72.667 -33.5 -96s-53.166 -35 -92.499 -35c-28.667 0 -54.334 6 -77.001 18v88c10.667 -5.33301 23.334 -8 38.001 -8c18.667 0 33.167 6 43.5 18s15.5 28.667 15.5 50v577z" />
    <glyph glyph-name="k" unicode="k" horiz-adv-x="552" 
d="M73 0v750h106v-477l196 222h135l-185 -202l203 -293h-127l-150 219l-72 -82v-137h-106z" />
    <glyph glyph-name="l" unicode="l" horiz-adv-x="283" 
d="M73 103v646.999h106v-620c0 -15.333 4.16699 -27.5 12.5 -36.5s19.5 -13.5 33.5 -13.5c13.333 0 24.333 2.33301 33 7v-77c-22 -12 -46.333 -18 -73 -18c-34.667 0 -62 9.83301 -82 29.5s-30 46.834 -30 81.501z" />
    <glyph glyph-name="m" unicode="m" horiz-adv-x="915" 
d="M179 0l-105.999 -0.00195312v495h106v-63c44 49.333 100.667 74 170 74c66.667 0 114 -27 142 -81c43.333 54 102.333 81 177 81c54 0 96.833 -15.5 128.5 -46.5s47.5 -73.167 47.5 -126.5v-333h-106v306c0 32.667 -8.66699 58.334 -26 77.001s-41.333 28 -72 28
c-37.333 0 -68 -13.333 -92 -40s-36 -60.667 -36 -102v-269h-106v306c0 32.667 -8.83301 58.334 -26.5 77.001s-41.834 28 -72.501 28c-37.333 0 -68 -13.333 -92 -40s-36 -60.667 -36 -102v-269z" />
    <glyph glyph-name="n" unicode="n" horiz-adv-x="596" 
d="M73 0l-0.000976562 494.999h106v-68c43.333 52.667 100 79 170 79c54.667 0 97.834 -16.333 129.501 -49s47.5 -77 47.5 -133v-324h-106v300c0 34.667 -9.5 61.834 -28.5 81.501s-44.5 29.5 -76.5 29.5c-40 0 -72.667 -14.5 -98 -43.5s-38 -65.833 -38 -110.5v-257h-106z
" />
    <glyph glyph-name="o" unicode="o" horiz-adv-x="583" 
d="M43 248c0 74.667 23.5 136.334 70.5 185.001s106.5 73 178.5 73s131.333 -24.333 178 -73s70 -110.334 70 -185.001s-23.333 -136.334 -70 -185.001s-106 -73 -178 -73s-131.5 24.333 -178.5 73s-70.5 110.334 -70.5 185.001zM149 248c0 -47.333 13.5 -86.333 40.5 -117
s61.167 -46 102.5 -46s75.333 15.333 102 46s40 69.667 40 117s-13.5 86.333 -40.5 117s-60.833 46 -101.5 46c-41.333 0 -75.5 -15.333 -102.5 -46s-40.5 -69.667 -40.5 -117z" />
    <glyph glyph-name="p" unicode="p" horiz-adv-x="608" 
d="M179 -240l-106 0.00195312v735h106v-64c42.667 50 96.667 75 162 75s119 -24.333 161 -73s63 -110.334 63 -185.001s-21 -136.334 -63 -185.001s-95.667 -73 -161 -73s-119.333 25 -162 75v-305zM181 248.002c0 -47.333 13.167 -86.333 39.5 -117s59.5 -46 99.5 -46
s73.167 15.333 99.5 46s39.5 69.667 39.5 117c0 46.667 -13.167 85.5 -39.5 116.5s-59.5 46.5 -99.5 46.5s-73.167 -15.5 -99.5 -46.5s-39.5 -69.833 -39.5 -116.5z" />
    <glyph glyph-name="q" unicode="q" horiz-adv-x="608" 
d="M267 506c65.333 0 119.333 -25.002 162 -75.002v64h106v-735h-106v305c-42.667 -50 -96.667 -75 -162 -75s-119 24.333 -161 73s-63 110.334 -63 185.001s21 136.334 63 185.001s95.667 73 161 73zM288 84.998c40 0 73.167 15.333 99.5 46s39.5 69.667 39.5 117
c0 46.667 -13.167 85.5 -39.5 116.5s-59.5 46.5 -99.5 46.5c-39.333 0 -72.333 -15.5 -99 -46.5s-40 -69.833 -40 -116.5c0 -47.333 13.167 -86.333 39.5 -117s59.5 -46 99.5 -46z" />
    <glyph glyph-name="r" unicode="r" horiz-adv-x="393" 
d="M73 0l-0.000976562 494.999h106v-100c45.333 74 108.333 111 189 111v-101c-55.333 0 -100.666 -17.667 -135.999 -53s-53 -80.666 -53 -135.999v-216h-106z" />
    <glyph glyph-name="s" unicode="s" horiz-adv-x="517" 
d="M49 173l95 0.00292969c-4 -10 -6 -19 -6 -27c0 -20 10.667 -35.833 32 -47.5s50.666 -17.5 87.999 -17.5c35.333 0 63.666 5.16699 84.999 15.5s32 24.166 32 41.499c0 9.33301 -3.16699 17.333 -9.5 24s-17.166 12.667 -32.499 18s-28.666 9.33301 -39.999 12
s-29.333 6.66699 -54 12c-24.667 4.66699 -43.334 8.5 -56.001 11.5s-29 8.33301 -49 16s-35.167 16 -45.5 25s-19.5 21.167 -27.5 36.5s-12 33.333 -12 54c0 48.667 18.667 87.334 56 116.001s86.666 43 147.999 43c60 0 108.833 -13.333 146.5 -40s56.5 -61 56.5 -103
c0 -12.667 -3 -26 -9 -40h-95c4 10 6 19 6 27c0 20 -9.33301 35.667 -28 47s-44.667 17 -78 17c-30.667 0 -55.334 -5 -74.001 -15s-28 -23.333 -28 -40c0 -10 2.83301 -18.333 8.5 -25s16.334 -12.667 32.001 -18s28.334 -9.16602 38.001 -11.499
s27.167 -5.83301 52.5 -10.5c18.667 -4 31.834 -6.83301 39.501 -8.5s20 -4.83398 37 -9.50098s29.667 -9 38 -13s18.666 -9.83301 30.999 -17.5s21.5 -15.834 27.5 -24.501s11.333 -19.334 16 -32.001s7 -26.334 7 -41.001c0 -48.667 -20.167 -87.334 -60.5 -116.001
s-93.166 -43 -158.499 -43c-64 0 -116.333 13.333 -157 40s-61 61 -61 103c0 14.667 3 28.334 9 41.001z" />
    <glyph glyph-name="t" unicode="t" horiz-adv-x="391" 
d="M345 411h-130.999v-251c0 -24 6.83301 -43 20.5 -57s32.5 -21 56.5 -21c24.667 0 42.667 4.66699 54 14v-80c-22.667 -16 -53.667 -24 -93 -24c-44.667 0 -79.834 13.5 -105.501 40.5s-38.5 63.833 -38.5 110.5v268h-84v84h84v107l106 41v-148h131v-84z" />
    <glyph glyph-name="u" unicode="u" horiz-adv-x="591" 
d="M70 495l106 -0.000976562v-300c0 -34 9.33301 -60.833 28 -80.5s44 -29.5 76 -29.5c38.667 0 70.334 14.333 95.001 43s37 65.334 37 110.001v257h106v-495h-106v67c-42.667 -51.333 -98.334 -77 -167.001 -77c-54 0 -96.667 16.333 -128 49s-47 77 -47 133v323z" />
    <glyph glyph-name="v" unicode="v" horiz-adv-x="568" 
d="M237 0l-218 495h117l148 -366l149 366h117l-218 -495h-95z" />
    <glyph glyph-name="w" unicode="w" horiz-adv-x="819" 
d="M200 0l-181 495h117l112 -352l117 352h90l117 -352l111 352h118l-182 -495h-95l-114 344l-115 -344h-95z" />
    <glyph glyph-name="x" unicode="x" horiz-adv-x="560" 
d="M22 0l189 254l-179 241h128l120 -167l120 167h128l-178 -241l188 -254h-128l-130 180l-130 -180h-128z" />
    <glyph glyph-name="y" unicode="y" horiz-adv-x="572" 
d="M19 495h117.001l150 -371l150 371h117l-273 -620c-16.667 -38 -39 -68 -67 -90s-59 -33 -93 -33c-29.333 0 -53.333 6.66699 -72 20v87c20 -10 39 -15 57 -15c37.333 0 66.666 24.333 87.999 73l41 88z" />
    <glyph glyph-name="z" unicode="z" horiz-adv-x="519" 
d="M470 0h-421v66l271 345h-266v84h411v-65l-271 -345h276v-85z" />
    <glyph glyph-name="braceleft" unicode="{" horiz-adv-x="357" 
d="M39 263v74c33.333 0 59.333 9.83301 78 29.5s27.334 46.167 26.001 79.5l-8 173c-2.66699 56 11.666 100.167 42.999 132.5s75 48.5 131 48.5h24v-74c-34 0 -60.333 -9.66699 -79 -29s-27.334 -46 -26.001 -80l7 -162c4 -74 -20.667 -125.667 -74 -155
c53.333 -29.333 78 -81 74 -155l-7 -162c-1.33301 -34 7.33398 -60.667 26.001 -80s45 -29 79 -29v-74h-24c-56 0 -99.667 16.167 -131 48.5s-45.666 76.5 -42.999 132.5l8 173c1.33301 33.333 -7.33398 59.833 -26.001 79.5s-44.667 29.5 -78 29.5z" />
    <glyph glyph-name="bar" unicode="|" horiz-adv-x="320" 
d="M197 -200h-74v1000h74v-1000z" />
    <glyph glyph-name="braceright" unicode="}" horiz-adv-x="357" 
d="M24 -200v74c34 0 60.333 9.66699 79 29s27.334 46 26.001 80l-8 162c-3.33301 74 21.667 125.667 75 155c-53.333 29.333 -78.333 81 -75 155l8 162c1.33301 34 -7.33398 60.667 -26.001 80s-45 29 -79 29v74h24c56 0 99.5 -16.167 130.5 -48.5s45.167 -76.5 42.5 -132.5
l-7 -173c-1.33301 -33.333 7.33398 -59.833 26.001 -79.5s44.667 -29.5 78 -29.5v-74c-33.333 0 -59.333 -9.83301 -78 -29.5s-27.334 -46.167 -26.001 -79.5l7 -173c2.66699 -56 -11.5 -100.167 -42.5 -132.5s-74.5 -48.5 -130.5 -48.5h-24z" />
    <glyph glyph-name="asciitilde" unicode="~" 
d="M158 268l-73.001 0.000976562c0 42.667 13.5 78 40.5 106s61.167 42 102.5 42c26.667 0 51.834 -7 75.501 -21s45.5 -28 65.5 -42s38.333 -21 55 -21c19.333 0 35.5 7.16699 48.5 21.5s19.5 32.166 19.5 53.499h73c0 -42.667 -13.5 -78 -40.5 -106
s-61.167 -42 -102.5 -42c-20.667 0 -40.834 4.33301 -60.501 13s-35.667 18.167 -48 28.5s-26.333 19.833 -42 28.5s-30.5 13 -44.5 13c-19.333 0 -35.666 -7 -48.999 -21s-20 -31.667 -20 -53z" />
    <glyph glyph-name="exclamdown" unicode="&#xa1;" horiz-adv-x="252" 
d="M73 45l11 234h84l11 -234v-250h-106v250zM60 440c0 18.667 6.33301 34.334 19 47.001s28.334 19 47.001 19s34.167 -6.33301 46.5 -19s18.5 -28.334 18.5 -47.001s-6.16699 -34.167 -18.5 -46.5s-27.833 -18.5 -46.5 -18.5s-34.334 6.16699 -47.001 18.5
s-19 27.833 -19 46.5z" />
    <glyph glyph-name="cent" unicode="&#xa2;" horiz-adv-x="553" 
d="M258 504l0.000976562 116.001h74v-116c51.333 -6.66699 92.666 -25.334 123.999 -56.001s47 -68 47 -112c0 -14.667 -3 -30 -9 -46h-95c4 12.667 6 24.334 6 35.001c0 27.333 -11 48.5 -33 63.5s-47.333 22.5 -76 22.5c-9.33301 0 -22 -1.33301 -38 -4
c-34 -8.66699 -60.667 -27.334 -80 -56.001s-29 -63 -29 -103c0 -40.667 9.66699 -75.167 29 -103.5s46 -46.833 80 -55.5c16 -2.66699 28.667 -4 38 -4c30.667 0 57.834 8.16699 81.501 24.5s36.5 39.166 38.5 68.499h96c-4 -47.333 -22.333 -87.666 -55 -120.999
s-74.334 -54.333 -125.001 -63v-119h-74v116c-64 6.66699 -115.833 33.5 -155.5 80.5s-59.5 105.5 -59.5 175.5c0 69.333 19.667 127.5 59 174.5s91.333 74.5 156 82.5z" />
    <glyph glyph-name="sterling" unicode="&#xa3;" horiz-adv-x="630" 
d="M586 0l-542 0.000976562v66c48.667 36 73 84.333 73 145v82h-68v74h68v97c0 72 22.667 131 68 177s105 69 179 69c63.333 0 114.5 -16.833 153.5 -50.5s58.5 -76.834 58.5 -129.501c0 -17.333 -2.66699 -34 -8 -50h-96c4 14.667 6 28 6 40c0 28 -10.333 50.833 -31 68.5
s-48.334 26.5 -83.001 26.5c-43.333 0 -77.666 -14 -102.999 -42s-38 -64.333 -38 -109v-97h178v-74h-178v-93c0 -40.667 -9.33301 -75.667 -28 -105h391v-95z" />
    <glyph glyph-name="currency" unicode="&#xa4;" 
d="M113 86l-52 52l89 89c-24 35.333 -36 76.333 -36 123s12 87.667 36 123l-89 89l52 52l89 -89c35.333 24 76.333 36 123 36s87.667 -12 123 -36l89 89l52 -52l-89 -89c24 -35.333 36 -76.333 36 -123s-12 -87.667 -36 -123l89 -89l-52 -52l-89 89
c-35.333 -24 -76.333 -36 -123 -36s-87.667 12 -123 36zM188 350c0 -39.333 13.167 -72 39.5 -98s58.833 -39 97.5 -39s71.167 13 97.5 39s39.5 58.667 39.5 98c0 38.667 -13 71.167 -39 97.5s-58.667 39.5 -98 39.5c-38.667 0 -71.167 -13 -97.5 -39
s-39.5 -58.667 -39.5 -98z" />
    <glyph glyph-name="yen" unicode="&#xa5;" horiz-adv-x="703" 
d="M22 700h135l195 -285l194 285h136l-259 -369h146v-63h-162v-82h162v-63h-162v-123h-111v123h-161v63h161v82h-161v63h146z" />
    <glyph glyph-name="brokenbar" unicode="&#xa6;" horiz-adv-x="320" 
d="M197 400h-74v400h74v-400zM123 200h74v-400h-74v400z" />
    <glyph glyph-name="section" unicode="&#xa7;" horiz-adv-x="497" 
d="M107 457c-38 22 -56.999 54.334 -56.999 97.001c0 48 17.833 86.167 53.5 114.5s82.167 42.5 139.5 42.5c56 0 101.833 -13.333 137.5 -40s53.5 -61 53.5 -103c0 -14 -2.66699 -27.333 -8 -40h-96c4 8 6 17 6 27c0 20 -8.16699 35.667 -24.5 47s-39.5 17 -69.5 17
c-27.333 0 -49.166 -4.83301 -65.499 -14.5s-24.5 -22.834 -24.5 -39.501c0 -8.66699 2.16699 -16.167 6.5 -22.5s13 -12 26 -17s23.333 -8.66699 31 -11s22.5 -5.83301 44.5 -10.5c1.33301 -0.666992 2.66602 -1 3.99902 -1s2.83301 -0.333008 4.5 -1s3.16699 -1 4.5 -1
c22 -4.66699 39 -8.5 51 -11.5s27.667 -8.33301 47 -16s34.166 -16 44.499 -25s19.5 -21.5 27.5 -37.5s12 -34 12 -54c0 -46.667 -21 -83.667 -63 -111c40 -23.333 60 -56.333 60 -99c0 -48.667 -18.5 -87.167 -55.5 -115.5s-85.833 -42.5 -146.5 -42.5
c-58.667 0 -106.5 13.5 -143.5 40.5s-55.5 61.5 -55.5 103.5c0 14.667 2.66699 27.667 8 39h96c-4 -10 -6 -19 -6 -27c0 -19.333 9 -34.833 27 -46.5s43.333 -17.5 76 -17.5c30 0 53.833 5 71.5 15s26.5 23.333 26.5 40c0 12 -5.66699 22 -17 30s-24.333 14 -39 18
s-35 8.66699 -61 14c-2.66699 0.666992 -4.66699 1 -6 1l-52.5 12c-11.667 2.66699 -27.667 8 -48 16s-35.5 16.667 -45.5 26s-19.167 22 -27.5 38s-12.5 34.333 -12.5 55c0 48 22 85 66 111zM268.001 290.001c26 2 46.833 7.99414 62.5 17.9941s23.5 22.667 23.5 38
c0 6 -1.16699 11.333 -3.5 16s-6 8.83398 -11 12.501s-10.167 6.83398 -15.5 9.50098s-12.5 5.33398 -21.5 8.00098s-16.833 4.83398 -23.5 6.50098s-15.5 3.83398 -26.5 6.50098s-19.833 4.66699 -26.5 6c-55.333 -5.33301 -83 -23.666 -83 -54.999
c0 -8.66699 2.16699 -16 6.5 -22s11.5 -11.333 21.5 -16s18.833 -8.16699 26.5 -10.5s19.667 -5.33301 36 -9s27.833 -6.5 34.5 -8.5z" />
    <glyph glyph-name="dieresis" unicode="&#xa8;" horiz-adv-x="415" 
d="M34 672c0 16.667 5.66699 30.667 17 42s25.333 17 42 17s30.667 -5.66699 42 -17s17 -25.333 17 -42s-5.66699 -30.667 -17 -42s-25.333 -17 -42 -17s-30.667 5.66699 -42 17s-17 25.333 -17 42zM264 672c0 16.667 5.5 30.667 16.5 42s24.833 17 41.5 17
c17.333 0 31.5 -5.5 42.5 -16.5s16.5 -25.167 16.5 -42.5c0 -16.667 -5.66699 -30.667 -17 -42s-25.333 -17 -42 -17s-30.5 5.66699 -41.5 17s-16.5 25.333 -16.5 42z" />
    <glyph glyph-name="copyright" unicode="&#xa9;" horiz-adv-x="822" 
d="M51 350c0 99.333 35.167 184.166 105.5 254.499s155.166 105.5 254.499 105.5s184.333 -35.167 255 -105.5s106 -155.166 106 -254.499s-35.333 -184.166 -106 -254.499s-155.667 -105.5 -255 -105.5s-184.166 35.167 -254.499 105.5s-105.5 155.166 -105.5 254.499z
M125 350c0 -79.333 27.833 -147 83.5 -203s123.167 -84 202.5 -84s147 28 203 84s84 123.667 84 203s-28 147 -84 203s-123.667 84 -203 84s-146.833 -28 -202.5 -84s-83.5 -123.667 -83.5 -203zM509 387h63.002c4 8.66699 6 19 6 31c0 35.333 -15 64.333 -45 87
s-68.333 34 -115 34c-57.333 0 -103.833 -17.667 -139.5 -53s-53.5 -80.666 -53.5 -135.999c0 -54.667 17 -99.5 51 -134.5s78.333 -52.5 133 -52.5c48 0 88.167 13.167 120.5 39.5s50.166 60.166 53.499 101.499h-64c-2 -22.667 -12.5 -41.334 -31.5 -56.001
s-43.167 -22 -72.5 -22c-36.667 0 -66.167 11.5 -88.5 34.5s-33.5 52.833 -33.5 89.5s11.5 66.834 34.5 90.501s53.833 35.5 92.5 35.5c27.333 0 49.666 -5.83301 66.999 -17.5s26 -26.5 26 -44.5c0 -10 -1.33301 -19 -4 -27z" />
    <glyph glyph-name="ordfeminine" unicode="&#xaa;" horiz-adv-x="437" 
d="M170 550l114.001 -0.00195312v18c0 15.333 -7.5 28.333 -22.5 39s-33.167 16 -54.5 16s-39.333 -5 -54 -15s-22.667 -22.333 -24 -37h-84c3.33301 39.333 20.666 71.833 51.999 97.5s70.333 38.5 117 38.5s85.5 -13 116.5 -39s46.5 -58.667 46.5 -98v-149
c0 -8.66699 2.5 -15.667 7.5 -21s11.5 -8 19.5 -8c6.66699 0 12.667 2 18 6v-64c-16 -10.667 -34 -16 -54 -16c-36 0 -61.333 15 -76 45c-31.333 -31.333 -71.333 -47 -120 -47c-41.333 0 -75.5 11.333 -102.5 34s-40.5 52.334 -40.5 89.001
c0 34.667 12.5 61.834 37.5 81.501s59.5 29.5 103.5 29.5zM122.001 441.998c0 -12.667 5.83301 -23 17.5 -31s26.5 -12 44.5 -12c26.667 0 50 7.66699 70 23s30 34.333 30 57v2h-100c-19.333 0 -34.5 -3.5 -45.5 -10.5s-16.5 -16.5 -16.5 -28.5z" />
    <glyph glyph-name="guillemotleft" unicode="&#xab;" horiz-adv-x="611" 
d="M255 69l-211 211l211 211l53 -52l-160 -159l160 -159zM486 69l-211 211l211 211l52 -52l-159 -159l159 -159z" />
    <glyph glyph-name="logicalnot" unicode="&#xac;" 
d="M95 338v74h460v-224h-73v150h-387z" />
    <glyph glyph-name="uni00AD" unicode="&#xad;" horiz-adv-x="375" 
d="M64 243v74h247v-74h-247z" />
    <glyph glyph-name="registered" unicode="&#xae;" horiz-adv-x="822" 
d="M51 350c0 99.333 35.167 184.166 105.5 254.499s155.166 105.5 254.499 105.5s184.333 -35.167 255 -105.5s106 -155.166 106 -254.499s-35.333 -184.166 -106 -254.499s-155.667 -105.5 -255 -105.5s-184.166 35.167 -254.499 105.5s-105.5 155.166 -105.5 254.499z
M411 637c-79.333 0 -146.833 -28 -202.5 -84s-83.5 -123.667 -83.5 -203s27.833 -147 83.5 -203s123.167 -84 202.5 -84s147 28 203 84s84 123.667 84 203s-28 147 -84 203s-123.667 84 -203 84zM270 168l0.000976562 364.999h176c37.333 0 67.833 -10.333 91.5 -31
s35.5 -47 35.5 -79c0 -45.333 -21 -77.666 -63 -96.999c8 -6 14 -13.667 18 -23l64 -135h-69l-60 125c-4.66699 8.66699 -12.334 13 -23.001 13h-102v-138h-68zM338.001 474.999v-111h107c18 0 32.5 5.33301 43.5 16s16.5 24 16.5 40s-5.5 29.167 -16.5 39.5
s-25.5 15.5 -43.5 15.5h-107z" />
    <glyph glyph-name="macron" unicode="&#xaf;" horiz-adv-x="326" 
d="M34 640v74h258v-74h-258z" />
    <glyph glyph-name="degree" unicode="&#xb0;" horiz-adv-x="421" 
d="M53 554c0 45.333 15 82.666 45 111.999s67.667 44 113 44s82.833 -14.667 112.5 -44s44.5 -66.666 44.5 -111.999c0 -46 -14.833 -84 -44.5 -114s-67.167 -45 -112.5 -45s-83 15 -113 45s-45 68 -45 114zM127 554c0 -24.667 7.83301 -45 23.5 -61s35.834 -24 60.501 -24
c24 0 43.833 8 59.5 24s23.5 36.333 23.5 61c0 24 -7.83301 43.833 -23.5 59.5s-35.5 23.5 -59.5 23.5c-24.667 0 -44.834 -7.83301 -60.501 -23.5s-23.5 -35.5 -23.5 -59.5z" />
    <glyph glyph-name="plusminus" unicode="&#xb1;" 
d="M288 391h-193v74h193v193h74v-193h193v-74h-193v-193h-74v193zM95 54v74h460v-74h-460z" />
    <glyph glyph-name="twosuperior" unicode="&#xb2;" horiz-adv-x="357" 
d="M98 666h-65.998c3.33301 42 19.166 75.833 47.499 101.5s63.833 38.5 106.5 38.5c40.667 0 73.5 -11.167 98.5 -33.5s37.5 -51.5 37.5 -87.5c0 -27.333 -8.66699 -51.333 -26 -72s-36.833 -36.167 -58.5 -46.5s-44.334 -23.5 -68.001 -39.5s-40.167 -33 -49.5 -51h206
v-61h-290v15c0 29.333 7.5 55.333 22.5 78s33.333 40.667 55 54s43.167 25.833 64.5 37.5s39.5 24.667 54.5 39s22.5 30.166 22.5 47.499s-6.5 31.333 -19.5 42s-30.167 16 -51.5 16c-24 0 -44 -7.16699 -60 -21.5s-24.667 -33.166 -26 -56.499z" />
    <glyph glyph-name="threesuperior" unicode="&#xb3;" horiz-adv-x="364" 
d="M99 666l-66.002 0.000976562c3.33301 42.667 19.333 76.667 48 102s65 38 109 38c39.333 0 71.333 -10.167 96 -30.5s37 -46.833 37 -79.5c0 -36.667 -16 -64 -48 -82c39.333 -19.333 59 -49.333 59 -90c0 -34 -14.167 -61.667 -42.5 -83s-64.833 -32 -109.5 -32
c-44 0 -79.833 10.5 -107.5 31.5s-41.5 48.167 -41.5 81.5c0 11.333 2.33301 21.666 7 30.999h64c-4 -10 -6 -18.333 -6 -25c0 -16.667 7.83301 -30.334 23.5 -41.001s35.834 -16 60.501 -16c25.333 0 45.833 5.5 61.5 16.5s23.5 25.833 23.5 44.5c0 14.667 -6 27 -18 37
s-27.333 15 -46 15h-41v54h31c18.667 0 33.834 4.83301 45.501 14.5s17.5 21.5 17.5 35.5c0 16.667 -6.5 30.167 -19.5 40.5s-30.167 15.5 -51.5 15.5c-24.667 0 -44.667 -7.16699 -60 -21.5s-24 -33.166 -26 -56.499z" />
    <glyph glyph-name="acute" unicode="&#xb4;" horiz-adv-x="305" 
d="M34 579l114 167h124l-156 -167h-82z" />
    <glyph glyph-name="mu" unicode="&#xb5;" horiz-adv-x="591" 
d="M70 496l106 0.000976562v-300c0 -34.667 9.33301 -61.834 28 -81.501s44 -29.5 76 -29.5c38.667 0 70.334 14.5 95.001 43.5s37 65.833 37 110.5v257h106v-495h-106v66c-42.667 -51.333 -98.334 -77 -167.001 -77c-24 0 -47 3.66699 -69 11v-201h-106v371v1v324z" />
    <glyph glyph-name="paragraph" unicode="&#xb6;" horiz-adv-x="606" 
d="M279 700l249 -0.000976562v-940h-73v866h-102v-866h-74v515c-70 0 -127.167 19.833 -171.5 59.5s-66.5 90.5 -66.5 152.5c0 62.667 22 113.834 66 153.501s101.333 59.5 172 59.5z" />
    <glyph glyph-name="periodcentered" unicode="&#xb7;" horiz-adv-x="243" 
d="M51 350c0 20.667 6.66699 37.667 20 51s30.333 20 51 20c20 0 36.667 -6.66699 50 -20s20 -30.333 20 -51s-6.66699 -37.667 -20 -51s-30 -20 -50 -20c-20.667 0 -37.667 6.66699 -51 20s-20 30.333 -20 51z" />
    <glyph glyph-name="cedilla" unicode="&#xb8;" horiz-adv-x="313" 
d="M34 -150c0 8.66699 2.33594 17.666 7.00293 26.999h68c-3.33301 -5.33301 -5 -10.666 -5 -15.999c0 -10 4.5 -18.333 13.5 -25s20.5 -10 34.5 -10c15.333 0 28.166 3.66699 38.499 11s15.5 16.666 15.5 27.999c0 14 -8.33301 25.167 -25 33.5s-38.334 12.5 -65.001 12.5
l8 89h63l-3 -43c28 -4 50.833 -14.833 68.5 -32.5s26.5 -38.167 26.5 -61.5c0 -28.667 -12.167 -52.5 -36.5 -71.5s-54.833 -28.5 -91.5 -28.5c-34.667 0 -62.834 8.33301 -84.501 25s-32.5 37.334 -32.5 62.001z" />
    <glyph glyph-name="onesuperior" unicode="&#xb9;" horiz-adv-x="265" 
d="M39 669v64c26.667 6 49.667 15.167 69 27.5s30.333 25.5 33 39.5h56v-385h-68v295c-26.667 -21.333 -56.667 -35 -90 -41z" />
    <glyph glyph-name="ordmasculine" unicode="&#xba;" horiz-adv-x="459" 
d="M34 512c0 56.667 18.333 103.334 55 140.001s83.334 55 140.001 55c57.333 0 104.333 -18.333 141 -55s55 -83.334 55 -140.001c0 -57.333 -18.333 -104.333 -55 -141s-83.667 -55 -141 -55c-56.667 0 -103.334 18.333 -140.001 55s-55 83.667 -55 141zM127 512
c0 -32.667 9.66699 -59.5 29 -80.5s43.666 -31.5 72.999 -31.5c30 0 54.667 10.5 74 31.5s29 47.833 29 80.5c0 32 -9.66699 58.5 -29 79.5s-44 31.5 -74 31.5c-29.333 0 -53.666 -10.5 -72.999 -31.5s-29 -47.5 -29 -79.5z" />
    <glyph glyph-name="guillemotright" unicode="&#xbb;" horiz-adv-x="611" 
d="M356 69l-52 52l159 159l-159 159l52 52l212 -211zM125 69l-52 52l159 159l-159 159l52 52l212 -211z" />
    <glyph glyph-name="onequarter" unicode="&#xbc;" horiz-adv-x="813" 
d="M169 0h-93l527 700h93zM473 124l146 261h74l-139 -245h116v95h64v-95h47v-57h-47v-83h-64v83h-197v41zM39 569v64c26.667 6 49.667 15.167 69 27.5s30.333 25.5 33 39.5h56v-385h-68v295c-26.667 -21.333 -56.667 -35 -90 -41z" />
    <glyph glyph-name="onehalf" unicode="&#xbd;" horiz-adv-x="844" 
d="M584 251l-65.999 0.000976562c3.33301 42 19.333 75.833 48 101.5s64 38.5 106 38.5c40.667 0 73.667 -11.167 99 -33.5s38 -51.5 38 -87.5c0 -22.667 -5.5 -42.5 -16.5 -59.5s-25.167 -31.167 -42.5 -42.5s-35.166 -21.833 -53.499 -31.5s-36 -20.834 -53 -33.501
s-29.5 -26.667 -37.5 -42h206v-61h-289v15c0 29.333 7.5 55.333 22.5 78s33.167 40.667 54.5 54s42.666 25.833 63.999 37.5s39.5 24.667 54.5 39s22.5 30.166 22.5 47.499s-6.33301 31.333 -19 42s-29.667 16 -51 16c-24.667 0 -44.834 -7.16699 -60.501 -21.5
s-24.5 -33.166 -26.5 -56.499zM76.001 0.000976562l527 700h93l-527 -700h-93zM141.001 700.001h56v-385h-68v295c-26.667 -21.333 -56.667 -35 -90 -41v64c26.667 6 49.667 15.167 69 27.5s30.333 25.5 33 39.5z" />
    <glyph glyph-name="threequarters" unicode="&#xbe;" horiz-adv-x="891" 
d="M33 422c0 11.333 2.33105 21.667 6.99805 31h64c-4 -10 -6 -18.333 -6 -25c0 -16.667 7.83301 -30.334 23.5 -41.001s35.834 -16 60.501 -16c25.333 0 45.833 5.5 61.5 16.5s23.5 25.833 23.5 44.5c0 14.667 -6 27 -18 37s-27.333 15 -46 15h-41v54h31
c18.667 0 33.834 4.83301 45.501 14.5s17.5 21.5 17.5 35.5c0 16.667 -6.5 30.167 -19.5 40.5s-30.167 15.5 -51.5 15.5c-24.667 0 -44.667 -7.16699 -60 -21.5s-24 -33.166 -26 -56.499h-66c3.33301 42.667 19.333 76.667 48 102s65 38 109 38
c39.333 0 71.333 -10.167 96 -30.5s37 -46.833 37 -79.5c0 -36.667 -16 -64 -48 -82c39.333 -19.333 59 -49.333 59 -90c0 -34 -14.167 -61.667 -42.5 -83s-64.833 -32 -109.5 -32c-44 0 -79.833 10.5 -107.5 31.5s-41.5 48.167 -41.5 81.5zM246.998 0.000976562h-92
l527 700h92zM551.998 83.001v41l146 261h74l-139 -245h116v95h64v-95h46v-57h-46v-83h-64v83h-197z" />
    <glyph glyph-name="questiondown" unicode="&#xbf;" horiz-adv-x="590" 
d="M277 -215c-68.667 0 -125.166 18.168 -169.499 54.501s-66.5 83.5 -66.5 141.5c0 54 18.5 98.167 55.5 132.5s86.5 63.5 148.5 87.5l2 78h85l6 -126c-72 -36.667 -117.333 -62.667 -136 -78c-36.667 -27.333 -55 -57.333 -55 -90c0 -30 12.5 -54.5 37.5 -73.5
s57.167 -28.5 96.5 -28.5c46 0 84 13.167 114 39.5s46.667 61.166 50 104.499h104c-6.66699 -72.667 -34.834 -131.167 -84.501 -175.5s-112.167 -66.5 -187.5 -66.5zM355.001 440.001c0 -18.667 -6.16699 -34.167 -18.5 -46.5s-27.833 -18.5 -46.5 -18.5
s-34.334 6.16699 -47.001 18.5s-19 27.833 -19 46.5s6.33301 34.334 19 47.001s28.334 19 47.001 19s34.167 -6.33301 46.5 -19s18.5 -28.334 18.5 -47.001z" />
    <glyph glyph-name="Agrave" unicode="&#xc0;" horiz-adv-x="754" 
d="M141 0h-122l308 700h101l307 -700h-122l-67 159h-337zM378 555l-129 -301h256zM353 779l-155 166h123l114 -166h-82z" />
    <glyph glyph-name="Aacute" unicode="&#xc1;" horiz-adv-x="754" 
d="M141 0h-122l308 700h101l307 -700h-122l-67 159h-337zM378 555l-129 -301h256zM401 779h-82l114 166h123z" />
    <glyph glyph-name="Acircumflex" unicode="&#xc2;" horiz-adv-x="754" 
d="M141 0h-122l308 700h101l307 -700h-122l-67 159h-337zM378 555l-129 -301h256zM187 779l139 166h102l140 -166h-103l-88 106l-88 -106h-102z" />
    <glyph glyph-name="Atilde" unicode="&#xc3;" horiz-adv-x="754" 
d="M141 0h-122l308 700h101l307 -700h-122l-67 159h-337zM378 555l-129 -301h256zM274 804l-74.001 -0.000976562c0 36 10.667 65.833 32 89.5s48.333 35.5 81 35.5c18.667 0 35.334 -4.66699 50.001 -14s28 -18.666 40 -27.999s23.333 -14 34 -14
c12.667 0 23 4.83301 31 14.5s12 21.834 12 36.501h74c0 -36 -10.667 -65.833 -32 -89.5s-48.333 -35.5 -81 -35.5c-23.333 0 -46.833 9.33301 -70.5 28s-41.167 28 -52.5 28c-12.667 0 -23.167 -4.83301 -31.5 -14.5s-12.5 -21.834 -12.5 -36.501z" />
    <glyph glyph-name="Adieresis" unicode="&#xc4;" horiz-adv-x="754" 
d="M19 0l308 700h101l307 -700h-122l-67 159h-337l-68 -159h-122zM378 555l-129 -301h256zM262 931c16.667 0 30.667 -5.66699 42 -17s17 -25.333 17 -42s-5.66699 -30.667 -17 -42s-25.333 -17 -42 -17s-30.667 5.66699 -42 17s-17 25.333 -17 42s5.66699 30.667 17 42
s25.333 17 42 17zM433 872c0 16.667 5.66699 30.667 17 42s25.333 17 42 17s30.5 -5.66699 41.5 -17s16.5 -25.333 16.5 -42s-5.5 -30.667 -16.5 -42s-24.833 -17 -41.5 -17s-30.667 5.66699 -42 17s-17 25.333 -17 42z" />
    <glyph glyph-name="Aring" unicode="&#xc5;" horiz-adv-x="754" 
d="M19 0l308 700h101l307 -700h-122l-67 159h-337l-68 -159h-122zM378 555l-129 -301h256zM377 983c29.333 0 53.666 -9.66699 72.999 -29s29 -43.333 29 -72c0 -30 -9.66699 -54.667 -29 -74s-43.666 -29 -72.999 -29s-53.666 9.66699 -72.999 29s-29 44 -29 74
c0 29.333 9.66699 53.5 29 72.5s43.666 28.5 72.999 28.5zM377 831c14 0 25.833 4.83301 35.5 14.5s14.5 21.834 14.5 36.501c0 14 -4.83301 25.667 -14.5 35s-21.5 14 -35.5 14c-14.667 0 -26.667 -4.66699 -36 -14s-14 -21 -14 -35c0 -14.667 4.66699 -26.834 14 -36.501
s21.333 -14.5 36 -14.5z" />
    <glyph glyph-name="AE" unicode="&#xc6;" horiz-adv-x="1006" 
d="M146 0h-127l397 700h537v-95h-366v-205h323v-93h-323v-212h376v-95h-488v159h-241zM475 595l-189 -341h189v341z" />
    <glyph glyph-name="Ccedilla" unicode="&#xc7;" horiz-adv-x="755" 
d="M406 710c85.333 0 155.168 -21.0029 209.501 -63.0029s81.5 -96 81.5 -162c0 -21.333 -3.66699 -42 -11 -62h-103c6 20 9 38.333 9 55c0 37.333 -17.167 68.166 -51.5 92.499s-78.5 36.5 -132.5 36.5c-75.333 0 -135.5 -24.167 -180.5 -72.5
s-67.5 -110.166 -67.5 -185.499c0 -74.667 22 -136 66 -184s102 -72 174 -72c57.333 0 104.5 14.833 141.5 44.5s57.5 67.834 61.5 114.501h106c-6 -71.333 -35.5 -131.166 -88.5 -179.499s-119.167 -75.5 -198.5 -81.5l-3 -34c28 -4.66699 50.833 -15.667 68.5 -33
s26.5 -37.666 26.5 -60.999c0 -28.667 -12 -52.334 -36 -71.001s-54.333 -28 -91 -28c-34.667 0 -63 8.33301 -85 25s-33 37.334 -33 62.001c0 9.33301 2.33301 18 7 26h68c-3.33301 -5.33301 -5 -10.666 -5 -15.999c0 -10 4.5 -18.167 13.5 -24.5s20.833 -9.5 35.5 -9.5
c15.333 0 28 3.66699 38 11s15 16.333 15 27c0 14 -8.33301 25.167 -25 33.5s-38.334 12.5 -65.001 12.5l8 80c-93.333 7.33301 -168.5 44.166 -225.5 110.499s-85.5 148.833 -85.5 247.5c0 106 32.833 192.667 98.5 260s152.167 101 259.5 101z" />
    <glyph glyph-name="Egrave" unicode="&#xc8;" horiz-adv-x="648" 
d="M78 0v700h516v-95h-405v-205h363v-93h-363v-212h415v-95h-526zM314 779l-154 166h123l114 -166h-83z" />
    <glyph glyph-name="Eacute" unicode="&#xc9;" horiz-adv-x="648" 
d="M78 0v700h516v-95h-405v-205h363v-93h-363v-212h415v-95h-526zM280 779l114 166h124l-155 -166h-83z" />
    <glyph glyph-name="Ecircumflex" unicode="&#xca;" horiz-adv-x="648" 
d="M78 0v700h516v-95h-405v-205h363v-93h-363v-212h415v-95h-526zM251 779h-103l140 166h102l139 -166h-102l-88 106z" />
    <glyph glyph-name="Edieresis" unicode="&#xcb;" horiz-adv-x="648" 
d="M604 0h-526v700h516v-95h-405v-205h363v-93h-363v-212h415v-95zM394 872c0 16.667 5.66699 30.667 17 42s25.333 17 42 17s30.667 -5.66699 42 -17s17 -25.333 17 -42s-5.66699 -30.667 -17 -42s-25.333 -17 -42 -17s-30.667 5.66699 -42 17s-17 25.333 -17 42zM224 931
c16.667 0 30.667 -5.66699 42 -17s17 -25.333 17 -42s-5.66699 -30.667 -17 -42s-25.333 -17 -42 -17s-30.667 5.66699 -42 17s-17 25.333 -17 42s5.66699 30.667 17 42s25.333 17 42 17z" />
    <glyph glyph-name="Igrave" unicode="&#xcc;" horiz-adv-x="267" 
d="M78 0v700h111v-700h-111zM-45 945h123l114 -166h-83z" />
    <glyph glyph-name="Iacute" unicode="&#xcd;" horiz-adv-x="267" 
d="M78 0v700h111v-700h-111zM75 779l114 166h124l-155 -166h-83z" />
    <glyph glyph-name="Icircumflex" unicode="&#xce;" horiz-adv-x="267" 
d="M78 700h111v-700h-111v700zM-57 779l140 166h102l139 -166h-102l-89 106l-87 -106h-103z" />
    <glyph glyph-name="Idieresis" unicode="&#xcf;" horiz-adv-x="267" 
d="M78 0v700h111v-700h-111zM-40 872c0 16.667 5.66699 30.667 17 42s25.333 17 42 17s30.667 -5.66699 42 -17s17 -25.333 17 -42s-5.66699 -30.667 -17 -42s-25.333 -17 -42 -17s-30.667 5.66699 -42 17s-17 25.333 -17 42zM189 872c0 16.667 5.66699 30.667 17 42
s25.333 17 42 17s30.667 -5.66699 42 -17s17 -25.333 17 -42s-5.66699 -30.667 -17 -42s-25.333 -17 -42 -17s-30.667 5.66699 -42 17s-17 25.333 -17 42z" />
    <glyph glyph-name="Eth" unicode="&#xd0;" horiz-adv-x="768" 
d="M78 322h-74v63h74v315h281c105.333 0 191.833 -32.833 259.5 -98.5s101.5 -149.5 101.5 -251.5c0 -102.667 -34.167 -186.667 -102.5 -252s-154.5 -98 -258.5 -98h-281v322zM376 322h-187v-227h170c72.667 0 132.5 24 179.5 72s70.5 109 70.5 183s-23.5 135 -70.5 183
s-106.833 72 -179.5 72h-170v-220h187v-63z" />
    <glyph glyph-name="Ntilde" unicode="&#xd1;" horiz-adv-x="780" 
d="M78 700h73l443 -505v505h109v-700h-77l-440 506v-506h-108v700zM286 804l-74.001 -0.000976562c0 36 10.5 65.833 31.5 89.5s48.167 35.5 81.5 35.5c18.667 0 35.334 -4.66699 50.001 -14s28 -18.666 40 -27.999s23.333 -14 34 -14c12.667 0 23 4.83301 31 14.5
s12 21.834 12 36.501h74c0 -36 -10.667 -65.833 -32 -89.5s-48.333 -35.5 -81 -35.5c-23.333 0 -46.833 9.33301 -70.5 28s-41.167 28 -52.5 28c-12.667 0 -23.167 -4.83301 -31.5 -14.5s-12.5 -21.834 -12.5 -36.501z" />
    <glyph glyph-name="Ograve" unicode="&#xd2;" horiz-adv-x="798" 
d="M48 350c0 104.667 33 190.834 99 258.501s150 101.5 252 101.5s186 -33.833 252 -101.5s99 -153.834 99 -258.501s-33 -190.834 -99 -258.501s-150 -101.5 -252 -101.5s-186 33.833 -252 101.5s-99 153.834 -99 258.501zM160 350c0 -74.667 22.5 -136.167 67.5 -184.5
s102.167 -72.5 171.5 -72.5s126.5 24.167 171.5 72.5s67.5 109.833 67.5 184.5s-22.5 136.167 -67.5 184.5s-102.167 72.5 -171.5 72.5s-126.5 -24.167 -171.5 -72.5s-67.5 -109.833 -67.5 -184.5zM220 945h123l114 -166h-82z" />
    <glyph glyph-name="Oacute" unicode="&#xd3;" horiz-adv-x="798" 
d="M48 350c0 104.667 33 190.834 99 258.501s150 101.5 252 101.5s186 -33.833 252 -101.5s99 -153.834 99 -258.501s-33 -190.834 -99 -258.501s-150 -101.5 -252 -101.5s-186 33.833 -252 101.5s-99 153.834 -99 258.501zM160 350c0 -74.667 22.5 -136.167 67.5 -184.5
s102.167 -72.5 171.5 -72.5s126.5 24.167 171.5 72.5s67.5 109.833 67.5 184.5s-22.5 136.167 -67.5 184.5s-102.167 72.5 -171.5 72.5s-126.5 -24.167 -171.5 -72.5s-67.5 -109.833 -67.5 -184.5zM341 779l114 166h123l-155 -166h-82z" />
    <glyph glyph-name="Ocircumflex" unicode="&#xd4;" horiz-adv-x="798" 
d="M399 710c102 0 186 -33.833 252 -101.5s99 -153.834 99 -258.501s-33 -190.834 -99 -258.501s-150 -101.5 -252 -101.5s-186 33.833 -252 101.5s-99 153.834 -99 258.501s33 190.834 99 258.501s150 101.5 252 101.5zM160 350c0 -74.667 22.5 -136.167 67.5 -184.5
s102.167 -72.5 171.5 -72.5s126.5 24.167 171.5 72.5s67.5 109.833 67.5 184.5s-22.5 136.167 -67.5 184.5s-102.167 72.5 -171.5 72.5s-126.5 -24.167 -171.5 -72.5s-67.5 -109.833 -67.5 -184.5zM311 779h-102l139 166h102l140 -166h-103l-88 106z" />
    <glyph glyph-name="Otilde" unicode="&#xd5;" horiz-adv-x="798" 
d="M48 350c0 104.667 33 190.834 99 258.501s150 101.5 252 101.5s186 -33.833 252 -101.5s99 -153.834 99 -258.501s-33 -190.834 -99 -258.501s-150 -101.5 -252 -101.5s-186 33.833 -252 101.5s-99 153.834 -99 258.501zM160 350c0 -74.667 22.5 -136.167 67.5 -184.5
s102.167 -72.5 171.5 -72.5s126.5 24.167 171.5 72.5s67.5 109.833 67.5 184.5s-22.5 136.167 -67.5 184.5s-102.167 72.5 -171.5 72.5s-126.5 -24.167 -171.5 -72.5s-67.5 -109.833 -67.5 -184.5zM296 804l-74.001 -0.000976562c0 36 10.5 65.833 31.5 89.5
s48.167 35.5 81.5 35.5c18.667 0 35.334 -4.66699 50.001 -14s28 -18.666 40 -27.999s23.333 -14 34 -14c12.667 0 23 4.83301 31 14.5s12 21.834 12 36.501h74c0 -36 -10.667 -65.833 -32 -89.5s-48.333 -35.5 -81 -35.5c-23.333 0 -46.833 9.33301 -70.5 28
s-41.167 28 -52.5 28c-12.667 0 -23.167 -4.83301 -31.5 -14.5s-12.5 -21.834 -12.5 -36.501z" />
    <glyph glyph-name="Odieresis" unicode="&#xd6;" horiz-adv-x="798" 
d="M48 350c0 104.667 33 190.834 99 258.501s150 101.5 252 101.5s186 -33.833 252 -101.5s99 -153.834 99 -258.501s-33 -190.834 -99 -258.501s-150 -101.5 -252 -101.5s-186 33.833 -252 101.5s-99 153.834 -99 258.501zM160 350c0 -74.667 22.5 -136.167 67.5 -184.5
s102.167 -72.5 171.5 -72.5s126.5 24.167 171.5 72.5s67.5 109.833 67.5 184.5s-22.5 136.167 -67.5 184.5s-102.167 72.5 -171.5 72.5s-126.5 -24.167 -171.5 -72.5s-67.5 -109.833 -67.5 -184.5zM225 872c0 16.667 5.66699 30.667 17 42s25.333 17 42 17
s30.667 -5.66699 42 -17s17 -25.333 17 -42s-5.66699 -30.667 -17 -42s-25.333 -17 -42 -17s-30.667 5.66699 -42 17s-17 25.333 -17 42zM455 872c0 16.667 5.66699 30.667 17 42s25.333 17 42 17s30.5 -5.66699 41.5 -17s16.5 -25.333 16.5 -42s-5.5 -30.667 -16.5 -42
s-24.833 -17 -41.5 -17s-30.667 5.66699 -42 17s-17 25.333 -17 42z" />
    <glyph glyph-name="multiply" unicode="&#xd7;" 
d="M273 350l-162 162l52 52l162 -162l162 162l52 -52l-162 -162l162 -162l-52 -52l-162 162l-162 -162l-52 52z" />
    <glyph glyph-name="Oslash" unicode="&#xd8;" horiz-adv-x="798" 
d="M399 710c80.667 0 151.332 -22.001 211.999 -66.001l48 56h81l-83 -97c62 -67.333 93 -151.666 93 -252.999c0 -104.667 -33 -190.834 -99 -258.501s-150 -101.5 -252 -101.5c-79.333 0 -149.666 21.667 -210.999 65l-47 -55h-84l84 98c-62 66 -93 150 -93 252
c0 104.667 33 190.834 99 258.501s150 101.5 252 101.5zM211.998 179.999l330 384c-41.333 30.667 -89 46 -143 46c-70 0 -127.833 -24.5 -173.5 -73.5s-68.5 -111.167 -68.5 -186.5c0 -67.333 18.333 -124 55 -170zM585.998 519.999l-329 -385c40.667 -30 88 -45 142 -45
c70 0 127.833 24.5 173.5 73.5s68.5 111.167 68.5 186.5c0 67.333 -18.333 124 -55 170z" />
    <glyph glyph-name="Ugrave" unicode="&#xd9;" horiz-adv-x="750" 
d="M70 700h112v-409c0 -59.333 17.667 -107.166 53 -143.499s82 -54.5 140 -54.5s104.833 18.167 140.5 54.5s53.5 84.166 53.5 143.499v409h111v-419c0 -87.333 -28 -157.666 -84 -210.999s-129.667 -80 -221 -80s-165 26.667 -221 80s-84 123.666 -84 210.999v419z
M197 945h123l114 -166h-83z" />
    <glyph glyph-name="Uacute" unicode="&#xda;" horiz-adv-x="750" 
d="M70 700h112v-409c0 -59.333 17.667 -107.166 53 -143.499s82 -54.5 140 -54.5s104.833 18.167 140.5 54.5s53.5 84.166 53.5 143.499v409h111v-419c0 -87.333 -28 -157.666 -84 -210.999s-129.667 -80 -221 -80s-165 26.667 -221 80s-84 123.666 -84 210.999v419z
M400 779h-83l114 166h124z" />
    <glyph glyph-name="Ucircumflex" unicode="&#xdb;" horiz-adv-x="750" 
d="M70 281v419h112v-409c0 -59.333 17.667 -107.166 53 -143.499s82 -54.5 140 -54.5s104.833 18.167 140.5 54.5s53.5 84.166 53.5 143.499v409h111v-419c0 -87.333 -28 -157.666 -84 -210.999s-129.667 -80 -221 -80s-165 26.667 -221 80s-84 123.666 -84 210.999z
M185 779l140 166h102l139 -166h-102l-88 106l-88 -106h-103z" />
    <glyph glyph-name="Udieresis" unicode="&#xdc;" horiz-adv-x="750" 
d="M70 281v419h112v-409c0 -59.333 17.667 -107.166 53 -143.499s82 -54.5 140 -54.5s104.833 18.167 140.5 54.5s53.5 84.166 53.5 143.499v409h111v-419c0 -87.333 -28 -157.666 -84 -210.999s-129.667 -80 -221 -80s-165 26.667 -221 80s-84 123.666 -84 210.999z
M490 931c16.667 0 30.667 -5.66699 42 -17s17 -25.333 17 -42s-5.66699 -30.667 -17 -42s-25.333 -17 -42 -17s-30.667 5.66699 -42 17s-17 25.333 -17 42s5.66699 30.667 17 42s25.333 17 42 17zM261 931c16.667 0 30.667 -5.66699 42 -17s17 -25.333 17 -42
s-5.66699 -30.667 -17 -42s-25.333 -17 -42 -17s-30.667 5.66699 -42 17s-17 25.333 -17 42s5.66699 30.667 17 42s25.333 17 42 17z" />
    <glyph glyph-name="Yacute" unicode="&#xdd;" horiz-adv-x="698" 
d="M293 310l-274 390h136l194 -285l194 285h136l-274 -390v-310h-112v310zM373 779h-82l114 166h123z" />
    <glyph glyph-name="Thorn" unicode="&#xde;" horiz-adv-x="643" 
d="M189 0l-111.001 0.00195312v700h111v-134h175c70.667 0 128 -19.833 172 -59.5s66 -90.834 66 -153.501s-22.167 -113.834 -66.5 -153.501s-101.166 -59.5 -170.499 -59.5h-176v-140zM188.999 236.002l174 -0.000976562c38.667 0 69.667 11 93 33s35 50 35 84
c0 34.667 -11.667 62.834 -35 84.501s-54.333 32.5 -93 32.5h-174v-234z" />
    <glyph glyph-name="germandbls" unicode="&#xdf;" horiz-adv-x="596" 
d="M179 0l-106.001 -0.000976562v557c0 59.333 20.333 108 61 146s93 57 157 57c62 0 113.833 -18.167 155.5 -54.5s62.5 -82.5 62.5 -138.5c0 -34 -7.83301 -64.833 -23.5 -92.5s-37.5 -49.167 -65.5 -64.5c41.333 -16.667 74.166 -42.5 98.499 -77.5
s36.5 -75.833 36.5 -122.5c0 -65.333 -23.667 -118.333 -71 -159s-109 -61 -185 -61v95c44.667 0 80.834 12.5 108.501 37.5s41.5 57.5 41.5 97.5c0 42 -15 76.167 -45 102.5s-68.333 39.5 -115 39.5v90c32.667 0 59.834 10.167 81.501 30.5s32.5 45.833 32.5 76.5
c0 30 -11 55.167 -33 75.5s-49 30.5 -81 30.5c-32.667 0 -59.167 -10.667 -79.5 -32s-30.5 -48.666 -30.5 -81.999v-551z" />
    <glyph glyph-name="agrave" unicode="&#xe0;" horiz-adv-x="561" 
d="M43 144c0 45.333 16.3311 81.001 48.998 107.001s76.667 39 132 39h147v34c0 24.667 -10.333 45.334 -31 62.001s-46 25 -76 25c-28.667 0 -52.667 -7.83301 -72 -23.5s-30 -34.834 -32 -57.501h-97c4.66699 51.333 26.334 93.5 65.001 126.5s86.667 49.5 144 49.5
c58.667 0 107.5 -17 146.5 -51s58.5 -77 58.5 -129v-209c0 -12 3.33301 -21.667 10 -29s15.667 -11 27 -11c10 0 18.333 2.33301 25 7v-73c-18 -12.667 -39.667 -19 -65 -19c-23.333 0 -43.5 5.66699 -60.5 17s-29.167 26.666 -36.5 45.999c-40.667 -44 -93 -66 -157 -66
c-51.333 0 -93.666 14.333 -126.999 43s-50 66 -50 112zM148.998 148.001c0 -18.667 7.99902 -33.834 23.999 -45.501s37 -17.5 63 -17.5c36 0 67.5 11.333 94.5 34s40.5 50.667 40.5 84v8h-129c-27.333 0 -49.666 -5.66699 -66.999 -17s-26 -26.666 -26 -45.999z
M250.997 579.001l-155 167h123l114 -167h-82z" />
    <glyph glyph-name="aacute" unicode="&#xe1;" horiz-adv-x="561" 
d="M224 290l146.998 0.000976562v34c0 24.667 -10.333 45.334 -31 62.001s-46 25 -76 25c-28.667 0 -52.667 -7.83301 -72 -23.5s-30 -34.834 -32 -57.501h-97c4.66699 51.333 26.334 93.5 65.001 126.5s86.667 49.5 144 49.5c58.667 0 107.5 -17 146.5 -51
s58.5 -77 58.5 -129v-209c0 -12 3.33301 -21.667 10 -29s15.667 -11 27 -11c10 0 18.333 2.33301 25 7v-73c-18 -12.667 -39.667 -19 -65 -19c-23.333 0 -43.5 5.66699 -60.5 17s-29.167 26.666 -36.5 45.999c-40.667 -44 -93 -66 -157 -66
c-51.333 0 -93.666 14.333 -126.999 43s-50 66 -50 112c0 45.333 16.333 81 49 107s76.667 39 132 39zM148.998 148.001c0 -18.667 7.99902 -33.834 23.999 -45.501s37 -17.5 63 -17.5c36 0 67.5 11.333 94.5 34s40.5 50.667 40.5 84v8h-129
c-27.333 0 -49.666 -5.66699 -66.999 -17s-26 -26.666 -26 -45.999zM216.997 579.001l114 167h123l-155 -167h-82z" />
    <glyph glyph-name="acircumflex" unicode="&#xe2;" horiz-adv-x="561" 
d="M224 290l146.998 0.000976562v34c0 24.667 -10.333 45.334 -31 62.001s-46 25 -76 25c-28.667 0 -52.667 -7.83301 -72 -23.5s-30 -34.834 -32 -57.501h-97c4.66699 51.333 26.334 93.5 65.001 126.5s86.667 49.5 144 49.5c58.667 0 107.5 -17 146.5 -51
s58.5 -77 58.5 -129v-209c0 -12 3.33301 -21.667 10 -29s15.667 -11 27 -11c10 0 18.333 2.33301 25 7v-73c-18 -12.667 -39.667 -19 -65 -19c-23.333 0 -43.5 5.66699 -60.5 17s-29.167 26.666 -36.5 45.999c-40.667 -44 -93 -66 -157 -66
c-51.333 0 -93.666 14.333 -126.999 43s-50 66 -50 112c0 45.333 16.333 81 49 107s76.667 39 132 39zM83.998 579.001l139 167h102l140 -167h-103l-88 106l-88 -106h-102zM148.998 148.001c0 -18.667 7.99902 -33.834 23.999 -45.501s37 -17.5 63 -17.5
c36 0 67.5 11.333 94.5 34s40.5 50.667 40.5 84v8h-129c-27.333 0 -49.666 -5.66699 -66.999 -17s-26 -26.666 -26 -45.999z" />
    <glyph glyph-name="atilde" unicode="&#xe3;" horiz-adv-x="561" 
d="M224 290l146.998 0.000976562v34c0 24.667 -10.333 45.334 -31 62.001s-46 25 -76 25c-28.667 0 -52.667 -7.83301 -72 -23.5s-30 -34.834 -32 -57.501h-97c4.66699 51.333 26.334 93.5 65.001 126.5s86.667 49.5 144 49.5c58.667 0 107.5 -17 146.5 -51
s58.5 -77 58.5 -129v-209c0 -12 3.33301 -21.667 10 -29s15.667 -11 27 -11c10 0 18.333 2.33301 25 7v-73c-18 -12.667 -39.667 -19 -65 -19c-23.333 0 -43.5 5.66699 -60.5 17s-29.167 26.666 -36.5 45.999c-40.667 -44 -93 -66 -157 -66
c-51.333 0 -93.666 14.333 -126.999 43s-50 66 -50 112c0 45.333 16.333 81 49 107s76.667 39 132 39zM209.998 729.001c24 0 47.833 -9.33008 71.5 -27.9971s41.167 -28 52.5 -28c12.667 0 23.167 4.83301 31.5 14.5s12.5 22.167 12.5 37.5h74
c0 -36.667 -10.667 -66.834 -32 -90.501s-48.333 -35.5 -81 -35.5c-18.667 0 -35.5 4.66699 -50.5 14s-28.167 18.666 -39.5 27.999s-22.333 14 -33 14c-12.667 0 -23.167 -4.83301 -31.5 -14.5s-12.5 -21.834 -12.5 -36.501h-74c0 36 10.5 65.833 31.5 89.5
s47.833 35.5 80.5 35.5zM148.998 148.004c0 -18.667 7.99902 -33.834 23.999 -45.501s37 -17.5 63 -17.5c36 0 67.5 11.333 94.5 34s40.5 50.667 40.5 84v8h-129c-27.333 0 -49.666 -5.66699 -66.999 -17s-26 -26.666 -26 -45.999z" />
    <glyph glyph-name="adieresis" unicode="&#xe4;" horiz-adv-x="561" 
d="M224 290l146.998 0.000976562v34c0 24.667 -10.333 45.334 -31 62.001s-46 25 -76 25c-28.667 0 -52.667 -7.83301 -72 -23.5s-30 -34.834 -32 -57.501h-97c4.66699 51.333 26.334 93.5 65.001 126.5s86.667 49.5 144 49.5c58.667 0 107.5 -17 146.5 -51
s58.5 -77 58.5 -129v-209c0 -12 3.33301 -21.667 10 -29s15.667 -11 27 -11c10 0 18.333 2.33301 25 7v-73c-18 -12.667 -39.667 -19 -65 -19c-23.333 0 -43.5 5.66699 -60.5 17s-29.167 26.666 -36.5 45.999c-40.667 -44 -93 -66 -157 -66
c-51.333 0 -93.666 14.333 -126.999 43s-50 66 -50 112c0 45.333 16.333 81 49 107s76.667 39 132 39zM148.998 148.001c0 -18.667 7.99902 -33.834 23.999 -45.501s37 -17.5 63 -17.5c36 0 67.5 11.333 94.5 34s40.5 50.667 40.5 84v8h-129
c-27.333 0 -49.666 -5.66699 -66.999 -17s-26 -26.666 -26 -45.999zM100.997 672.001c0 16.667 5.66699 30.667 17 42s25.333 17 42 17s30.667 -5.66699 42 -17s17 -25.333 17 -42s-5.66699 -30.667 -17 -42s-25.333 -17 -42 -17s-30.667 5.66699 -42 17s-17 25.333 -17 42z
M330.997 672.001c0 16.667 5.5 30.667 16.5 42s24.833 17 41.5 17s30.667 -5.5 42 -16.5s17 -25.167 17 -42.5c0 -16.667 -5.66699 -30.667 -17 -42s-25.333 -17 -42 -17s-30.5 5.66699 -41.5 17s-16.5 25.333 -16.5 42z" />
    <glyph glyph-name="aring" unicode="&#xe5;" horiz-adv-x="561" 
d="M224 290l146.998 0.000976562v34c0 24.667 -10.333 45.334 -31 62.001s-46 25 -76 25c-28.667 0 -52.667 -7.83301 -72 -23.5s-30 -34.834 -32 -57.501h-97c4.66699 51.333 26.334 93.5 65.001 126.5s86.667 49.5 144 49.5c58.667 0 107.5 -17 146.5 -51
s58.5 -77 58.5 -129v-209c0 -12 3.33301 -21.667 10 -29s15.667 -11 27 -11c10 0 18.333 2.33301 25 7v-73c-18 -12.667 -39.667 -19 -65 -19c-23.333 0 -43.5 5.66699 -60.5 17s-29.167 26.666 -36.5 45.999c-40.667 -44 -93 -66 -157 -66
c-51.333 0 -93.666 14.333 -126.999 43s-50 66 -50 112c0 45.333 16.333 81 49 107s76.667 39 132 39zM273.998 783.001c29.333 0 53.666 -9.5 72.999 -28.5s29 -43.167 29 -72.5c0 -30 -9.66699 -54.667 -29 -74s-43.666 -29 -72.999 -29s-53.666 9.66699 -72.999 29
s-29 44 -29 74c0 29.333 9.66699 53.5 29 72.5s43.666 28.5 72.999 28.5zM148.998 148.001c0 -18.667 7.99902 -33.834 23.999 -45.501s37 -17.5 63 -17.5c36 0 67.5 11.333 94.5 34s40.5 50.667 40.5 84v8h-129c-27.333 0 -49.666 -5.66699 -66.999 -17
s-26 -26.666 -26 -45.999zM223.997 682.001c0 -14.667 4.83301 -26.667 14.5 -36s21.5 -14 35.5 -14s25.833 4.66699 35.5 14s14.5 21.333 14.5 36c0 14 -4.83301 25.667 -14.5 35s-21.5 14 -35.5 14s-25.833 -4.66699 -35.5 -14s-14.5 -21 -14.5 -35z" />
    <glyph glyph-name="ae" unicode="&#xe6;" horiz-adv-x="899" 
d="M43 148c0 45.333 16.333 81 49 107s77.667 39 135 39h149v30c0 24.667 -10.333 45.334 -31 62.001s-46.334 25 -77.001 25c-29.333 0 -54.166 -7.83301 -74.499 -23.5s-31.5 -34.834 -33.5 -57.501h-97c4.66699 51.333 26.5 93.5 65.5 126.5s87.167 49.5 144.5 49.5
c36 0 69 -7.16699 99 -21.5s54 -33.833 72 -58.5c48 53.333 109.667 80 185 80c65.333 0 118.666 -19.833 159.999 -59.5s62 -90.5 62 -152.5c0 -26 -5 -52.333 -15 -79h-354c6 -40 22.5 -71.833 49.5 -95.5s61.5 -35.5 103.5 -35.5c34.667 0 63.5 7.83301 86.5 23.5
s35.5 35.5 37.5 59.5h94c-4.66699 -51.333 -28 -93.5 -70 -126.5s-93.333 -49.5 -154 -49.5c-46.667 0 -88.334 10.333 -125.001 31s-65.667 49 -87 85c-17.333 -36.667 -43.166 -65.5 -77.499 -86.5s-73.166 -31.5 -116.499 -31.5c-52 0 -95 14.5 -129 43.5
s-51 67.5 -51 115.5zM485 297h269.002c-2.66699 35.333 -15.334 63.666 -38.001 84.999s-52.334 32 -89.001 32c-35.333 0 -65.833 -10.667 -91.5 -32s-42.5 -49.666 -50.5 -84.999zM238.002 215c-27.333 0 -49.001 -5.66797 -65.001 -17.001s-24 -26.666 -24 -45.999
c0 -20 8.33301 -36.167 25 -48.5s38.334 -18.5 65.001 -18.5c36.667 0 68.667 11.333 96 34s41 50.667 41 84v12h-138z" />
    <glyph glyph-name="ccedilla" unicode="&#xe7;" horiz-adv-x="553" 
d="M294 506c61.333 0 111.502 -16.0039 150.502 -48.0039s58.5 -72.667 58.5 -122c0 -14.667 -3 -30 -9 -46h-95c4 12.667 6 24.334 6 35.001c0 25.333 -10.167 46 -30.5 62s-46.5 24 -78.5 24c-44.667 0 -80.334 -15.167 -107.001 -45.5s-40 -69.5 -40 -117.5
s13.333 -87.167 40 -117.5s62.334 -45.5 107.001 -45.5c33.333 0 61.166 8.66699 83.499 26s34.5 39.666 36.5 66.999h96c-4 -51.333 -24.833 -94.166 -62.5 -128.499s-84.834 -53.833 -141.501 -58.5l-3 -34c28.667 -4.66699 51.834 -15.667 69.501 -33
s26.5 -37.666 26.5 -60.999c0 -28.667 -12.167 -52.334 -36.5 -71.001s-54.833 -28 -91.5 -28c-34.667 0 -63 8.33301 -85 25s-33 37.334 -33 62.001c0 9.33301 2.33301 18 7 26h68c-3.33301 -5.33301 -5 -10.666 -5 -15.999c0 -10 4.5 -18.167 13.5 -24.5
s20.833 -9.5 35.5 -9.5c15.333 0 28 3.5 38 10.5s15 16.167 15 27.5c0 14 -8.33301 25.167 -25 33.5s-38.334 12.5 -65.001 12.5l8 82c-60.667 8.66699 -109.5 36.334 -146.5 83.001s-55.5 103.667 -55.5 171c0 76 23.167 138.167 69.5 186.5s106.833 72.5 181.5 72.5z" />
    <glyph glyph-name="egrave" unicode="&#xe8;" horiz-adv-x="566" 
d="M293 506c66 0 120.001 -19.833 162.001 -59.5s63 -90.5 63 -152.5c0 -24 -5 -50.333 -15 -79h-355c6 -40 22.5 -71.833 49.5 -95.5s61.5 -35.5 103.5 -35.5c34.667 0 63.5 7.83301 86.5 23.5s35.5 35.5 37.5 59.5h95c-4.66699 -51.333 -28.334 -93.5 -71.001 -126.5
s-95 -49.5 -157 -49.5c-74 0 -134 24 -180 72s-69 109.333 -69 184c0 75.333 23.5 137.333 70.5 186s106.833 73 179.5 73zM152.001 297l269 -0.00195312c-2 34.667 -14.5 62.834 -37.5 84.501s-52.833 32.5 -89.5 32.5c-35.333 0 -65.833 -10.667 -91.5 -32
s-42.5 -49.666 -50.5 -84.999zM262.001 578.998l-154 167h122l115 -167h-83z" />
    <glyph glyph-name="eacute" unicode="&#xe9;" horiz-adv-x="566" 
d="M43 247c0 75.333 23.501 137.333 70.501 186s106.833 73 179.5 73c66 0 120 -19.833 162 -59.5s63 -90.5 63 -152.5c0 -24 -5 -50.333 -15 -79h-355c6 -40 22.5 -71.833 49.5 -95.5s61.5 -35.5 103.5 -35.5c34.667 0 63.5 7.83301 86.5 23.5s35.5 35.5 37.5 59.5h95
c-4.66699 -51.333 -28.334 -93.5 -71.001 -126.5s-95 -49.5 -157 -49.5c-74 0 -134 24 -180 72s-69 109.333 -69 184zM152.001 297l269 -0.00195312c-2 34.667 -14.5 62.834 -37.5 84.501s-52.833 32.5 -89.5 32.5c-35.333 0 -65.833 -10.667 -91.5 -32
s-42.5 -49.666 -50.5 -84.999zM228.001 578.998l114 167h123l-155 -167h-82z" />
    <glyph glyph-name="ecircumflex" unicode="&#xea;" horiz-adv-x="566" 
d="M43 247c0 75.333 23.501 137.333 70.501 186s106.833 73 179.5 73c66 0 120 -19.833 162 -59.5s63 -90.5 63 -152.5c0 -24 -5 -50.333 -15 -79h-355c6 -40 22.5 -71.833 49.5 -95.5s61.5 -35.5 103.5 -35.5c34.667 0 63.5 7.83301 86.5 23.5s35.5 35.5 37.5 59.5h95
c-4.66699 -51.333 -28.334 -93.5 -71.001 -126.5s-95 -49.5 -157 -49.5c-74 0 -134 24 -180 72s-69 109.333 -69 184zM198.001 579h-102l139 167h102l139 -167h-102l-88 106zM152.001 297l269 -0.00195312c-2 34.667 -14.5 62.834 -37.5 84.501s-52.833 32.5 -89.5 32.5
c-35.333 0 -65.833 -10.667 -91.5 -32s-42.5 -49.666 -50.5 -84.999z" />
    <glyph glyph-name="edieresis" unicode="&#xeb;" horiz-adv-x="566" 
d="M293 506c66 0 120.001 -19.833 162.001 -59.5s63 -90.5 63 -152.5c0 -24 -5 -50.333 -15 -79h-355c6 -40 22.5 -71.833 49.5 -95.5s61.5 -35.5 103.5 -35.5c34.667 0 63.5 7.83301 86.5 23.5s35.5 35.5 37.5 59.5h95c-4.66699 -51.333 -28.334 -93.5 -71.001 -126.5
s-95 -49.5 -157 -49.5c-74 0 -134 24 -180 72s-69 109.333 -69 184c0 75.333 23.5 137.333 70.5 186s106.833 73 179.5 73zM152.001 297l269 -0.00195312c-2 34.667 -14.5 62.834 -37.5 84.501s-52.833 32.5 -89.5 32.5c-35.333 0 -65.833 -10.667 -91.5 -32
s-42.5 -49.666 -50.5 -84.999zM401.001 730.998c16.667 0 30.5 -5.66699 41.5 -17s16.5 -25.333 16.5 -42s-5.5 -30.667 -16.5 -42s-24.833 -17 -41.5 -17s-30.667 5.66699 -42 17s-17 25.333 -17 42c0 17.333 5.66699 31.5 17 42.5s25.333 16.5 42 16.5zM113.001 671.998
c0 16.667 5.5 30.667 16.5 42s24.833 17 41.5 17s30.667 -5.5 42 -16.5s17 -25.167 17 -42.5c0 -16.667 -5.66699 -30.667 -17 -42s-25.333 -17 -42 -17s-30.5 5.66699 -41.5 17s-16.5 25.333 -16.5 42z" />
    <glyph glyph-name="igrave" unicode="&#xec;" horiz-adv-x="252" 
d="M73 0v495h106v-495h-106zM-53 745h123l114 -166h-82z" />
    <glyph glyph-name="iacute" unicode="&#xed;" horiz-adv-x="252" 
d="M73 0v495h106v-495h-106zM68 579l114 166h123l-155 -166h-82z" />
    <glyph glyph-name="icircumflex" unicode="&#xee;" horiz-adv-x="252" 
d="M73 495h106v-495h-106v495zM-64 579l139 166h102l139 -166h-102l-88 106l-88 -106h-102z" />
    <glyph glyph-name="idieresis" unicode="&#xef;" horiz-adv-x="252" 
d="M73 0v495h106v-495h-106zM-48 672c0 16.667 5.66699 30.667 17 42s25.333 17 42 17s30.667 -5.66699 42 -17s17 -25.333 17 -42s-5.66699 -30.667 -17 -42s-25.333 -17 -42 -17s-30.667 5.66699 -42 17s-17 25.333 -17 42zM182 672c0 16.667 5.5 30.667 16.5 42
s24.833 17 41.5 17s30.667 -5.66699 42 -17s17 -25.333 17 -42s-5.66699 -30.667 -17 -42s-25.333 -17 -42 -17s-30.5 5.66699 -41.5 17s-16.5 25.333 -16.5 42z" />
    <glyph glyph-name="eth" unicode="&#xf0;" horiz-adv-x="591" 
d="M278 500c42.667 0 80.667 -10.5 114 -31.5s56.333 -49.167 69 -84.5c-2 104 -41.333 181.333 -118 232l-61 -74l-49 41l52 62c-54 20.667 -116.333 31 -187 31v84c97.333 0 179.333 -15 246 -45l55 66l49 -40l-47 -57c101.333 -68.667 152 -182.667 152 -342
c0 -116 -23.667 -203.667 -71 -263s-110 -89 -188 -89c-72.667 0 -132.667 24 -180 72s-71 109.333 -71 184c0 73.333 22.5 134 67.5 182s100.833 72 167.5 72zM149 248c0 -47.333 13.5 -86.333 40.5 -117s61.167 -46 102.5 -46s75.333 15.333 102 46s40 69.667 40 117
s-13.5 86.333 -40.5 117s-60.833 46 -101.5 46c-41.333 0 -75.5 -15.333 -102.5 -46s-40.5 -69.667 -40.5 -117z" />
    <glyph glyph-name="ntilde" unicode="&#xf1;" horiz-adv-x="596" 
d="M179 0l-106.001 -0.000976562v495h106v-68c43.333 52.667 100 79 170 79c54.667 0 97.834 -16.333 129.501 -49s47.5 -77 47.5 -133v-324h-106v300c0 34.667 -9.5 61.834 -28.5 81.501s-44.5 29.5 -76.5 29.5c-40 0 -72.667 -14.5 -98 -43.5s-38 -65.833 -38 -110.5v-257
zM229.999 728.999c24 0 47.832 -9.33301 71.499 -28s41.167 -28 52.5 -28c12.667 0 23 4.83301 31 14.5s12 21.834 12 36.501h74c0 -36 -10.667 -65.833 -32 -89.5s-48.333 -35.5 -81 -35.5c-23.333 0 -46.666 9.33301 -69.999 28s-41 28 -53 28
c-12.667 0 -23.167 -4.83301 -31.5 -14.5s-12.5 -21.834 -12.5 -36.501h-74c0 36 10.667 65.833 32 89.5s48.333 35.5 81 35.5z" />
    <glyph glyph-name="ograve" unicode="&#xf2;" horiz-adv-x="583" 
d="M43 248c0 74.667 23.5 136.334 70.5 185.001s106.5 73 178.5 73s131.333 -24.333 178 -73s70 -110.334 70 -185.001s-23.333 -136.334 -70 -185.001s-106 -73 -178 -73s-131.5 24.333 -178.5 73s-70.5 110.334 -70.5 185.001zM149 248c0 -47.333 13.5 -86.333 40.5 -117
s61.167 -46 102.5 -46s75.333 15.333 102 46s40 69.667 40 117s-13.5 86.333 -40.5 117s-60.833 46 -101.5 46c-41.333 0 -75.5 -15.333 -102.5 -46s-40.5 -69.667 -40.5 -117zM113 740h123l114 -166h-83z" />
    <glyph glyph-name="oacute" unicode="&#xf3;" horiz-adv-x="583" 
d="M43 248c0 74.667 23.5 136.334 70.5 185.001s106.5 73 178.5 73s131.333 -24.333 178 -73s70 -110.334 70 -185.001s-23.333 -136.334 -70 -185.001s-106 -73 -178 -73s-131.5 24.333 -178.5 73s-70.5 110.334 -70.5 185.001zM149 248c0 -47.333 13.5 -86.333 40.5 -117
s61.167 -46 102.5 -46s75.333 15.333 102 46s40 69.667 40 117s-13.5 86.333 -40.5 117s-60.833 46 -101.5 46c-41.333 0 -75.5 -15.333 -102.5 -46s-40.5 -69.667 -40.5 -117zM233 574l115 166h123l-155 -166h-83z" />
    <glyph glyph-name="ocircumflex" unicode="&#xf4;" horiz-adv-x="583" 
d="M292 506c72 0 131.333 -24.333 178 -73s70 -110.334 70 -185.001s-23.333 -136.334 -70 -185.001s-106 -73 -178 -73s-131.5 24.333 -178.5 73s-70.5 110.334 -70.5 185.001s23.5 136.334 70.5 185.001s106.5 73 178.5 73zM149 248c0 -47.333 13.5 -86.333 40.5 -117
s61.167 -46 102.5 -46s75.333 15.333 102 46s40 69.667 40 117s-13.5 86.333 -40.5 117s-60.833 46 -101.5 46c-41.333 0 -75.5 -15.333 -102.5 -46s-40.5 -69.667 -40.5 -117zM204 574h-102l139 166h102l139 -166h-102l-88 105z" />
    <glyph glyph-name="otilde" unicode="&#xf5;" horiz-adv-x="583" 
d="M43 248c0 74.667 23.5 136.334 70.5 185.001s106.5 73 178.5 73s131.333 -24.333 178 -73s70 -110.334 70 -185.001s-23.333 -136.334 -70 -185.001s-106 -73 -178 -73s-131.5 24.333 -178.5 73s-70.5 110.334 -70.5 185.001zM149 248c0 -47.333 13.5 -86.333 40.5 -117
s61.167 -46 102.5 -46s75.333 15.333 102 46s40 69.667 40 117s-13.5 86.333 -40.5 117s-60.833 46 -101.5 46c-41.333 0 -75.5 -15.333 -102.5 -46s-40.5 -69.667 -40.5 -117zM188 599h-72.999c0 36 10.5 65.667 31.5 89s48.167 35 81.5 35c24 0 47.667 -9.16699 71 -27.5
s40.666 -27.5 51.999 -27.5c12.667 0 23.167 4.83301 31.5 14.5s12.5 21.834 12.5 36.501h73c0 -36.667 -10.5 -66.667 -31.5 -90s-47.833 -35 -80.5 -35c-24 0 -47.667 9.33301 -71 28s-41 28 -53 28s-22.333 -4.83301 -31 -14.5s-13 -21.834 -13 -36.501z" />
    <glyph glyph-name="odieresis" unicode="&#xf6;" horiz-adv-x="583" 
d="M43 248c0 74.667 23.5 136.334 70.5 185.001s106.5 73 178.5 73s131.333 -24.333 178 -73s70 -110.334 70 -185.001s-23.333 -136.334 -70 -185.001s-106 -73 -178 -73s-131.5 24.333 -178.5 73s-70.5 110.334 -70.5 185.001zM149 248c0 -47.333 13.5 -86.333 40.5 -117
s61.167 -46 102.5 -46s75.333 15.333 102 46s40 69.667 40 117s-13.5 86.333 -40.5 117s-60.833 46 -101.5 46c-41.333 0 -75.5 -15.333 -102.5 -46s-40.5 -69.667 -40.5 -117zM118 667c0 16.667 5.66699 30.5 17 41.5s25.333 16.5 42 16.5s30.667 -5.5 42 -16.5
s17 -24.833 17 -41.5s-5.66699 -30.667 -17 -42s-25.333 -17 -42 -17s-30.667 5.66699 -42 17s-17 25.333 -17 42zM347 667c0 16.667 5.66699 30.5 17 41.5s25.333 16.5 42 16.5s30.667 -5.5 42 -16.5s17 -24.833 17 -41.5s-5.5 -30.667 -16.5 -42s-25.167 -17 -42.5 -17
c-16.667 0 -30.667 5.66699 -42 17s-17 25.333 -17 42z" />
    <glyph glyph-name="divide" unicode="&#xf7;" 
d="M95 313v74h460v-74h-460zM266 158c0 17.333 5.5 31.666 16.5 42.999s25.167 17 42.5 17s31.5 -5.66699 42.5 -17s16.5 -25.666 16.5 -42.999s-5.66699 -31.5 -17 -42.5s-25.333 -16.5 -42 -16.5s-30.667 5.5 -42 16.5s-17 25.167 -17 42.5zM266 542
c0 17.333 5.66699 31.5 17 42.5s25.333 16.5 42 16.5s30.667 -5.5 42 -16.5s17 -25.167 17 -42.5s-5.5 -31.666 -16.5 -42.999s-25.167 -17 -42.5 -17s-31.5 5.66699 -42.5 17s-16.5 25.666 -16.5 42.999z" />
    <glyph glyph-name="oslash" unicode="&#xf8;" horiz-adv-x="583" 
d="M40 0l63.001 74c-40 47.333 -60 105.333 -60 174c0 74.667 23.5 136.334 70.5 185.001s106.5 73 178.5 73c53.333 0 100.333 -14 141 -42l26 31h84l-63 -73c40 -47.333 60 -105.333 60 -174c0 -74.667 -23.333 -136.334 -70 -185.001s-106 -73 -178 -73
c-54.667 0 -102.334 14.333 -143.001 43l-28 -33h-81zM415.001 344l-204.001 -239.001c22.667 -16.667 49.667 -25 81 -25c42.667 0 77.834 15.833 105.501 47.5s41.5 71.834 41.5 120.501c0 36 -8 68 -24 96zM168 151.999l202.999 240.001
c-23.333 16 -49.666 24 -78.999 24c-42.667 0 -78 -15.833 -106 -47.5s-42 -71.834 -42 -120.501c0 -36 8 -68 24 -96z" />
    <glyph glyph-name="ugrave" unicode="&#xf9;" horiz-adv-x="591" 
d="M70 172v322.999h106v-300c0 -34 9.33301 -60.833 28 -80.5s44 -29.5 76 -29.5c38.667 0 70.334 14.333 95.001 43s37 65.334 37 110.001v257h106v-495h-106v67c-42.667 -51.333 -98.334 -77 -167.001 -77c-54 0 -96.667 16.333 -128 49s-47 77 -47 133zM271 578.999
l-155 166h124l113 -166h-82z" />
    <glyph glyph-name="uacute" unicode="&#xfa;" horiz-adv-x="591" 
d="M70 172v322.999h106v-300c0 -34 9.33301 -60.833 28 -80.5s44 -29.5 76 -29.5c38.667 0 70.334 14.333 95.001 43s37 65.334 37 110.001v257h106v-495h-106v67c-42.667 -51.333 -98.334 -77 -167.001 -77c-54 0 -96.667 16.333 -128 49s-47 77 -47 133zM319 578.999h-82
l114 166h123z" />
    <glyph glyph-name="ucircumflex" unicode="&#xfb;" horiz-adv-x="591" 
d="M70 172v322.999h106v-300c0 -34 9.33301 -60.833 28 -80.5s44 -29.5 76 -29.5c38.667 0 70.334 14.333 95.001 43s37 65.334 37 110.001v257h106v-495h-106v67c-42.667 -51.333 -98.334 -77 -167.001 -77c-54 0 -96.667 16.333 -128 49s-47 77 -47 133zM105 578.999
l139 166h102l140 -166h-103l-88 106l-88 -106h-102z" />
    <glyph glyph-name="udieresis" unicode="&#xfc;" horiz-adv-x="591" 
d="M70 495l106 -0.000976562v-300c0 -34 9.33301 -60.833 28 -80.5s44 -29.5 76 -29.5c38.667 0 70.334 14.333 95.001 43s37 65.334 37 110.001v257h106v-495h-106v67c-42.667 -51.333 -98.334 -77 -167.001 -77c-54 0 -96.667 16.333 -128 49s-47 77 -47 133v323z
M410 730.999c16.667 0 30.5 -5.66699 41.5 -17s16.5 -25.333 16.5 -42s-5.5 -30.667 -16.5 -42s-24.833 -17 -41.5 -17s-30.667 5.66699 -42 17s-17 25.333 -17 42s5.66699 30.667 17 42s25.333 17 42 17zM180 730.999c16.667 0 30.667 -5.66699 42 -17s17 -25.333 17 -42
s-5.66699 -30.667 -17 -42s-25.333 -17 -42 -17s-30.5 5.66699 -41.5 17s-16.5 25.333 -16.5 42s5.5 30.667 16.5 42s24.833 17 41.5 17z" />
    <glyph glyph-name="yacute" unicode="&#xfd;" horiz-adv-x="572" 
d="M19 495h117.001l150 -371l150 371h117l-273 -620c-16.667 -38 -39 -68 -67 -90s-59 -33 -93 -33c-29.333 0 -53.333 6.66699 -72 20v87c20 -10 39 -15 57 -15c37.333 0 66.666 24.333 87.999 73l41 88zM311.001 579h-83l114 166h124z" />
    <glyph glyph-name="thorn" unicode="&#xfe;" horiz-adv-x="628" 
d="M179 -240l-106 0.00195312v990h106v-322c44.667 52 102 78 172 78c68 0 124 -24.333 168 -73s66 -110.334 66 -185.001s-22 -136.334 -66 -185.001s-100 -73 -168 -73c-70 0 -127.333 26 -172 78v-308zM181 248.002c0 -47.333 14 -86.333 42 -117s63.667 -46 107 -46
s79 15.333 107 46s42 69.667 42 117s-14.167 86.333 -42.5 117s-63.833 46 -106.5 46s-78.167 -15.333 -106.5 -46s-42.5 -69.667 -42.5 -117z" />
    <glyph glyph-name="ydieresis" unicode="&#xff;" horiz-adv-x="572" 
d="M234 5l-214.999 490h117l150 -371l150 371h117l-273 -620c-16.667 -38 -39 -68 -67 -90s-59 -33 -93 -33c-29.333 0 -53.333 6.66699 -72 20v87c20 -10 39 -15 57 -15c37.333 0 66.666 24.333 87.999 73zM172.001 731c16.667 0 30.667 -5.66699 42 -17s17 -25.333 17 -42
s-5.66699 -30.667 -17 -42s-25.333 -17 -42 -17s-30.667 5.66699 -42 17s-17 25.333 -17 42s5.66699 30.667 17 42s25.333 17 42 17zM401.001 731c16.667 0 30.667 -5.66699 42 -17s17 -25.333 17 -42s-5.66699 -30.667 -17 -42s-25.333 -17 -42 -17s-30.667 5.66699 -42 17
s-17 25.333 -17 42s5.66699 30.667 17 42s25.333 17 42 17z" />
    <glyph glyph-name="Amacron" unicode="&#x100;" horiz-adv-x="754" 
d="M141 0h-122l308 700h101l307 -700h-122l-67 159h-337zM378 555l-129 -301h256zM247 840v73h258v-73h-258z" />
    <glyph glyph-name="amacron" unicode="&#x101;" horiz-adv-x="561" 
d="M224 290l146.998 0.000976562v34c0 24.667 -10.333 45.334 -31 62.001s-46 25 -76 25c-28.667 0 -52.667 -7.83301 -72 -23.5s-30 -34.834 -32 -57.501h-97c4.66699 51.333 26.334 93.5 65.001 126.5s86.667 49.5 144 49.5c58.667 0 107.5 -17 146.5 -51
s58.5 -77 58.5 -129v-209c0 -12 3.33301 -21.667 10 -29s15.667 -11 27 -11c10 0 18.333 2.33301 25 7v-73c-18 -12.667 -39.667 -19 -65 -19c-23.333 0 -43.5 5.66699 -60.5 17s-29.167 26.666 -36.5 45.999c-40.667 -44 -93 -66 -157 -66
c-51.333 0 -93.666 14.333 -126.999 43s-50 66 -50 112c0 45.333 16.333 81 49 107s76.667 39 132 39zM148.998 148.001c0 -18.667 7.99902 -33.834 23.999 -45.501s37 -17.5 63 -17.5c36 0 67.5 11.333 94.5 34s40.5 50.667 40.5 84v8h-129
c-27.333 0 -49.666 -5.66699 -66.999 -17s-26 -26.666 -26 -45.999zM402.997 640.001h-258v74h258v-74z" />
    <glyph glyph-name="Abreve" unicode="&#x102;" horiz-adv-x="754" 
d="M141 0h-122l308 700h101l307 -700h-122l-67 159h-337zM378 555l-129 -301h256zM215 936h74.002c0 -21.333 8.5 -39 25.5 -53s37.833 -21 62.5 -21s45.5 7 62.5 21s25.5 31.667 25.5 53h74c0 -42.667 -15.333 -77.834 -46 -105.501s-69.334 -41.5 -116.001 -41.5
s-85.334 13.833 -116.001 41.5s-46 62.834 -46 105.501z" />
    <glyph glyph-name="abreve" unicode="&#x103;" horiz-adv-x="561" 
d="M224 290l146.998 0.000976562v34c0 24.667 -10.333 45.334 -31 62.001s-46 25 -76 25c-28.667 0 -52.667 -7.83301 -72 -23.5s-30 -34.834 -32 -57.501h-97c4.66699 51.333 26.334 93.5 65.001 126.5s86.667 49.5 144 49.5c58.667 0 107.5 -17 146.5 -51
s58.5 -77 58.5 -129v-209c0 -12 3.33301 -21.667 10 -29s15.667 -11 27 -11c10 0 18.333 2.33301 25 7v-73c-18 -12.667 -39.667 -19 -65 -19c-23.333 0 -43.5 5.66699 -60.5 17s-29.167 26.666 -36.5 45.999c-40.667 -44 -93 -66 -157 -66
c-51.333 0 -93.666 14.333 -126.999 43s-50 66 -50 112c0 45.333 16.333 81 49 107s76.667 39 132 39zM112.998 736.001h73.001c0 -21.333 8.5 -39 25.5 -53s38.167 -21 63.5 -21c24.667 0 45.5 7 62.5 21s25.5 31.667 25.5 53h73c0 -42.667 -15.333 -77.834 -46 -105.501
s-69.334 -41.5 -116.001 -41.5s-85.167 13.833 -115.5 41.5s-45.5 62.834 -45.5 105.501zM148.999 148.001c0 -18.667 7.99902 -33.834 23.999 -45.501s37 -17.5 63 -17.5c36 0 67.5 11.333 94.5 34s40.5 50.667 40.5 84v8h-129c-27.333 0 -49.666 -5.66699 -66.999 -17
s-26 -26.666 -26 -45.999z" />
    <glyph glyph-name="Aogonek" unicode="&#x104;" horiz-adv-x="754" 
d="M141 0l-121.999 0.000976562l308 700h101l307 -700h-25l-7.5 -5c-3 -2 -8.5 -6.5 -16.5 -13.5s-15 -14.167 -21 -21.5s-11.5 -16 -16.5 -26s-7.5 -20 -7.5 -30c0 -16.667 6.16699 -29.834 18.5 -39.501s28.166 -14.5 47.499 -14.5c26.667 0 50.667 9 72 27v-71
c-22 -17.333 -49.333 -26 -82 -26c-38 0 -69.167 9.66699 -93.5 29s-36.5 45 -36.5 77c0 21.333 5.83301 41.5 17.5 60.5s23.5 32.833 35.5 41.5l17 12h-24l-67 159h-337zM378.001 555.001l-129 -301h256z" />
    <glyph glyph-name="aogonek" unicode="&#x105;" horiz-adv-x="561" 
d="M224 290l146.998 -0.00195312v34c0 24.667 -10.333 45.334 -31 62.001s-46 25 -76 25c-28.667 0 -52.667 -7.83301 -72 -23.5s-30 -34.834 -32 -57.501h-97c4.66699 51.333 26.334 93.5 65.001 126.5s86.667 49.5 144 49.5c58.667 0 107.5 -17 146.5 -51
s58.5 -77 58.5 -129v-209c0 -12 3.33301 -21.667 10 -29s15.667 -11 27 -11c10 0 18.333 2.33301 25 7v-73c-12.667 -8 -27 -13.667 -43 -17c-39.333 -29.333 -59 -59 -59 -89c0 -16 6 -28.667 18 -38s28 -14 48 -14c27.333 0 51.333 8.66699 72 26v-71
c-22 -17.333 -49.333 -26 -82 -26c-38 0 -69.167 9.83301 -93.5 29.5s-36.5 45.5 -36.5 77.5c0 18.667 5 36.834 15 54.501s19.333 30.334 28 38.001s16.667 13.834 24 18.501c-25.333 11.333 -43 29.666 -53 54.999c-40.667 -44 -93 -66 -157 -66
c-51.333 0 -93.666 14.333 -126.999 43s-50 66 -50 112c0 45.333 16.333 81 49 107s76.667 39 132 39zM148.998 147.998c0 -18.667 7.99902 -33.834 23.999 -45.501s37 -17.5 63 -17.5c36 0 67.5 11.333 94.5 34s40.5 50.667 40.5 84v8h-129
c-27.333 0 -49.666 -5.66699 -66.999 -17s-26 -26.666 -26 -45.999z" />
    <glyph glyph-name="Cacute" unicode="&#x106;" horiz-adv-x="755" 
d="M686 423l-102.999 -0.000976562c6 20 9 38.333 9 55c0 37.333 -17.167 68.166 -51.5 92.499s-78.5 36.5 -132.5 36.5c-75.333 0 -135.5 -24.167 -180.5 -72.5s-67.5 -110.166 -67.5 -185.499c0 -74.667 22 -136 66 -184s102 -72 174 -72
c57.333 0 104.5 14.833 141.5 44.5s57.5 67.834 61.5 114.501h106c-6.66699 -76.667 -39.5 -139.5 -98.5 -188.5s-132.167 -73.5 -219.5 -73.5c-102 0 -184.667 33.667 -248 101s-95 153.333 -95 258c0 106 32.833 192.667 98.5 260s152.167 101 259.5 101
c85.333 0 155.166 -21 209.499 -63s81.5 -96 81.5 -162c0 -21.333 -3.66699 -42 -11 -62zM338.001 778.999l115 166h123l-155 -166h-83z" />
    <glyph glyph-name="cacute" unicode="&#x107;" horiz-adv-x="553" 
d="M494 290h-94.999c4 12.667 6 24.334 6 35.001c0 25.333 -10.167 46 -30.5 62s-46.5 24 -78.5 24c-44.667 0 -80.334 -15.167 -107.001 -45.5s-40 -69.5 -40 -117.5s13.333 -87.167 40 -117.5s62.334 -45.5 107.001 -45.5c33.333 0 61.166 8.66699 83.499 26
s34.5 39.666 36.5 66.999h96c-4.66699 -54.667 -28 -99.667 -70 -135s-94 -53 -156 -53c-72 0 -130.5 24 -175.5 72s-67.5 109.667 -67.5 185c0 76 23.167 138.167 69.5 186.5s106.833 72.5 181.5 72.5c61.333 0 111.5 -16 150.5 -48s58.5 -72.667 58.5 -122
c0 -14.667 -3 -30 -9 -46zM231.001 579l114 166h123l-155 -166h-82z" />
    <glyph glyph-name="Ccircumflex" unicode="&#x108;" horiz-adv-x="755" 
d="M406 710c85.333 0 155.167 -21.001 209.5 -63.001s81.5 -96 81.5 -162c0 -21.333 -3.66699 -42 -11 -62h-103c6 20 9 38.333 9 55c0 37.333 -17.167 68.166 -51.5 92.499s-78.5 36.5 -132.5 36.5c-75.333 0 -135.5 -24.167 -180.5 -72.5s-67.5 -110.166 -67.5 -185.499
c0 -74.667 22 -136 66 -184s102 -72 174 -72c57.333 0 104.5 14.833 141.5 44.5s57.5 67.834 61.5 114.501h106c-6.66699 -76.667 -39.5 -139.5 -98.5 -188.5s-132.167 -73.5 -219.5 -73.5c-102 0 -184.667 33.667 -248 101s-95 153.333 -95 258
c0 106 32.833 192.667 98.5 260s152.167 101 259.5 101zM207.001 778.999l139 166h102l139 -166h-102l-88 106l-88 -106h-102z" />
    <glyph glyph-name="ccircumflex" unicode="&#x109;" horiz-adv-x="553" 
d="M43 247c0 76 23.168 138.167 69.501 186.5s106.833 72.5 181.5 72.5c61.333 0 111.5 -16 150.5 -48s58.5 -72.667 58.5 -122c0 -14.667 -3 -30 -9 -46h-95c4 12.667 6 24.334 6 35.001c0 25.333 -10.167 46 -30.5 62s-46.5 24 -78.5 24
c-44.667 0 -80.334 -15.167 -107.001 -45.5s-40 -69.5 -40 -117.5s13.333 -87.167 40 -117.5s62.334 -45.5 107.001 -45.5c33.333 0 61.166 8.66699 83.499 26s34.5 39.666 36.5 66.999h96c-4.66699 -54.667 -28 -99.667 -70 -135s-94 -53 -156 -53
c-72 0 -130.5 24 -175.5 72s-67.5 109.667 -67.5 185zM99.001 579l139 166h102l140 -166h-103l-88 106l-88 -106h-102z" />
    <glyph glyph-name="Cdotaccent" unicode="&#x10a;" horiz-adv-x="755" 
d="M686 423l-102.999 -0.000976562c6 20 9 38.333 9 55c0 37.333 -17.167 68.166 -51.5 92.499s-78.5 36.5 -132.5 36.5c-75.333 0 -135.5 -24.167 -180.5 -72.5s-67.5 -110.166 -67.5 -185.499c0 -74.667 22 -136 66 -184s102 -72 174 -72
c57.333 0 104.5 14.833 141.5 44.5s57.5 67.834 61.5 114.501h106c-6.66699 -76.667 -39.5 -139.5 -98.5 -188.5s-132.167 -73.5 -219.5 -73.5c-102 0 -184.667 33.667 -248 101s-95 153.333 -95 258c0 106 32.833 192.667 98.5 260s152.167 101 259.5 101
c85.333 0 155.166 -21 209.499 -63s81.5 -96 81.5 -162c0 -21.333 -3.66699 -42 -11 -62zM331.001 871.999c0 18.667 6.16699 34.167 18.5 46.5s28.166 18.5 47.499 18.5c18.667 0 34.167 -6.16699 46.5 -18.5s18.5 -27.833 18.5 -46.5s-6.16699 -34.167 -18.5 -46.5
s-27.833 -18.5 -46.5 -18.5c-19.333 0 -35.166 6.16699 -47.499 18.5s-18.5 27.833 -18.5 46.5z" />
    <glyph glyph-name="cdotaccent" unicode="&#x10b;" horiz-adv-x="553" 
d="M494 290h-94.999c4 12.667 6 24.334 6 35.001c0 25.333 -10.167 46 -30.5 62s-46.5 24 -78.5 24c-44.667 0 -80.334 -15.167 -107.001 -45.5s-40 -69.5 -40 -117.5s13.333 -87.167 40 -117.5s62.334 -45.5 107.001 -45.5c33.333 0 61.166 8.66699 83.499 26
s34.5 39.666 36.5 66.999h96c-4.66699 -54.667 -28 -99.667 -70 -135s-94 -53 -156 -53c-72 0 -130.5 24 -175.5 72s-67.5 109.667 -67.5 185c0 76 23.167 138.167 69.5 186.5s106.833 72.5 181.5 72.5c61.333 0 111.5 -16 150.5 -48s58.5 -72.667 58.5 -122
c0 -14.667 -3 -30 -9 -46zM224.001 672c0 18.667 6 34.167 18 46.5s27.667 18.5 47 18.5s35 -6.16699 47 -18.5s18 -27.833 18 -46.5s-6 -34.167 -18 -46.5s-27.667 -18.5 -47 -18.5s-35 6.16699 -47 18.5s-18 27.833 -18 46.5z" />
    <glyph glyph-name="Ccaron" unicode="&#x10c;" horiz-adv-x="755" 
d="M48 349c0 106 32.834 192.666 98.501 259.999s152.167 101 259.5 101c85.333 0 155.166 -21 209.499 -63s81.5 -96 81.5 -162c0 -21.333 -3.66699 -42 -11 -62h-103c6 20 9 38.333 9 55c0 37.333 -17.167 68.166 -51.5 92.499s-78.5 36.5 -132.5 36.5
c-75.333 0 -135.5 -24.167 -180.5 -72.5s-67.5 -110.166 -67.5 -185.499c0 -74.667 22 -136 66 -184s102 -72 174 -72c57.333 0 104.5 14.833 141.5 44.5s57.5 67.834 61.5 114.501h106c-6.66699 -76.667 -39.5 -139.5 -98.5 -188.5s-132.167 -73.5 -219.5 -73.5
c-102 0 -184.667 33.667 -248 101s-95 153.333 -95 258zM346.001 778.999l-139 166h102l88 -105l88 105h102l-139 -166h-102z" />
    <glyph glyph-name="ccaron" unicode="&#x10d;" horiz-adv-x="553" 
d="M43 247c0 76 23.168 138.167 69.501 186.5s106.833 72.5 181.5 72.5c61.333 0 111.5 -16 150.5 -48s58.5 -72.667 58.5 -122c0 -14.667 -3 -30 -9 -46h-95c4 12.667 6 24.334 6 35.001c0 25.333 -10.167 46 -30.5 62s-46.5 24 -78.5 24
c-44.667 0 -80.334 -15.167 -107.001 -45.5s-40 -69.5 -40 -117.5s13.333 -87.167 40 -117.5s62.334 -45.5 107.001 -45.5c33.333 0 61.166 8.66699 83.499 26s34.5 39.666 36.5 66.999h96c-4.66699 -54.667 -28 -99.667 -70 -135s-94 -53 -156 -53
c-72 0 -130.5 24 -175.5 72s-67.5 109.667 -67.5 185zM99.001 745h102l88 -105l88 105h103l-140 -166h-102z" />
    <glyph glyph-name="Dcaron" unicode="&#x10e;" horiz-adv-x="768" 
d="M78 0v700h281c105.333 0 191.833 -32.833 259.5 -98.5s101.5 -149.5 101.5 -251.5c0 -102.667 -34.167 -186.667 -102.5 -252s-154.5 -98 -258.5 -98h-281zM189 605v-510h170c72.667 0 132.5 24 179.5 72s70.5 109 70.5 183s-23.5 135 -70.5 183s-106.833 72 -179.5 72
h-170zM298 779l-139 166h102l88 -105l88 105h103l-140 -166h-102z" />
    <glyph glyph-name="dcaron" unicode="&#x10f;" horiz-adv-x="781" 
d="M287 506c65.333 0 119.333 -25.002 162 -75.002v319h106v-750h-106v65c-42.667 -50 -96.667 -75 -162 -75s-119 24.333 -161 73s-63 110.334 -63 185.001s21 136.334 63 185.001s95.667 73 161 73zM308 84.998c40 0 73.167 15.333 99.5 46s39.5 69.667 39.5 117
c0 46.667 -13.167 85.5 -39.5 116.5s-59.5 46.5 -99.5 46.5c-39.333 0 -72.333 -15.5 -99 -46.5s-40 -69.833 -40 -116.5c0 -47.333 13.167 -86.333 39.5 -117s59.5 -46 99.5 -46zM689 534.998h-56c26.667 39.333 40 84.333 40 135c0 28.667 -4.66699 55.334 -14 80.001h92
c4 -16.667 6 -34.334 6 -53.001c0 -66.667 -22.667 -120.667 -68 -162z" />
    <glyph glyph-name="Dcroat" unicode="&#x110;" horiz-adv-x="768" 
d="M78 322h-74v63h74v315h281c105.333 0 191.833 -32.833 259.5 -98.5s101.5 -149.5 101.5 -251.5c0 -102.667 -34.167 -186.667 -102.5 -252s-154.5 -98 -258.5 -98h-281v322zM376 322h-187v-227h170c72.667 0 132.5 24 179.5 72s70.5 109 70.5 183s-23.5 135 -70.5 183
s-106.833 72 -179.5 72h-170v-220h187v-63z" />
    <glyph glyph-name="dcroat" unicode="&#x111;" horiz-adv-x="608" 
d="M267 506c65.333 0 119.333 -25.002 162 -75.002v153h-163v63h163v103h106v-103h82v-63h-82v-584h-106v65c-42.667 -50 -96.667 -75 -162 -75s-119 24.333 -161 73s-63 110.334 -63 185.001s21 136.334 63 185.001s95.667 73 161 73zM288 84.998
c40 0 73.167 15.333 99.5 46s39.5 69.667 39.5 117c0 46.667 -13.167 85.5 -39.5 116.5s-59.5 46.5 -99.5 46.5c-39.333 0 -72.333 -15.5 -99 -46.5s-40 -69.833 -40 -116.5c0 -47.333 13.167 -86.333 39.5 -117s59.5 -46 99.5 -46z" />
    <glyph glyph-name="Emacron" unicode="&#x112;" horiz-adv-x="648" 
d="M78 0v700h516v-95h-405v-205h363v-93h-363v-212h415v-95h-526zM209 913h258v-73h-258v73z" />
    <glyph glyph-name="emacron" unicode="&#x113;" horiz-adv-x="566" 
d="M43 247c0 75.333 23.501 137.333 70.501 186s106.833 73 179.5 73c66 0 120 -19.833 162 -59.5s63 -90.5 63 -152.5c0 -24 -5 -50.333 -15 -79h-355c6 -40 22.5 -71.833 49.5 -95.5s61.5 -35.5 103.5 -35.5c34.667 0 63.5 7.83301 86.5 23.5s35.5 35.5 37.5 59.5h95
c-4.66699 -51.333 -28.334 -93.5 -71.001 -126.5s-95 -49.5 -157 -49.5c-74 0 -134 24 -180 72s-69 109.333 -69 184zM152.001 297l269 -0.00195312c-2 34.667 -14.5 62.834 -37.5 84.501s-52.833 32.5 -89.5 32.5c-35.333 0 -65.833 -10.667 -91.5 -32
s-42.5 -49.666 -50.5 -84.999zM156.001 639.998v74h258v-74h-258z" />
    <glyph glyph-name="Ebreve" unicode="&#x114;" horiz-adv-x="648" 
d="M78 700h516v-95h-405v-205h363v-93h-363v-212h415v-95h-526v700zM176 936h74c0 -21.333 8.5 -39 25.5 -53s38.167 -21 63.5 -21c24.667 0 45.5 7.16699 62.5 21.5s25.5 31.833 25.5 52.5h73c0 -42.667 -15.167 -77.834 -45.5 -105.501s-68.833 -41.5 -115.5 -41.5
c-47.333 0 -86.333 13.833 -117 41.5s-46 62.834 -46 105.501z" />
    <glyph glyph-name="ebreve" unicode="&#x115;" horiz-adv-x="566" 
d="M293 506c66 0 120.001 -19.833 162.001 -59.5s63 -90.5 63 -152.5c0 -24 -5 -50.333 -15 -79h-355c6 -40 22.5 -71.833 49.5 -95.5s61.5 -35.5 103.5 -35.5c34.667 0 63.5 7.83301 86.5 23.5s35.5 35.5 37.5 59.5h95c-4.66699 -51.333 -28.334 -93.5 -71.001 -126.5
s-95 -49.5 -157 -49.5c-74 0 -134 24 -180 72s-69 109.333 -69 184c0 75.333 23.5 137.333 70.5 186s106.833 73 179.5 73zM124.001 736h74.002c0 -21.333 8.5 -39 25.5 -53s37.833 -21 62.5 -21s45.5 7 62.5 21s25.5 31.667 25.5 53h74
c0 -42.667 -15.333 -77.834 -46 -105.501s-69.334 -41.5 -116.001 -41.5s-85.334 13.833 -116.001 41.5s-46 62.834 -46 105.501zM152.003 297l269 -0.00195312c-2 34.667 -14.5 62.834 -37.5 84.501s-52.833 32.5 -89.5 32.5c-35.333 0 -65.833 -10.667 -91.5 -32
s-42.5 -49.666 -50.5 -84.999z" />
    <glyph glyph-name="Edotaccent" unicode="&#x116;" horiz-adv-x="648" 
d="M78 0v700h516v-95h-405v-205h363v-93h-363v-212h415v-95h-526zM273 872c0 18.667 6.16699 34.167 18.5 46.5s28.166 18.5 47.499 18.5c18.667 0 34.167 -6.16699 46.5 -18.5s18.5 -27.833 18.5 -46.5s-6.16699 -34.167 -18.5 -46.5s-27.833 -18.5 -46.5 -18.5
c-19.333 0 -35.166 6.16699 -47.499 18.5s-18.5 27.833 -18.5 46.5z" />
    <glyph glyph-name="edotaccent" unicode="&#x117;" horiz-adv-x="566" 
d="M293 506c66 0 120.001 -19.833 162.001 -59.5s63 -90.5 63 -152.5c0 -24 -5 -50.333 -15 -79h-355c6 -40 22.5 -71.833 49.5 -95.5s61.5 -35.5 103.5 -35.5c34.667 0 63.5 7.83301 86.5 23.5s35.5 35.5 37.5 59.5h95c-4.66699 -51.333 -28.334 -93.5 -71.001 -126.5
s-95 -49.5 -157 -49.5c-74 0 -134 24 -180 72s-69 109.333 -69 184c0 75.333 23.5 137.333 70.5 186s106.833 73 179.5 73zM152.001 297l269 -0.00195312c-2 34.667 -14.5 62.834 -37.5 84.501s-52.833 32.5 -89.5 32.5c-35.333 0 -65.833 -10.667 -91.5 -32
s-42.5 -49.666 -50.5 -84.999zM221.001 671.998c0 18.667 6.16699 34.167 18.5 46.5s27.833 18.5 46.5 18.5s34.167 -6.16699 46.5 -18.5s18.5 -27.833 18.5 -46.5s-6.16699 -34.167 -18.5 -46.5s-27.833 -18.5 -46.5 -18.5s-34.167 6.16699 -46.5 18.5
s-18.5 27.833 -18.5 46.5z" />
    <glyph glyph-name="Eogonek" unicode="&#x118;" horiz-adv-x="648" 
d="M78 0l0.000976562 700.001h516v-95h-405v-205h363v-93h-363v-212h415v-95h-56c-5.33301 -3.33301 -11.833 -7.83301 -19.5 -13.5s-18 -17 -31 -34s-19.5 -33.167 -19.5 -48.5c0 -16.667 6.16699 -29.834 18.5 -39.501s28.166 -14.5 47.499 -14.5c26.667 0 50.667 9 72 27
v-71c-22 -17.333 -49 -26 -81 -26c-38.667 0 -70.167 9.66699 -94.5 29s-36.5 45 -36.5 77c0 21.333 5.83301 41.5 17.5 60.5s23.167 32.833 34.5 41.5l18 12h-396z" />
    <glyph glyph-name="eogonek" unicode="&#x119;" horiz-adv-x="566" 
d="M43 247c0 75.333 23.499 137.333 70.499 186s106.833 73 179.5 73c66 0 120 -19.833 162 -59.5s63 -90.5 63 -152.5c0 -24 -5 -50.333 -15 -79h-355c6 -40 22.5 -71.833 49.5 -95.5s61.5 -35.5 103.5 -35.5c34.667 0 63.5 7.83301 86.5 23.5s35.5 35.5 37.5 59.5h95
c-3.33301 -39.333 -18.666 -73.833 -45.999 -103.5s-62.333 -50.5 -105 -62.5c-38 -28.667 -57 -58 -57 -88c0 -16.667 5.83301 -29.667 17.5 -39s27.5 -14 47.5 -14c28 0 52 9 72 27v-71c-20 -17.333 -47 -26 -81 -26c-38 0 -69.167 9.83301 -93.5 29.5
s-36.5 45.5 -36.5 77.5c0 34 15 65.333 45 94c-72 2 -130 27 -174 75s-66 108.333 -66 181zM151.999 297l269 -0.00195312c-2 34.667 -14.5 62.834 -37.5 84.501s-52.833 32.5 -89.5 32.5c-35.333 0 -65.833 -10.667 -91.5 -32s-42.5 -49.666 -50.5 -84.999z" />
    <glyph glyph-name="Ecaron" unicode="&#x11a;" horiz-adv-x="648" 
d="M78 0v700h516v-95h-405v-205h363v-93h-363v-212h415v-95h-526zM148 945h103l88 -105l88 105h102l-139 -166h-102z" />
    <glyph glyph-name="ecaron" unicode="&#x11b;" horiz-adv-x="566" 
d="M43 247c0 75.333 23.501 137.333 70.501 186s106.833 73 179.5 73c66 0 120 -19.833 162 -59.5s63 -90.5 63 -152.5c0 -24 -5 -50.333 -15 -79h-355c6 -40 22.5 -71.833 49.5 -95.5s61.5 -35.5 103.5 -35.5c34.667 0 63.5 7.83301 86.5 23.5s35.5 35.5 37.5 59.5h95
c-4.66699 -51.333 -28.334 -93.5 -71.001 -126.5s-95 -49.5 -157 -49.5c-74 0 -134 24 -180 72s-69 109.333 -69 184zM235.001 579l-139 167h102l88 -106l88 106h102l-139 -167h-102zM152.001 297l269 -0.00195312c-2 34.667 -14.5 62.834 -37.5 84.501
s-52.833 32.5 -89.5 32.5c-35.333 0 -65.833 -10.667 -91.5 -32s-42.5 -49.666 -50.5 -84.999z" />
    <glyph glyph-name="Gcircumflex" unicode="&#x11c;" horiz-adv-x="758" 
d="M412 710c81.333 0 148.331 -18.333 200.998 -55s79 -85 79 -145c0 -20.667 -4 -40 -12 -58h-102c6 21.333 9 38 9 50c0 33.333 -16.167 59.666 -48.5 78.999s-73.5 29 -123.5 29c-79.333 0 -141.666 -23.833 -186.999 -71.5s-68 -109.167 -68 -184.5
c0 -76.667 23.667 -139.334 71 -188.001s110.333 -73 189 -73c72.667 0 129.667 20 171 60v135h-211v90h312v-282c-65.333 -70.667 -156 -106 -272 -106c-111.333 0 -201.166 33.833 -269.499 101.5s-102.5 154.834 -102.5 261.501c0 104.667 33.167 190.334 99.5 257.001
s154.5 100 264.5 100zM209.998 779l139 166h102l140 -166h-103l-88 106l-88 -106h-102z" />
    <glyph glyph-name="gcircumflex" unicode="&#x11d;" horiz-adv-x="608" 
d="M43 248c0 74.667 21.001 136.331 63.001 184.998s95.667 73 161 73s119.333 -25 162 -75v64h106v-503c0 -76.667 -21.5 -136.167 -64.5 -178.5s-104.833 -63.5 -185.5 -63.5c-68.667 0 -123.834 14.5 -165.501 43.5s-62.5 67.5 -62.5 115.5c0 16.667 3 31 9 43h98
c-4 -8 -6 -17.667 -6 -29c0 -23.333 11.5 -42.166 34.5 -56.499s53.5 -21.5 91.5 -21.5c96.667 0 145 49.333 145 148v72c-42.667 -50 -96.667 -75 -162 -75s-119 24.333 -161 73s-63 110.334 -63 185.001zM289.001 84.9971c40 0 72.999 15.333 98.999 46s39 69.667 39 117
c0 46.667 -13.167 85.5 -39.5 116.5s-59.166 46.5 -98.499 46.5c-40 0 -73.333 -15.5 -100 -46.5s-40 -69.833 -40 -116.5c0 -47.333 13.333 -86.333 40 -117s60 -46 100 -46zM104 578.997l140 166h101l140 -166h-102l-89 106l-87 -106h-103z" />
    <glyph glyph-name="Gbreve" unicode="&#x11e;" horiz-adv-x="758" 
d="M48 353c0 104.667 33.165 190.334 99.498 257.001s154.5 100 264.5 100c81.333 0 148.333 -18.333 201 -55s79 -85 79 -145c0 -20.667 -4 -40 -12 -58h-102c6 21.333 9 38 9 50c0 33.333 -16.167 59.666 -48.5 78.999s-73.5 29 -123.5 29
c-79.333 0 -141.666 -23.833 -186.999 -71.5s-68 -109.167 -68 -184.5c0 -76.667 23.667 -139.334 71 -188.001s110.333 -73 189 -73c72.667 0 129.667 20 171 60v135h-211v90h312v-282c-65.333 -70.667 -156 -106 -272 -106c-111.333 0 -201.166 33.833 -269.499 101.5
s-102.5 154.834 -102.5 261.501zM237.998 936h74.001c0 -21.333 8.5 -39 25.5 -53s38.167 -21 63.5 -21c24.667 0 45.334 7.16699 62.001 21.5s25 31.833 25 52.5h74c0 -42.667 -15.333 -77.834 -46 -105.501s-69.334 -41.5 -116.001 -41.5s-85.334 13.833 -116.001 41.5
s-46 62.834 -46 105.501z" />
    <glyph glyph-name="gbreve" unicode="&#x11f;" horiz-adv-x="608" 
d="M267 506c65.333 0 119.334 -25.0029 162.001 -75.0029v64h106v-503c0 -76.667 -21.5 -136.167 -64.5 -178.5s-104.833 -63.5 -185.5 -63.5c-68.667 0 -123.834 14.5 -165.501 43.5s-62.5 67.5 -62.5 115.5c0 16.667 3 31 9 43h98c-4 -8 -6 -17.667 -6 -29
c0 -23.333 11.5 -42.166 34.5 -56.499s53.5 -21.5 91.5 -21.5c96.667 0 145 49.333 145 148v72c-42.667 -50 -96.667 -75 -162 -75s-119 24.333 -161 73s-63 110.334 -63 185.001s21 136.334 63 185.001s95.667 73 161 73zM149.001 247.997
c0 -47.333 13.332 -86.333 39.999 -117s60 -46 100 -46s73 15.333 99 46s39 69.667 39 117c0 46.667 -13.167 85.5 -39.5 116.5s-59.166 46.5 -98.499 46.5c-40 0 -73.333 -15.5 -100 -46.5s-40 -69.833 -40 -116.5zM132 735.997h74.001c0 -21.333 8.5 -39 25.5 -53
s38.167 -21 63.5 -21c24.667 0 45.334 7.16699 62.001 21.5s25 31.833 25 52.5h74c0 -42.667 -15.333 -77.834 -46 -105.501s-69.334 -41.5 -116.001 -41.5s-85.334 13.833 -116.001 41.5s-46 62.834 -46 105.501z" />
    <glyph glyph-name="Gdotaccent" unicode="&#x120;" horiz-adv-x="758" 
d="M48 353c0 104.667 33.165 190.334 99.498 257.001s154.5 100 264.5 100c81.333 0 148.333 -18.333 201 -55s79 -85 79 -145c0 -20.667 -4 -40 -12 -58h-102c6 21.333 9 38 9 50c0 33.333 -16.167 59.666 -48.5 78.999s-73.5 29 -123.5 29
c-79.333 0 -141.666 -23.833 -186.999 -71.5s-68 -109.167 -68 -184.5c0 -76.667 23.667 -139.334 71 -188.001s110.333 -73 189 -73c72.667 0 129.667 20 171 60v135h-211v90h312v-282c-65.333 -70.667 -156 -106 -272 -106c-111.333 0 -201.166 33.833 -269.499 101.5
s-102.5 154.834 -102.5 261.501zM334.998 872c0 18.667 6.16699 34.167 18.5 46.5s27.833 18.5 46.5 18.5s34.167 -6.16699 46.5 -18.5s18.5 -27.833 18.5 -46.5s-6.16699 -34.167 -18.5 -46.5s-27.833 -18.5 -46.5 -18.5s-34.167 6.16699 -46.5 18.5
s-18.5 27.833 -18.5 46.5z" />
    <glyph glyph-name="gdotaccent" unicode="&#x121;" horiz-adv-x="608" 
d="M267 506c65.333 0 119.334 -25.0029 162.001 -75.0029v64h106v-503c0 -76.667 -21.5 -136.167 -64.5 -178.5s-104.833 -63.5 -185.5 -63.5c-68.667 0 -123.834 14.5 -165.501 43.5s-62.5 67.5 -62.5 115.5c0 16.667 3 31 9 43h98c-4 -8 -6 -17.667 -6 -29
c0 -23.333 11.5 -42.166 34.5 -56.499s53.5 -21.5 91.5 -21.5c96.667 0 145 49.333 145 148v72c-42.667 -50 -96.667 -75 -162 -75s-119 24.333 -161 73s-63 110.334 -63 185.001s21 136.334 63 185.001s95.667 73 161 73zM289.001 84.9971c40 0 72.999 15.333 98.999 46
s39 69.667 39 117c0 46.667 -13.167 85.5 -39.5 116.5s-59.166 46.5 -98.499 46.5c-40 0 -73.333 -15.5 -100 -46.5s-40 -69.833 -40 -116.5c0 -47.333 13.333 -86.333 40 -117s60 -46 100 -46zM229 671.997c0 18.667 6.16699 34.167 18.5 46.5s27.833 18.5 46.5 18.5
c19.333 0 35.166 -6.16699 47.499 -18.5s18.5 -27.833 18.5 -46.5s-6.16699 -34.167 -18.5 -46.5s-28.166 -18.5 -47.499 -18.5c-18.667 0 -34.167 6.16699 -46.5 18.5s-18.5 27.833 -18.5 46.5z" />
    <glyph glyph-name="uni0122" unicode="&#x122;" horiz-adv-x="758" 
d="M48 353c0 104.667 33.165 190.334 99.498 257.001s154.5 100 264.5 100c81.333 0 148.333 -18.333 201 -55s79 -85 79 -145c0 -20.667 -4 -40 -12 -58h-102c6 21.333 9 38 9 50c0 33.333 -16.167 59.666 -48.5 78.999s-73.5 29 -123.5 29
c-79.333 0 -141.666 -23.833 -186.999 -71.5s-68 -109.167 -68 -184.5c0 -76.667 23.667 -139.334 71 -188.001s110.333 -73 189 -73c72.667 0 129.667 20 171 60v135h-211v90h312v-282c-65.333 -70.667 -156 -106 -272 -106c-111.333 0 -201.166 33.833 -269.499 101.5
s-102.5 154.834 -102.5 261.501zM406.998 -223h-54c27.333 30.667 41 64.667 41 102c0 18.667 -4.66699 40 -14 64h83c4 -12.667 6 -26.667 6 -42c0 -50.667 -20.667 -92 -62 -124z" />
    <glyph glyph-name="uni0123" unicode="&#x123;" horiz-adv-x="628" 
d="M287 506c65.333 0 119.334 -25.0029 162.001 -75.0029v64h106v-503c0 -76.667 -21.5 -136.167 -64.5 -178.5s-104.833 -63.5 -185.5 -63.5c-68.667 0 -123.834 14.5 -165.501 43.5s-62.5 67.5 -62.5 115.5c0 16.667 3 31 9 43h98c-4 -8 -6 -17.667 -6 -29
c0 -23.333 11.5 -42.166 34.5 -56.499s53.5 -21.5 91.5 -21.5c96.667 0 145 49.333 145 148v72c-42.667 -50 -96.667 -75 -162 -75s-119 24.333 -161 73s-63 110.334 -63 185.001s21 136.334 63 185.001s95.667 73 161 73zM169.001 247.997
c0 -47.333 13.332 -86.333 39.999 -117s60 -46 100 -46s73 15.333 99 46s39 69.667 39 117c0 46.667 -13.167 85.5 -39.5 116.5s-59.166 46.5 -98.499 46.5c-40 0 -73.333 -15.5 -100 -46.5s-40 -69.833 -40 -116.5zM321 792.997h56c-26.667 -39.333 -40 -84 -40 -134
c0 -28 4.66699 -55 14 -81h-92c-4 17.333 -6 35 -6 53c0 68 22.667 122 68 162z" />
    <glyph glyph-name="Hcircumflex" unicode="&#x124;" horiz-adv-x="776" 
d="M78 0v700h111v-299h398v299h111v-700h-111v305h-398v-305h-111zM300 779h-102l140 166h101l140 -166h-102l-89 106z" />
    <glyph glyph-name="hcircumflex" unicode="&#x125;" horiz-adv-x="596" 
d="M73 0v749.999h106v-317c43.333 48.667 99.333 73 168 73c54.667 0 98.167 -16.333 130.5 -49s48.5 -77 48.5 -133v-324h-106v300c0 34.667 -9.5 61.834 -28.5 81.501s-44.5 29.5 -76.5 29.5c-40 0 -72.667 -14.5 -98 -43.5s-38 -65.833 -38 -110.5v-257h-106z
M-65 784.999l140 166h101l140 -166h-102l-89 105l-87 -105h-103z" />
    <glyph glyph-name="Hbar" unicode="&#x126;" horiz-adv-x="776" 
d="M772 522h-74v-522h-111v305h-398v-305h-111v522h-74v63h74v115h111v-115h398v115h111v-115h74v-63zM587 522h-398v-121h398v121z" />
    <glyph glyph-name="hbar" unicode="&#x127;" horiz-adv-x="596" 
d="M349 584l-170 -0.000976562v-151c43.333 48.667 99.333 73 168 73c54.667 0 98.167 -16.333 130.5 -49s48.5 -77 48.5 -133v-324h-106v300c0 34.667 -9.5 61.834 -28.5 81.501s-44.5 29.5 -76.5 29.5c-40 0 -72.667 -14.5 -98 -43.5s-38 -65.833 -38 -110.5v-257h-106
v584h-77v63h77v103h106v-103h170v-63z" />
    <glyph glyph-name="Itilde" unicode="&#x128;" horiz-adv-x="267" 
d="M78 0v700h111v-700h-111zM30 804h-73c0 36 10.5 65.833 31.5 89.5s47.833 35.5 80.5 35.5c24 0 47.833 -9.33301 71.5 -28s41.167 -28 52.5 -28c12.667 0 23.167 4.83301 31.5 14.5s12.5 21.834 12.5 36.501h73c0 -36 -10.5 -65.833 -31.5 -89.5
s-47.833 -35.5 -80.5 -35.5c-24 0 -47.667 9.33301 -71 28s-41 28 -53 28c-12.667 0 -23.167 -4.83301 -31.5 -14.5s-12.5 -21.834 -12.5 -36.501z" />
    <glyph glyph-name="itilde" unicode="&#x129;" horiz-adv-x="252" 
d="M73 0v495h106v-495h-106zM23 604h-74.001c0 36 10.5 65.833 31.5 89.5s48.167 35.5 81.5 35.5c24 0 47.667 -9.33301 71 -28s41 -28 53 -28s22.167 4.83301 30.5 14.5s12.5 21.834 12.5 36.501h74c0 -36 -10.667 -65.833 -32 -89.5s-48.333 -35.5 -81 -35.5
c-24 0 -47.667 9.33301 -71 28s-40.666 28 -51.999 28c-12.667 0 -23.167 -4.83301 -31.5 -14.5s-12.5 -21.834 -12.5 -36.501z" />
    <glyph glyph-name="Imacron" unicode="&#x12a;" horiz-adv-x="267" 
d="M78 0v700h111v-700h-111zM4 840v73h258v-73h-258z" />
    <glyph glyph-name="imacron" unicode="&#x12b;" horiz-adv-x="252" 
d="M73 0v495h106v-495h-106zM-4 640v73h258v-73h-258z" />
    <glyph glyph-name="Ibreve" unicode="&#x12c;" horiz-adv-x="267" 
d="M189 0h-111v700h111v-700zM-29 936h74.001c0 -21.333 8.5 -39 25.5 -53s38.167 -21 63.5 -21c24.667 0 45.334 7.16699 62.001 21.5s25 31.833 25 52.5h74c0 -42.667 -15.333 -77.834 -46 -105.501s-69.334 -41.5 -116.001 -41.5s-85.334 13.833 -116.001 41.5
s-46 62.834 -46 105.501z" />
    <glyph glyph-name="ibreve" unicode="&#x12d;" horiz-adv-x="252" 
d="M179 0h-106v495h106v-495zM-36 736h73.002c0 -20.667 8.5 -38.167 25.5 -52.5s38.167 -21.5 63.5 -21.5c24.667 0 45.5 7 62.5 21s25.5 31.667 25.5 53h74c0 -42.667 -15.333 -77.834 -46 -105.501s-69.334 -41.5 -116.001 -41.5s-85.334 13.833 -116.001 41.5
s-46 62.834 -46 105.501z" />
    <glyph glyph-name="Iogonek" unicode="&#x12e;" horiz-adv-x="267" 
d="M97 0l-19 0.000976562v700h111v-700h-19l-7.5 -5c-3 -2 -8.5 -6.5 -16.5 -13.5s-15 -14.167 -21 -21.5s-11.5 -16 -16.5 -26s-7.5 -20 -7.5 -30c0 -16.667 6 -29.834 18 -39.501s28 -14.5 48 -14.5c26.667 0 50.667 9 72 27v-71c-22 -17.333 -49.333 -26 -82 -26
c-38 0 -69.167 9.66699 -93.5 29s-36.5 45 -36.5 77c0 21.333 5.83301 41.5 17.5 60.5s23.5 32.833 35.5 41.5z" />
    <glyph glyph-name="iogonek" unicode="&#x12f;" horiz-adv-x="252" 
d="M19 -114c0 21.333 5.83398 41.501 17.501 60.501s23.5 32.833 35.5 41.5l17 12h-16v495h106v-495h-16c-5.33301 -3.33301 -11.833 -7.83301 -19.5 -13.5s-18 -17 -31 -34s-19.5 -33.167 -19.5 -48.5c0 -16.667 6.16699 -29.834 18.5 -39.501s28.166 -14.5 47.499 -14.5
c26.667 0 50.667 9 72 27v-71c-22 -17.333 -49 -26 -81 -26c-38.667 0 -70.167 9.66699 -94.5 29s-36.5 45 -36.5 77zM60.001 672.001c0 18.667 6.16699 34.167 18.5 46.5s28.166 18.5 47.499 18.5c18.667 0 34.167 -6.16699 46.5 -18.5s18.5 -27.833 18.5 -46.5
s-6.16699 -34.167 -18.5 -46.5s-27.833 -18.5 -46.5 -18.5c-19.333 0 -35.166 6.16699 -47.499 18.5s-18.5 27.833 -18.5 46.5z" />
    <glyph glyph-name="Idotaccent" unicode="&#x130;" horiz-adv-x="267" 
d="M78 0v700h111v-700h-111zM68 872c0 18.667 6.16699 34.167 18.5 46.5s27.833 18.5 46.5 18.5c19.333 0 35.166 -6.16699 47.499 -18.5s18.5 -27.833 18.5 -46.5s-6.16699 -34.167 -18.5 -46.5s-28.166 -18.5 -47.499 -18.5c-18.667 0 -34.167 6.16699 -46.5 18.5
s-18.5 27.833 -18.5 46.5z" />
    <glyph glyph-name="dotlessi" unicode="&#x131;" horiz-adv-x="252" 
d="M73 0v495h106v-495h-106z" />
    <glyph glyph-name="IJ" unicode="&#x132;" horiz-adv-x="716" 
d="M296 7v100c25.333 -9.33301 53 -14 83 -14c48 0 86 14.167 114 42.5s42 67.166 42 116.499v448h111v-464c0 -73.333 -23 -132.666 -69 -177.999s-106.667 -68 -182 -68c-42 0 -75 5.66699 -99 17zM189 0h-111v700h111v-700z" />
    <glyph glyph-name="ij" unicode="&#x133;" horiz-adv-x="511" 
d="M235 -230l0.000976562 88c10.667 -5.33301 23 -8 37 -8c18.667 0 33.334 6 44.001 18s16 28.667 16 50v577h106v-612c0 -40.667 -11.333 -72.667 -34 -96s-53.334 -35 -92.001 -35c-28.667 0 -54.334 6 -77.001 18zM73.001 495h106v-495h-106v495zM60.001 672
c0 18.667 6.16699 34.167 18.5 46.5s28.166 18.5 47.499 18.5c18.667 0 34.167 -6.16699 46.5 -18.5s18.5 -27.833 18.5 -46.5s-6.16699 -34.167 -18.5 -46.5s-27.833 -18.5 -46.5 -18.5c-19.333 0 -35.166 6.16699 -47.499 18.5s-18.5 27.833 -18.5 46.5zM385.001 737
c19.333 0 35 -6.16699 47 -18.5s18 -27.833 18 -46.5s-6 -34.167 -18 -46.5s-27.667 -18.5 -47 -18.5s-35 6.16699 -47 18.5s-18 27.833 -18 46.5s6 34.167 18 46.5s27.667 18.5 47 18.5z" />
    <glyph glyph-name="Jcircumflex" unicode="&#x134;" horiz-adv-x="449" 
d="M29 7l-0.000976562 100c26.667 -9.33301 54.334 -14 83.001 -14c48 0 86 14.167 114 42.5s42 67.166 42 116.499v448h111v-464c0 -73.333 -23 -132.666 -69 -177.999s-106.667 -68 -182 -68c-41.333 0 -74.333 5.66699 -99 17zM235.999 779h-103l140 166h101l140 -166
h-102l-89 106z" />
    <glyph glyph-name="jcircumflex" unicode="&#x135;" horiz-adv-x="259" 
d="M-17 -230l-0.000976562 88c10.667 -5.33301 23.334 -8 38.001 -8c18.667 0 33.167 6 43.5 18s15.5 28.667 15.5 50v577h106v-612c0 -40.667 -11.167 -72.667 -33.5 -96s-53.166 -35 -92.499 -35c-28.667 0 -54.334 6 -77.001 18zM45.999 579h-103l140 166h102l139 -166
h-102l-89 106z" />
    <glyph glyph-name="uni0136" unicode="&#x136;" horiz-adv-x="696" 
d="M78 700h111v-329l321 329h139l-279 -288l302 -412h-131l-250 338l-102 -108v-230h-111v700zM335 -121c0 20.667 -4.33301 42 -13 64h83c4 -12.667 6 -26.667 6 -42c0 -50.667 -20.667 -92 -62 -124h-54c26.667 30 40 64 40 102z" />
    <glyph glyph-name="uni0137" unicode="&#x137;" horiz-adv-x="552" 
d="M73 0v750h106v-477l196 222h135l-185 -202l203 -293h-127l-150 219l-72 -82v-137h-106zM274 -223h-54c26.667 30.667 40 64.667 40 102c0 18.667 -4.66699 40 -14 64h84c4 -16 6 -30 6 -42c0 -50.667 -20.667 -92 -62 -124z" />
    <glyph glyph-name="Lacute" unicode="&#x139;" horiz-adv-x="594" 
d="M78 0v700h111v-605h381v-95h-492zM75 779l114 166h124l-155 -166h-83z" />
    <glyph glyph-name="lacute" unicode="&#x13a;" horiz-adv-x="283" 
d="M73 103v646.999h106v-620c0 -15.333 4.16699 -27.5 12.5 -36.5s19.5 -13.5 33.5 -13.5c13.333 0 24.333 2.33301 33 7v-77c-22 -12 -46.333 -18 -73 -18c-34.667 0 -62 9.83301 -82 29.5s-30 46.834 -30 81.501zM68 783.999l114 166h123l-155 -166h-82z" />
    <glyph glyph-name="uni013B" unicode="&#x13b;" horiz-adv-x="594" 
d="M78 0v700h111v-605h381v-95h-492zM320 -223h-54c26.667 30 40 64 40 102c0 20.667 -4.33301 42 -13 64h83c4 -12.667 6 -26.667 6 -42c0 -50.667 -20.667 -92 -62 -124z" />
    <glyph glyph-name="uni013C" unicode="&#x13c;" horiz-adv-x="283" 
d="M73 103v646.999h106v-620c0 -15.333 4.16699 -27.5 12.5 -36.5s19.5 -13.5 33.5 -13.5c13.333 0 24.333 2.33301 33 7v-77c-22 -12 -46.333 -18 -73 -18c-34.667 0 -62 9.83301 -82 29.5s-30 46.834 -30 81.501zM161 -223.001l-53 -0.000976562
c26.667 30.667 40 64.667 40 102c0 18.667 -4.66699 40 -14 64h83c4.66699 -14.667 7 -28.667 7 -42c0 -51.333 -21 -92.666 -63 -123.999z" />
    <glyph glyph-name="Lcaron" unicode="&#x13d;" horiz-adv-x="594" 
d="M78 0v700h111v-605h381v-95h-492zM388 485h-56c26.667 39.333 40 84.333 40 135c0 28.667 -4.66699 55.334 -14 80.001h92c4 -16.667 6 -34.334 6 -53.001c0 -66.667 -22.667 -120.667 -68 -162z" />
    <glyph glyph-name="lcaron" unicode="&#x13e;" horiz-adv-x="405" 
d="M73 103v646.999h106v-620c0 -15.333 4.16699 -27.5 12.5 -36.5s19.5 -13.5 33.5 -13.5c13.333 0 24.333 2.33301 33 7v-77c-22 -12 -46.333 -18 -73 -18c-34.667 0 -62 9.83301 -82 29.5s-30 46.834 -30 81.501zM313 534.999h-56c26.667 39.333 40 84.333 40 135
c0 28.667 -4.66699 55.334 -14 80.001h92c4 -16.667 6 -34.334 6 -53.001c0 -66.667 -22.667 -120.667 -68 -162z" />
    <glyph glyph-name="Ldot" unicode="&#x13f;" horiz-adv-x="594" 
d="M78 0v700h111v-605h381v-95h-492zM360 368c0 20.667 6.66699 37.5 20 50.5s30 19.5 50 19.5c20.667 0 37.667 -6.5 51 -19.5s20 -29.833 20 -50.5s-6.66699 -37.667 -20 -51s-30.333 -20 -51 -20c-20 0 -36.667 6.66699 -50 20s-20 30.333 -20 51z" />
    <glyph glyph-name="ldot" unicode="&#x140;" horiz-adv-x="451" 
d="M73 103v646.999h106v-620c0 -15.333 4.16699 -27.5 12.5 -36.5s19.5 -13.5 33.5 -13.5c13.333 0 24.333 2.33301 33 7v-77c-22 -12 -46.333 -18 -73 -18c-34.667 0 -62 9.83301 -82 29.5s-30 46.834 -30 81.501zM281 364.999c0 20.667 6.66699 37.667 20 51
s30.333 20 51 20c20 0 36.667 -6.66699 50 -20s20 -30.333 20 -51c0 -20 -6.66699 -36.667 -20 -50s-30 -20 -50 -20c-20.667 0 -37.667 6.66699 -51 20s-20 30 -20 50z" />
    <glyph glyph-name="Lslash" unicode="&#x141;" horiz-adv-x="610" 
d="M0 326l94 54v320h111v-256l97 56l31 -55l-128 -74v-276h381v-95h-492v307l-62 -36z" />
    <glyph glyph-name="lslash" unicode="&#x142;" horiz-adv-x="294" 
d="M0 331l86 49.999v369h106v-308l64 37l32 -54l-96 -56v-239c0 -15.333 4.16699 -27.5 12.5 -36.5s19.5 -13.5 33.5 -13.5c13.333 0 24.333 2.33301 33 7v-77c-20.667 -12 -44.667 -18 -72 -18c-35.333 0 -63 9.83301 -83 29.5s-30 46.834 -30 81.501v204l-54 -31z" />
    <glyph glyph-name="Nacute" unicode="&#x143;" horiz-adv-x="780" 
d="M78 700h73l443 -505v505h109v-700h-77l-440 506v-506h-108v700zM331 779l114 166h123l-155 -166h-82z" />
    <glyph glyph-name="nacute" unicode="&#x144;" horiz-adv-x="596" 
d="M73 495l105.999 -0.000976562v-68c43.333 52.667 100 79 170 79c54.667 0 97.834 -16.333 129.501 -49s47.5 -77 47.5 -133v-324h-106v300c0 34.667 -9.5 61.834 -28.5 81.501s-44.5 29.5 -76.5 29.5c-40 0 -72.667 -14.5 -98 -43.5s-38 -65.833 -38 -110.5v-257h-106
v495zM317.999 578.999h-82l114 166h124z" />
    <glyph glyph-name="uni0145" unicode="&#x145;" horiz-adv-x="780" 
d="M78 700h73l443 -505v505h109v-700h-77l-440 506v-506h-108v700zM378 -223h-54c26.667 30.667 40 64.667 40 102c0 18.667 -4.66699 40 -14 64h84c4 -16 6 -30 6 -42c0 -50.667 -20.667 -92 -62 -124z" />
    <glyph glyph-name="uni0146" unicode="&#x146;" horiz-adv-x="596" 
d="M179 0l-106.001 -0.000976562v495h106v-68c43.333 52.667 100 79 170 79c54.667 0 97.834 -16.333 129.501 -49s47.5 -77 47.5 -133v-324h-106v300c0 34.667 -9.5 61.834 -28.5 81.501s-44.5 29.5 -76.5 29.5c-40 0 -72.667 -14.5 -98 -43.5s-38 -65.833 -38 -110.5v-257
zM284.999 -223.001h-53c26.667 30.667 40 64.667 40 102c0 18.667 -4.66699 40 -14 64h83c4 -12.667 6 -26.667 6 -42c0 -50.667 -20.667 -92 -62 -124z" />
    <glyph glyph-name="Ncaron" unicode="&#x147;" horiz-adv-x="780" 
d="M78 0v700h73l443 -505v505h109v-700h-77l-440 506v-506h-108zM199 945h102l88 -105l88 105h103l-140 -166h-102z" />
    <glyph glyph-name="ncaron" unicode="&#x148;" horiz-adv-x="596" 
d="M179 0l-106.001 -0.000976562v495h106v-68c43.333 52.667 100 79 170 79c54.667 0 97.834 -16.333 129.501 -49s47.5 -77 47.5 -133v-324h-106v300c0 34.667 -9.5 61.834 -28.5 81.501s-44.5 29.5 -76.5 29.5c-40 0 -72.667 -14.5 -98 -43.5s-38 -65.833 -38 -110.5v-257
zM243.999 578.999l-140 166h103l87 -105l89 105h102l-140 -166h-101z" />
    <glyph glyph-name="Eng" unicode="&#x14a;" horiz-adv-x="780" 
d="M78 700l73 -0.000976562l443 -505v505h109v-704c0 -73.333 -23 -132.666 -69 -177.999s-106.667 -68 -182 -68c-42 0 -75 5.66699 -99 17v99c24 -8.66699 51.667 -13 83 -13c48 0 85.833 14.167 113.5 42.5s41.5 66.833 41.5 115.5v25l-405 470v-506h-108v700z" />
    <glyph glyph-name="eng" unicode="&#x14b;" horiz-adv-x="596" 
d="M179 0l-106 -0.000976562v495h106v-68c43.333 52.667 100 79 170 79c54.667 0 97.834 -16.333 129.501 -49s47.5 -77 47.5 -133v-441c0 -40.667 -11.333 -72.667 -34 -96s-53.334 -35 -92.001 -35c-28.667 0 -54.334 6 -77.001 18v88c10.667 -5.33301 23 -8 37 -8
c18.667 0 33.334 6 44.001 18s16 28.667 16 50v382c0 34.667 -9.5 61.834 -28.5 81.501s-44.5 29.5 -76.5 29.5c-40 0 -72.667 -14.5 -98 -43.5s-38 -65.833 -38 -110.5v-257z" />
    <glyph glyph-name="Omacron" unicode="&#x14c;" horiz-adv-x="798" 
d="M48 350c0 104.667 33 190.834 99 258.501s150 101.5 252 101.5s186 -33.833 252 -101.5s99 -153.834 99 -258.501s-33 -190.834 -99 -258.501s-150 -101.5 -252 -101.5s-186 33.833 -252 101.5s-99 153.834 -99 258.501zM160 350c0 -74.667 22.5 -136.167 67.5 -184.5
s102.167 -72.5 171.5 -72.5s126.5 24.167 171.5 72.5s67.5 109.833 67.5 184.5s-22.5 136.167 -67.5 184.5s-102.167 72.5 -171.5 72.5s-126.5 -24.167 -171.5 -72.5s-67.5 -109.833 -67.5 -184.5zM269 840v73h258v-73h-258z" />
    <glyph glyph-name="omacron" unicode="&#x14d;" horiz-adv-x="583" 
d="M43 248c0 74.667 23.5 136.334 70.5 185.001s106.5 73 178.5 73s131.333 -24.333 178 -73s70 -110.334 70 -185.001s-23.333 -136.334 -70 -185.001s-106 -73 -178 -73s-131.5 24.333 -178.5 73s-70.5 110.334 -70.5 185.001zM149 248c0 -47.333 13.5 -86.333 40.5 -117
s61.167 -46 102.5 -46s75.333 15.333 102 46s40 69.667 40 117s-13.5 86.333 -40.5 117s-60.833 46 -101.5 46c-41.333 0 -75.5 -15.333 -102.5 -46s-40.5 -69.667 -40.5 -117zM162 634v74h258v-74h-258z" />
    <glyph glyph-name="Obreve" unicode="&#x14e;" horiz-adv-x="798" 
d="M399 710c102 0 186 -33.833 252 -101.5s99 -153.834 99 -258.501s-33 -190.834 -99 -258.501s-150 -101.5 -252 -101.5s-186 33.833 -252 101.5s-99 153.834 -99 258.501s33 190.834 99 258.501s150 101.5 252 101.5zM399 93c69.333 0 126.5 24.167 171.5 72.5
s67.5 109.833 67.5 184.5s-22.5 136.167 -67.5 184.5s-102.167 72.5 -171.5 72.5s-126.5 -24.167 -171.5 -72.5s-67.5 -109.833 -67.5 -184.5s22.5 -136.167 67.5 -184.5s102.167 -72.5 171.5 -72.5zM237 936h73.002c0 -20.667 8.5 -38.167 25.5 -52.5
s38.167 -21.5 63.5 -21.5c24.667 0 45.5 7 62.5 21s25.5 31.667 25.5 53h74c0 -42.667 -15.333 -77.834 -46 -105.501s-69.334 -41.5 -116.001 -41.5s-85.334 13.833 -116.001 41.5s-46 62.834 -46 105.501z" />
    <glyph glyph-name="obreve" unicode="&#x14f;" horiz-adv-x="583" 
d="M43 248c0 74.667 23.5 136.334 70.5 185.001s106.5 73 178.5 73s131.333 -24.333 178 -73s70 -110.334 70 -185.001s-23.333 -136.334 -70 -185.001s-106 -73 -178 -73s-131.5 24.333 -178.5 73s-70.5 110.334 -70.5 185.001zM149 248c0 -47.333 13.5 -86.333 40.5 -117
s61.167 -46 102.5 -46s75.333 15.333 102 46s40 69.667 40 117s-13.5 86.333 -40.5 117s-60.833 46 -101.5 46c-41.333 0 -75.5 -15.333 -102.5 -46s-40.5 -69.667 -40.5 -117zM129 730h74c0 -20.667 8.5 -38 25.5 -52s38.167 -21 63.5 -21c24.667 0 45.5 7 62.5 21
s25.5 31.333 25.5 52h73c0 -42.667 -15.167 -77.667 -45.5 -105s-68.833 -41 -115.5 -41c-47.333 0 -86.333 13.667 -117 41s-46 62.333 -46 105z" />
    <glyph glyph-name="Ohungarumlaut" unicode="&#x150;" horiz-adv-x="798" 
d="M48 350c0 104.667 33 190.834 99 258.501s150 101.5 252 101.5s186 -33.833 252 -101.5s99 -153.834 99 -258.501s-33 -190.834 -99 -258.501s-150 -101.5 -252 -101.5s-186 33.833 -252 101.5s-99 153.834 -99 258.501zM160 350c0 -74.667 22.5 -136.167 67.5 -184.5
s102.167 -72.5 171.5 -72.5s126.5 24.167 171.5 72.5s67.5 109.833 67.5 184.5s-22.5 136.167 -67.5 184.5s-102.167 72.5 -171.5 72.5s-126.5 -24.167 -171.5 -72.5s-67.5 -109.833 -67.5 -184.5zM325 779h-80l114 166h105zM439 779l114 166h105l-140 -166h-79z" />
    <glyph glyph-name="ohungarumlaut" unicode="&#x151;" horiz-adv-x="583" 
d="M43 248c0 74.667 23.5 136.334 70.5 185.001s106.5 73 178.5 73s131.333 -24.333 178 -73s70 -110.334 70 -185.001s-23.333 -136.334 -70 -185.001s-106 -73 -178 -73s-131.5 24.333 -178.5 73s-70.5 110.334 -70.5 185.001zM292 85c41.333 0 75.333 15.333 102 46
s40 69.667 40 117s-13.5 86.333 -40.5 117s-60.833 46 -101.5 46c-41.333 0 -75.5 -15.333 -102.5 -46s-40.5 -69.667 -40.5 -117s13.5 -86.333 40.5 -117s61.167 -46 102.5 -46zM331 574l115 166h105l-140 -166h-80zM218 574h-80l114 166h105z" />
    <glyph glyph-name="OE" unicode="&#x152;" horiz-adv-x="1142" 
d="M389 708c82.667 0 150.334 -25.667 203.001 -77v69h497v-95h-386v-205h343v-93h-343v-212h396v-95h-507v69c-52.667 -51.333 -120.334 -77 -203.001 -77c-98 0 -179.333 33.667 -244 101s-97 153 -97 257s32.333 189.667 97 257s146 101 244 101zM160 350
c0 -74.667 22.5 -136.166 67.5 -184.499s101.833 -72.5 170.5 -72.5c41.333 0 78.833 9 112.5 27s60.834 43.333 81.501 76v306c-20.667 33.333 -47.834 59.166 -81.501 77.499s-71.167 27.5 -112.5 27.5c-68.667 0 -125.5 -24.167 -170.5 -72.5
s-67.5 -109.833 -67.5 -184.5z" />
    <glyph glyph-name="oe" unicode="&#x153;" horiz-adv-x="958" 
d="M44 249c0 74.667 23.001 136.166 69.001 184.499s104.667 72.5 176 72.5c42.667 0 81.167 -9.83301 115.5 -29.5s61.5 -46.834 81.5 -81.501c20.667 34.667 48.167 61.834 82.5 81.501s73.5 29.5 117.5 29.5c66 0 119.667 -19.833 161 -59.5s62 -90.5 62 -152.5
c0 -24 -5 -50.333 -15 -79h-355c6 -40 22.5 -71.833 49.5 -95.5s61.5 -35.5 103.5 -35.5c34.667 0 63.5 7.83301 86.5 23.5s35.5 35.5 37.5 59.5h95c-4.66699 -51.333 -28.167 -93.5 -70.5 -126.5s-93.833 -49.5 -154.5 -49.5c-44.667 0 -84.334 9.83301 -119.001 29.5
s-62 46.5 -82 80.5c-20 -34 -47.167 -60.833 -81.5 -80.5s-72.5 -29.5 -114.5 -29.5c-71.333 0 -130 24.333 -176 73s-69 110.334 -69 185.001zM292.001 410.999c-41.333 0 -75.333 -15.335 -102 -46.002s-40 -69.334 -40 -116.001c0 -47.333 13.333 -86.166 40 -116.499
s60.667 -45.5 102 -45.5s75.333 15.333 102 46s40 69.334 40 116.001s-13.5 85.334 -40.5 116.001s-60.833 46 -101.5 46zM543.001 296.997h269.002c-2.66699 35.333 -15.334 63.666 -38.001 84.999s-52.334 32 -89.001 32c-35.333 0 -65.833 -10.667 -91.5 -32
s-42.5 -49.666 -50.5 -84.999z" />
    <glyph glyph-name="Racute" unicode="&#x154;" horiz-adv-x="693" 
d="M78 700l311.001 0.00195312c70.667 0 128 -19.333 172 -58s66 -88.334 66 -149.001c0 -42.667 -11.333 -80.334 -34 -113.001s-54 -57 -94 -73c13.333 -10 23.666 -23 30.999 -39l132 -268h-115l-123 249c-8.66699 17.333 -24 26 -46 26h-189v-275h-111v700z
M189.001 370.002h199c38.667 0 69.5 11 92.5 33s34.5 50 34.5 84c0 34.667 -11.5 63 -34.5 85s-53.833 33 -92.5 33h-199v-235zM359.001 779.002h-82l114 166h123z" />
    <glyph glyph-name="racute" unicode="&#x155;" horiz-adv-x="393" 
d="M73 495l105.999 -0.000976562v-100c45.333 74 108.333 111 189 111v-101c-55.333 0 -100.666 -17.667 -135.999 -53s-53 -80.666 -53 -135.999v-216h-106v495zM234.999 578.999h-83l114 166h124z" />
    <glyph glyph-name="uni0156" unicode="&#x156;" horiz-adv-x="693" 
d="M78 700l311.001 0.00195312c70.667 0 128 -19.333 172 -58s66 -88.334 66 -149.001c0 -42.667 -11.333 -80.334 -34 -113.001s-54 -57 -94 -73c13.333 -10 23.666 -23 30.999 -39l132 -268h-115l-123 249c-8.66699 17.333 -24 26 -46 26h-189v-275h-111v700z
M388.001 605.002h-199v-235h199c38.667 0 69.5 11 92.5 33s34.5 50 34.5 84c0 34.667 -11.5 63 -34.5 85s-53.833 33 -92.5 33zM351.001 -222.998h-54c26.667 30 40 64 40 102c0 20.667 -4.33301 42 -13 64h83c4 -12.667 6 -26.667 6 -42c0 -50.667 -20.667 -92 -62 -124z
" />
    <glyph glyph-name="uni0157" unicode="&#x157;" horiz-adv-x="393" 
d="M73 495l105.999 -0.000976562v-100c45.333 74 108.333 111 189 111v-101c-55.333 0 -100.666 -17.667 -135.999 -53s-53 -80.666 -53 -135.999v-216h-106v495zM97.999 -121.001c0 18.667 -4.66699 40 -14 64h84c4 -16 6 -30 6 -42c0 -50.667 -20.667 -92 -62 -124h-54
c26.667 30 40 64 40 102z" />
    <glyph glyph-name="Rcaron" unicode="&#x158;" horiz-adv-x="693" 
d="M78 0l0.000976562 700.002h311c70.667 0 128 -19.333 172 -58s66 -88.334 66 -149.001c0 -42.667 -11.333 -80.334 -34 -113.001s-54 -57 -94 -73c13.333 -10 23.666 -23 30.999 -39l132 -268h-115l-123 249c-8.66699 17.333 -24 26 -46 26h-189v-275h-111z
M388.001 605.002h-199v-235h199c38.667 0 69.5 11 92.5 33s34.5 50 34.5 84c0 34.667 -11.5 63 -34.5 85s-53.833 33 -92.5 33zM284.001 779.002l-139 166h102l88 -105l88 105h103l-140 -166h-102z" />
    <glyph glyph-name="rcaron" unicode="&#x159;" horiz-adv-x="393" 
d="M73 0l-0.000976562 494.999h106v-100c45.333 74 108.333 111 189 111v-101c-55.333 0 -100.666 -17.667 -135.999 -53s-53 -80.666 -53 -135.999v-216h-106zM19.999 744.999h103l88 -105l88 105h102l-139 -166h-102z" />
    <glyph glyph-name="Sacute" unicode="&#x15a;" horiz-adv-x="686" 
d="M63 237h104.999c-6 -14 -9 -28 -9 -42c0 -32.667 17 -58.667 51 -78s80 -29 138 -29c54.667 0 98.334 9.16699 131.001 27.5s49 42.833 49 73.5c0 31.333 -17.5 55.333 -52.5 72s-83.167 29.667 -144.5 39c-89.333 14.667 -156.5 37.334 -201.5 68.001
s-67.5 75.334 -67.5 134.001c0 63.333 24.5 113.833 73.5 151.5s114.5 56.5 196.5 56.5c81.333 0 147.5 -17.667 198.5 -53s76.5 -81 76.5 -137c0 -18.667 -4 -37.334 -12 -56.001h-106c5.33301 13.333 8 27 8 41c0 32.667 -14.833 58.667 -44.5 78s-70.167 29 -121.5 29
c-48.667 0 -87.667 -9 -117 -27s-44 -41.667 -44 -71c0 -32 16.5 -55.833 49.5 -71.5s81.167 -28.167 144.5 -37.5c88 -12 155.333 -34.167 202 -66.5s70 -78.5 70 -138.5c0 -64.667 -26.167 -115.834 -78.5 -153.501s-122.833 -56.5 -211.5 -56.5
c-87.333 0 -158.5 17.833 -213.5 53.5s-82.5 81.5 -82.5 137.5c0 19.333 4.33301 38 13 56zM283.999 779l114 166h124l-155 -166h-83z" />
    <glyph glyph-name="sacute" unicode="&#x15b;" horiz-adv-x="517" 
d="M49 173l95 0.00292969c-4 -10 -6 -19 -6 -27c0 -20 10.667 -35.833 32 -47.5s50.666 -17.5 87.999 -17.5c35.333 0 63.666 5.16699 84.999 15.5s32 24.166 32 41.499c0 9.33301 -3.16699 17.333 -9.5 24s-17.166 12.667 -32.499 18s-28.666 9.33301 -39.999 12
s-29.333 6.66699 -54 12c-24.667 4.66699 -43.334 8.5 -56.001 11.5s-29 8.33301 -49 16s-35.167 16 -45.5 25s-19.5 21.167 -27.5 36.5s-12 33.333 -12 54c0 48.667 18.667 87.334 56 116.001s86.666 43 147.999 43c60 0 108.833 -13.333 146.5 -40s56.5 -61 56.5 -103
c0 -12.667 -3 -26 -9 -40h-95c4 10 6 19 6 27c0 20 -9.33301 35.667 -28 47s-44.667 17 -78 17c-30.667 0 -55.334 -5 -74.001 -15s-28 -23.333 -28 -40c0 -10 2.83301 -18.333 8.5 -25s16.334 -12.667 32.001 -18s28.334 -9.16602 38.001 -11.499
s27.167 -5.83301 52.5 -10.5c18.667 -4 31.834 -6.83301 39.501 -8.5s20 -4.83398 37 -9.50098s29.667 -9 38 -13s18.666 -9.83301 30.999 -17.5s21.5 -15.834 27.5 -24.501s11.333 -19.334 16 -32.001s7 -26.334 7 -41.001c0 -48.667 -20.167 -87.334 -60.5 -116.001
s-93.166 -43 -158.499 -43c-64 0 -116.333 13.333 -157 40s-61 61 -61 103c0 14.667 3 28.334 9 41.001zM193 579.003l114 167h124l-156 -167h-82z" />
    <glyph glyph-name="Scircumflex" unicode="&#x15c;" horiz-adv-x="686" 
d="M63 237h104.999c-6 -14 -9 -28 -9 -42c0 -32.667 17 -58.667 51 -78s80 -29 138 -29c54.667 0 98.334 9.16699 131.001 27.5s49 42.833 49 73.5c0 31.333 -17.5 55.333 -52.5 72s-83.167 29.667 -144.5 39c-89.333 14.667 -156.5 37.334 -201.5 68.001
s-67.5 75.334 -67.5 134.001c0 63.333 24.5 113.833 73.5 151.5s114.5 56.5 196.5 56.5c81.333 0 147.5 -17.667 198.5 -53s76.5 -81 76.5 -137c0 -18.667 -4 -37.334 -12 -56.001h-106c5.33301 13.333 8 27 8 41c0 32.667 -14.833 58.667 -44.5 78s-70.167 29 -121.5 29
c-48.667 0 -87.667 -9 -117 -27s-44 -41.667 -44 -71c0 -32 16.5 -55.833 49.5 -71.5s81.167 -28.167 144.5 -37.5c88 -12 155.333 -34.167 202 -66.5s70 -78.5 70 -138.5c0 -64.667 -26.167 -115.834 -78.5 -153.501s-122.833 -56.5 -211.5 -56.5
c-87.333 0 -158.5 17.833 -213.5 53.5s-82.5 81.5 -82.5 137.5c0 19.333 4.33301 38 13 56zM254.999 779h-103l140 166h102l139 -166h-102l-89 106z" />
    <glyph glyph-name="scircumflex" unicode="&#x15d;" horiz-adv-x="517" 
d="M49 173l95 0.00292969c-4 -10 -6 -19 -6 -27c0 -20 10.667 -35.833 32 -47.5s50.666 -17.5 87.999 -17.5c35.333 0 63.666 5.16699 84.999 15.5s32 24.166 32 41.499c0 9.33301 -3.16699 17.333 -9.5 24s-17.166 12.667 -32.499 18s-28.666 9.33301 -39.999 12
s-29.333 6.66699 -54 12c-24.667 4.66699 -43.334 8.5 -56.001 11.5s-29 8.33301 -49 16s-35.167 16 -45.5 25s-19.5 21.167 -27.5 36.5s-12 33.333 -12 54c0 48.667 18.667 87.334 56 116.001s86.666 43 147.999 43c60 0 108.833 -13.333 146.5 -40s56.5 -61 56.5 -103
c0 -12.667 -3 -26 -9 -40h-95c4 10 6 19 6 27c0 20 -9.33301 35.667 -28 47s-44.667 17 -78 17c-30.667 0 -55.334 -5 -74.001 -15s-28 -23.333 -28 -40c0 -10 2.83301 -18.333 8.5 -25s16.334 -12.667 32.001 -18s28.334 -9.16602 38.001 -11.499
s27.167 -5.83301 52.5 -10.5c18.667 -4 31.834 -6.83301 39.501 -8.5s20 -4.83398 37 -9.50098s29.667 -9 38 -13s18.666 -9.83301 30.999 -17.5s21.5 -15.834 27.5 -24.501s11.333 -19.334 16 -32.001s7 -26.334 7 -41.001c0 -48.667 -20.167 -87.334 -60.5 -116.001
s-93.166 -43 -158.499 -43c-64 0 -116.333 13.333 -157 40s-61 61 -61 103c0 14.667 3 28.334 9 41.001zM163 579.003h-102l139 167h102l139 -167h-102l-88 106z" />
    <glyph glyph-name="Scedilla" unicode="&#x15e;" horiz-adv-x="686" 
d="M50 181c0 19.333 4.33398 37.9951 13.001 55.9951h105c-6 -14 -9 -28 -9 -42c0 -32.667 17 -58.667 51 -78s80 -29 138 -29c54.667 0 98.334 9.16699 131.001 27.5s49 42.833 49 73.5c0 31.333 -17.5 55.333 -52.5 72s-83.167 29.667 -144.5 39
c-89.333 14.667 -156.5 37.334 -201.5 68.001s-67.5 75.334 -67.5 134.001c0 63.333 24.5 113.833 73.5 151.5s114.5 56.5 196.5 56.5c81.333 0 147.5 -17.667 198.5 -53s76.5 -81 76.5 -137c0 -18.667 -4 -37.334 -12 -56.001h-106c5.33301 13.333 8 27 8 41
c0 32.667 -14.833 58.667 -44.5 78s-70.167 29 -121.5 29c-48.667 0 -87.667 -9 -117 -27s-44 -41.667 -44 -71c0 -32 16.5 -55.833 49.5 -71.5s81.167 -28.167 144.5 -37.5c88 -12 155.333 -34.167 202 -66.5s70 -78.5 70 -138.5c0 -60.667 -23.333 -109.5 -70 -146.5
s-109.667 -57.833 -189 -62.5l-3 -34c28 -4.66699 50.833 -15.667 68.5 -33s26.5 -37.666 26.5 -60.999c0 -28.667 -12.167 -52.334 -36.5 -71.001s-54.833 -28 -91.5 -28c-34.667 0 -62.834 8.33301 -84.501 25s-32.5 37.334 -32.5 62.001c0 9.33301 2.33301 18 7 26h68
c-3.33301 -5.33301 -5 -10.666 -5 -15.999c0 -10 4.5 -18.167 13.5 -24.5s20.5 -9.5 34.5 -9.5c15.333 0 28.166 3.66699 38.499 11s15.5 16.333 15.5 27c0 14 -8.33301 25.167 -25 33.5s-38.334 12.5 -65.001 12.5l8 80c-79.333 4.66699 -143.166 24.334 -191.499 59.001
s-72.5 78.334 -72.5 131.001z" />
    <glyph glyph-name="scedilla" unicode="&#x15f;" horiz-adv-x="517" 
d="M40 132c0 14.667 3 28.335 9 41.002h95c-4 -10 -6 -19 -6 -27c0 -20 10.667 -35.833 32 -47.5s50.666 -17.5 87.999 -17.5c35.333 0 63.666 5.16699 84.999 15.5s32 24.166 32 41.499c0 9.33301 -3.16699 17.333 -9.5 24s-17.166 12.667 -32.499 18
s-28.666 9.33301 -39.999 12s-29.333 6.66699 -54 12c-24.667 4.66699 -43.334 8.5 -56.001 11.5s-29 8.33301 -49 16s-35.167 16 -45.5 25s-19.5 21.167 -27.5 36.5s-12 33.333 -12 54c0 48.667 18.667 87.334 56 116.001s86.666 43 147.999 43
c60 0 108.833 -13.333 146.5 -40s56.5 -61 56.5 -103c0 -12.667 -3 -26 -9 -40h-95c4 10 6 19 6 27c0 20 -9.33301 35.667 -28 47s-44.667 17 -78 17c-30.667 0 -55.334 -5 -74.001 -15s-28 -23.333 -28 -40c0 -10 2.83301 -18.333 8.5 -25s16.334 -12.667 32.001 -18
s28.334 -9.16602 38.001 -11.499s27.167 -5.83301 52.5 -10.5c18.667 -4 31.834 -6.83301 39.501 -8.5s20 -4.83398 37 -9.50098s29.667 -9 38 -13s18.666 -9.83301 30.999 -17.5s21.5 -15.834 27.5 -24.501s11.333 -19.334 16 -32.001s7 -26.334 7 -41.001
c0 -44.667 -17.167 -81 -51.5 -109s-80.166 -44.333 -137.499 -49l-3 -33c28.667 -4 51.834 -14.833 69.501 -32.5s26.5 -38.167 26.5 -61.5c0 -28.667 -12.167 -52.5 -36.5 -71.5s-54.833 -28.5 -91.5 -28.5c-34.667 0 -62.834 8.33301 -84.501 25
s-32.5 37.334 -32.5 62.001c0 10.667 2.33301 19.667 7 27h68c-3.33301 -5.33301 -5 -10.666 -5 -15.999c0 -10 4.5 -18.333 13.5 -25s20.5 -10 34.5 -10c15.333 0 28 3.66699 38 11s15 16.666 15 27.999c0 14 -8.33301 25.167 -25 33.5s-38 12.5 -64 12.5l7 79
c-55.333 5.33301 -100 20.833 -134 46.5s-51 57.5 -51 95.5z" />
    <glyph glyph-name="Scaron" unicode="&#x160;" horiz-adv-x="686" 
d="M63 237h104.999c-6 -14 -9 -28 -9 -42c0 -32.667 17 -58.667 51 -78s80 -29 138 -29c54.667 0 98.334 9.16699 131.001 27.5s49 42.833 49 73.5c0 31.333 -17.5 55.333 -52.5 72s-83.167 29.667 -144.5 39c-89.333 14.667 -156.5 37.334 -201.5 68.001
s-67.5 75.334 -67.5 134.001c0 63.333 24.5 113.833 73.5 151.5s114.5 56.5 196.5 56.5c81.333 0 147.5 -17.667 198.5 -53s76.5 -81 76.5 -137c0 -18.667 -4 -37.334 -12 -56.001h-106c5.33301 13.333 8 27 8 41c0 32.667 -14.833 58.667 -44.5 78s-70.167 29 -121.5 29
c-48.667 0 -87.667 -9 -117 -27s-44 -41.667 -44 -71c0 -32 16.5 -55.833 49.5 -71.5s81.167 -28.167 144.5 -37.5c88 -12 155.333 -34.167 202 -66.5s70 -78.5 70 -138.5c0 -64.667 -26.167 -115.834 -78.5 -153.501s-122.833 -56.5 -211.5 -56.5
c-87.333 0 -158.5 17.833 -213.5 53.5s-82.5 81.5 -82.5 137.5c0 19.333 4.33301 38 13 56zM151.999 945h103l87 -105l89 105h102l-139 -166h-102z" />
    <glyph glyph-name="scaron" unicode="&#x161;" horiz-adv-x="517" 
d="M49 173l95 0.00292969c-4 -10 -6 -19 -6 -27c0 -20 10.667 -35.833 32 -47.5s50.666 -17.5 87.999 -17.5c35.333 0 63.666 5.16699 84.999 15.5s32 24.166 32 41.499c0 9.33301 -3.16699 17.333 -9.5 24s-17.166 12.667 -32.499 18s-28.666 9.33301 -39.999 12
s-29.333 6.66699 -54 12c-24.667 4.66699 -43.334 8.5 -56.001 11.5s-29 8.33301 -49 16s-35.167 16 -45.5 25s-19.5 21.167 -27.5 36.5s-12 33.333 -12 54c0 48.667 18.667 87.334 56 116.001s86.666 43 147.999 43c60 0 108.833 -13.333 146.5 -40s56.5 -61 56.5 -103
c0 -12.667 -3 -26 -9 -40h-95c4 10 6 19 6 27c0 20 -9.33301 35.667 -28 47s-44.667 17 -78 17c-30.667 0 -55.334 -5 -74.001 -15s-28 -23.333 -28 -40c0 -10 2.83301 -18.333 8.5 -25s16.334 -12.667 32.001 -18s28.334 -9.16602 38.001 -11.499
s27.167 -5.83301 52.5 -10.5c18.667 -4 31.834 -6.83301 39.501 -8.5s20 -4.83398 37 -9.50098s29.667 -9 38 -13s18.666 -9.83301 30.999 -17.5s21.5 -15.834 27.5 -24.501s11.333 -19.334 16 -32.001s7 -26.334 7 -41.001c0 -48.667 -20.167 -87.334 -60.5 -116.001
s-93.166 -43 -158.499 -43c-64 0 -116.333 13.333 -157 40s-61 61 -61 103c0 14.667 3 28.334 9 41.001zM61 746.003h102l88 -106l88 106h102l-139 -167h-102z" />
    <glyph glyph-name="uni0162" unicode="&#x162;" horiz-adv-x="669" 
d="M24 605v95h621v-95h-255v-605h-111v605h-255zM320 -223h-53c26.667 30.667 40 64.667 40 102c0 18.667 -4.66699 40 -14 64h83c4 -12.667 6 -26.667 6 -42c0 -50.667 -20.667 -92 -62 -124z" />
    <glyph glyph-name="uni0163" unicode="&#x163;" horiz-adv-x="391" 
d="M345 411h-130.999v-251c0 -24 6.83301 -43 20.5 -57s32.5 -21 56.5 -21c24.667 0 42.667 4.66699 54 14v-80c-22.667 -16 -53.667 -24 -93 -24c-44.667 0 -79.834 13.5 -105.501 40.5s-38.5 63.833 -38.5 110.5v268h-84v84h84v107l106 41v-148h131v-84zM224.001 -223h-54
c26.667 30.667 40 64.667 40 102c0 18.667 -4.66699 40 -14 64h84c4 -16 6 -30 6 -42c0 -50.667 -20.667 -92 -62 -124z" />
    <glyph glyph-name="Tcaron" unicode="&#x164;" horiz-adv-x="669" 
d="M645 605h-255v-605h-111v605h-255v95h621v-95zM284 779l-140 166h103l87 -105l89 105h102l-140 -166h-101z" />
    <glyph glyph-name="tcaron" unicode="&#x165;" horiz-adv-x="407" 
d="M345 411h-130.999v-251c0 -24 6.83301 -43 20.5 -57s32.5 -21 56.5 -21c24.667 0 42.667 4.66699 54 14v-80c-22.667 -16 -53.667 -24 -93 -24c-44.667 0 -79.834 13.5 -105.501 40.5s-38.5 63.833 -38.5 110.5v268h-84v84h84v107l106 41v-148h131v-84zM330.001 678
c0 27.333 -4 51.333 -12 72h82c3.33301 -12.667 5 -28.334 5 -47.001c0 -60.667 -20.333 -108.667 -61 -144h-50c24 34.667 36 74.334 36 119.001z" />
    <glyph glyph-name="Tbar" unicode="&#x166;" horiz-adv-x="669" 
d="M24 605v95h621v-95h-255v-219h155v-63h-155v-323h-111v323h-156v63h156v219h-255z" />
    <glyph glyph-name="tbar" unicode="&#x167;" horiz-adv-x="396" 
d="M29 495h84.001v107l106 41v-148h131v-84h-131v-100h131v-63h-131v-88c0 -24 6.83301 -43 20.5 -57s32.5 -21 56.5 -21s42 4.66699 54 14v-80c-22.667 -16 -53.667 -24 -93 -24c-44.667 0 -79.834 13.5 -105.501 40.5s-38.5 63.833 -38.5 110.5v105h-84v63h84v100h-84v84z
" />
    <glyph glyph-name="Utilde" unicode="&#x168;" horiz-adv-x="750" 
d="M70 281v419h112v-409c0 -59.333 17.667 -107.166 53 -143.499s82 -54.5 140 -54.5s104.833 18.167 140.5 54.5s53.5 84.166 53.5 143.499v409h111v-419c0 -87.333 -28 -157.666 -84 -210.999s-129.667 -80 -221 -80s-165 26.667 -221 80s-84 123.666 -84 210.999z
M272 804h-73c0 36 10.5 65.833 31.5 89.5s47.833 35.5 80.5 35.5c24 0 47.833 -9.33301 71.5 -28s41.167 -28 52.5 -28c12.667 0 23.167 4.83301 31.5 14.5s12.5 21.834 12.5 36.501h73c0 -36 -10.5 -65.833 -31.5 -89.5s-47.833 -35.5 -80.5 -35.5
c-24 0 -47.667 9.33301 -71 28s-41 28 -53 28s-22.333 -4.83301 -31 -14.5s-13 -21.834 -13 -36.501z" />
    <glyph glyph-name="utilde" unicode="&#x169;" horiz-adv-x="591" 
d="M70 172v322.999h106v-300c0 -34 9.33301 -60.833 28 -80.5s44 -29.5 76 -29.5c38.667 0 70.334 14.333 95.001 43s37 65.334 37 110.001v257h106v-495h-106v67c-42.667 -51.333 -98.334 -77 -167.001 -77c-54 0 -96.667 16.333 -128 49s-47 77 -47 133zM231 728.999
c23.333 0 46.833 -9.33301 70.5 -28s41.5 -28 53.5 -28c12.667 0 23 4.83301 31 14.5s12 21.834 12 36.501h74c0 -36 -10.667 -65.833 -32 -89.5s-48.333 -35.5 -81 -35.5c-23.333 0 -46.833 9.33301 -70.5 28s-41.167 28 -52.5 28c-12.667 0 -23.167 -4.83301 -31.5 -14.5
s-12.5 -21.834 -12.5 -36.501h-74c0 36 10.667 65.833 32 89.5s48.333 35.5 81 35.5z" />
    <glyph glyph-name="Umacron" unicode="&#x16a;" horiz-adv-x="750" 
d="M70 700h112v-409c0 -59.333 17.667 -107.166 53 -143.499s82 -54.5 140 -54.5s104.833 18.167 140.5 54.5s53.5 84.166 53.5 143.499v409h111v-419c0 -87.333 -28 -157.666 -84 -210.999s-129.667 -80 -221 -80s-165 26.667 -221 80s-84 123.666 -84 210.999v419z
M246 913h258v-73h-258v73z" />
    <glyph glyph-name="umacron" unicode="&#x16b;" horiz-adv-x="591" 
d="M70 495l106 -0.000976562v-300c0 -34 9.33301 -60.833 28 -80.5s44 -29.5 76 -29.5c38.667 0 70.334 14.333 95.001 43s37 65.334 37 110.001v257h106v-495h-106v67c-42.667 -51.333 -98.334 -77 -167.001 -77c-54 0 -96.667 16.333 -128 49s-47 77 -47 133v323z
M165 639.999v73h258v-73h-258z" />
    <glyph glyph-name="Ubreve" unicode="&#x16c;" horiz-adv-x="750" 
d="M70 281v419h112v-409c0 -59.333 17.667 -107.166 53 -143.499s82 -54.5 140 -54.5s104.833 18.167 140.5 54.5s53.5 84.166 53.5 143.499v409h111v-419c0 -87.333 -28 -157.666 -84 -210.999s-129.667 -80 -221 -80s-165 26.667 -221 80s-84 123.666 -84 210.999z
M213 936h74c0 -21.333 8.5 -39 25.5 -53s38.167 -21 63.5 -21c24.667 0 45.5 7.16699 62.5 21.5s25.5 31.833 25.5 52.5h73c0 -42.667 -15.167 -77.834 -45.5 -105.501s-68.833 -41.5 -115.5 -41.5c-47.333 0 -86.333 13.833 -117 41.5s-46 62.834 -46 105.501z" />
    <glyph glyph-name="ubreve" unicode="&#x16d;" horiz-adv-x="591" 
d="M70 495l106 -0.000976562v-300c0 -34 9.33301 -60.833 28 -80.5s44 -29.5 76 -29.5c38.667 0 70.334 14.333 95.001 43s37 65.334 37 110.001v257h106v-495h-106v67c-42.667 -51.333 -98.334 -77 -167.001 -77c-54 0 -96.667 16.333 -128 49s-47 77 -47 133v323z
M133 735.999h74.001c0 -21.333 8.5 -39 25.5 -53s38.167 -21 63.5 -21c24.667 0 45.334 7.16699 62.001 21.5s25 31.833 25 52.5h74c0 -42.667 -15.333 -77.834 -46 -105.501s-69.334 -41.5 -116.001 -41.5s-85.334 13.833 -116.001 41.5s-46 62.834 -46 105.501z" />
    <glyph glyph-name="Uring" unicode="&#x16e;" horiz-adv-x="750" 
d="M70 281v419h112v-409c0 -59.333 17.667 -107.166 53 -143.499s82 -54.5 140 -54.5s104.833 18.167 140.5 54.5s53.5 84.166 53.5 143.499v409h111v-419c0 -87.333 -28 -157.666 -84 -210.999s-129.667 -80 -221 -80s-165 26.667 -221 80s-84 123.666 -84 210.999z
M376 983c29.333 0 53.5 -9.5 72.5 -28.5s28.5 -43.167 28.5 -72.5c0 -30 -9.5 -54.667 -28.5 -74s-43.167 -29 -72.5 -29s-53.833 9.66699 -73.5 29s-29.5 44 -29.5 74c0 28.667 9.83301 52.667 29.5 72s44.167 29 73.5 29zM325 882c0 -14.667 4.83301 -26.834 14.5 -36.501
s21.834 -14.5 36.501 -14.5c14 0 25.667 4.83301 35 14.5s14 21.834 14 36.501c0 14 -4.66699 25.667 -14 35s-21 14 -35 14c-14.667 0 -26.834 -4.66699 -36.501 -14s-14.5 -21 -14.5 -35z" />
    <glyph glyph-name="uring" unicode="&#x16f;" horiz-adv-x="591" 
d="M70 172v322.999h106v-300c0 -34 9.33301 -60.833 28 -80.5s44 -29.5 76 -29.5c38.667 0 70.334 14.333 95.001 43s37 65.334 37 110.001v257h106v-495h-106v67c-42.667 -51.333 -98.334 -77 -167.001 -77c-54 0 -96.667 16.333 -128 49s-47 77 -47 133zM193 681.999
c0 29.333 9.66699 53.5 29 72.5s43.666 28.5 72.999 28.5s53.666 -9.66699 72.999 -29s29 -43.333 29 -72c0 -30 -9.66699 -54.667 -29 -74s-43.666 -29 -72.999 -29s-53.666 9.66699 -72.999 29s-29 44 -29 74zM295 630.999c14 0 25.833 4.83301 35.5 14.5
s14.5 21.834 14.5 36.501c0 14 -4.83301 25.667 -14.5 35s-21.5 14 -35.5 14c-14.667 0 -26.667 -4.66699 -36 -14s-14 -21 -14 -35c0 -14.667 4.66699 -26.834 14 -36.501s21.333 -14.5 36 -14.5z" />
    <glyph glyph-name="Uhungarumlaut" unicode="&#x170;" horiz-adv-x="750" 
d="M70 281v419h112v-409c0 -59.333 17.667 -107.166 53 -143.499s82 -54.5 140 -54.5s104.833 18.167 140.5 54.5s53.5 84.166 53.5 143.499v409h111v-419c0 -87.333 -28 -157.666 -84 -210.999s-129.667 -80 -221 -80s-165 26.667 -221 80s-84 123.666 -84 210.999z
M495 779h-80l115 166h105zM222 779l114 166h105l-139 -166h-80z" />
    <glyph glyph-name="uhungarumlaut" unicode="&#x171;" horiz-adv-x="591" 
d="M70 495l106 -0.000976562v-300c0 -34 9.33301 -60.833 28 -80.5s44 -29.5 76 -29.5c38.667 0 70.334 14.333 95.001 43s37 65.334 37 110.001v257h106v-495h-106v67c-42.667 -51.333 -98.334 -77 -167.001 -77c-54 0 -96.667 16.333 -128 49s-47 77 -47 133v323z
M335 578.999l114 166h105l-139 -166h-80zM141 578.999l115 166h105l-140 -166h-80z" />
    <glyph glyph-name="Uogonek" unicode="&#x172;" horiz-adv-x="750" 
d="M70 281v419.001h112v-409c0 -59.333 17.667 -107.166 53 -143.499s82 -54.5 140 -54.5s104.833 18.167 140.5 54.5s53.5 84.166 53.5 143.499v409h111v-419c0 -70.667 -19 -130.834 -57 -180.501s-89.667 -82.834 -155 -99.501c-40 -29.333 -60 -59.333 -60 -90
c0 -16 6.16699 -28.833 18.5 -38.5s28.5 -14.5 48.5 -14.5c27.333 0 51.333 8.66699 72 26v-71c-22 -17.333 -49.333 -26 -82 -26c-38 0 -69.167 9.83301 -93.5 29.5s-36.5 45.5 -36.5 77.5c0 34.667 15.333 66.667 46 96c-92 0 -166.833 25.833 -224.5 77.5
s-86.5 122.834 -86.5 213.501z" />
    <glyph glyph-name="uogonek" unicode="&#x173;" horiz-adv-x="591" 
d="M70 172v323h106v-300c0 -34 9.33301 -60.833 28 -80.5s44 -29.5 76 -29.5c38.667 0 70.334 14.333 95.001 43s37 65.334 37 110.001v257h106v-495h-16l-7.5 -5c-3 -2 -8.5 -6.5 -16.5 -13.5s-15 -14.167 -21 -21.5s-11.5 -16 -16.5 -26s-7.5 -20 -7.5 -30
c0 -16.667 6 -29.834 18 -39.501s28 -14.5 48 -14.5c26.667 0 50.667 9 72 27v-71c-22 -17.333 -49.333 -26 -82 -26c-38 0 -69.167 9.66699 -93.5 29s-36.5 45 -36.5 77c0 21.333 5.83301 41.5 17.5 60.5s23.5 32.833 35.5 41.5l17 12h-17v67
c-42.667 -51.333 -98.334 -77 -167.001 -77c-54 0 -96.667 16.333 -128 49s-47 77 -47 133z" />
    <glyph glyph-name="Wcircumflex" unicode="&#x174;" horiz-adv-x="1098" 
d="M19 700h120l178 -532l181 532h102l182 -532l177 532h120l-246 -700h-101l-183 535l-182 -535h-100zM462 779h-103l140 166h102l139 -166h-102l-89 106z" />
    <glyph glyph-name="wcircumflex" unicode="&#x175;" horiz-adv-x="819" 
d="M19 495h117l112 -352l117 352h90l117 -352l111 352h118l-182 -495h-95l-114 344l-115 -344h-95zM220 579l139 166h102l139 -166h-102l-88 106l-88 -106h-102z" />
    <glyph glyph-name="Ycircumflex" unicode="&#x176;" horiz-adv-x="698" 
d="M293 310l-274 390h136l194 -285l194 285h136l-274 -390v-310h-112v310zM261 779h-102l139 166h102l140 -166h-103l-88 106z" />
    <glyph glyph-name="ycircumflex" unicode="&#x177;" horiz-adv-x="572" 
d="M234 5l-214.999 490h117l150 -371l150 371h117l-273 -620c-16.667 -38 -39 -68 -67 -90s-59 -33 -93 -33c-29.333 0 -53.333 6.66699 -72 20v87c20 -10 39 -15 57 -15c37.333 0 66.666 24.333 87.999 73zM96.001 579l140 166h102l139 -166h-102l-89 106l-87 -106h-103z
" />
    <glyph glyph-name="Ydieresis" unicode="&#x178;" horiz-adv-x="698" 
d="M19 700h136l194 -285l194 285h136l-274 -390v-310h-112v310zM464 931c16.667 0 30.5 -5.66699 41.5 -17s16.5 -25.333 16.5 -42s-5.5 -30.667 -16.5 -42s-24.833 -17 -41.5 -17s-30.667 5.66699 -42 17s-17 25.333 -17 42s5.66699 30.667 17 42s25.333 17 42 17zM234 931
c16.667 0 30.667 -5.66699 42 -17s17 -25.333 17 -42s-5.66699 -30.667 -17 -42s-25.333 -17 -42 -17s-30.5 5.66699 -41.5 17s-16.5 25.333 -16.5 42s5.5 30.667 16.5 42s24.833 17 41.5 17z" />
    <glyph glyph-name="Zacute" unicode="&#x179;" horiz-adv-x="675" 
d="M623 0h-571v66l409 539h-404v95h561v-66l-409 -539h414v-95zM274 779l114 166h124l-155 -166h-83z" />
    <glyph glyph-name="zacute" unicode="&#x17a;" horiz-adv-x="519" 
d="M470 0h-421v66l271 345h-266v84h411v-65l-271 -345h276v-85zM198 579l114 166h124l-156 -166h-82z" />
    <glyph glyph-name="Zdotaccent" unicode="&#x17b;" horiz-adv-x="675" 
d="M623 0h-571v66l409 539h-404v95h561v-66l-409 -539h414v-95zM267 872c0 18.667 6.16699 34.167 18.5 46.5s27.833 18.5 46.5 18.5c19.333 0 35.166 -6.16699 47.499 -18.5s18.5 -27.833 18.5 -46.5s-6.16699 -34.167 -18.5 -46.5s-28.166 -18.5 -47.499 -18.5
c-18.667 0 -34.167 6.16699 -46.5 18.5s-18.5 27.833 -18.5 46.5z" />
    <glyph glyph-name="zdotaccent" unicode="&#x17c;" horiz-adv-x="519" 
d="M470 0h-421v66l271 345h-266v84h411v-65l-271 -345h276v-85zM191 672c0 18.667 6.16699 34.167 18.5 46.5s27.833 18.5 46.5 18.5c19.333 0 35.166 -6.16699 47.499 -18.5s18.5 -27.833 18.5 -46.5s-6.16699 -34.167 -18.5 -46.5s-28.166 -18.5 -47.499 -18.5
c-18.667 0 -34.167 6.16699 -46.5 18.5s-18.5 27.833 -18.5 46.5z" />
    <glyph glyph-name="Zcaron" unicode="&#x17d;" horiz-adv-x="675" 
d="M52 66l409 539h-404v95h561v-66l-409 -539h414v-95h-571v66zM282 779l-140 166h103l87 -105l89 105h102l-139 -166h-102z" />
    <glyph glyph-name="zcaron" unicode="&#x17e;" horiz-adv-x="519" 
d="M49 66l271 345h-266v84h411v-65l-271 -345h276v-85h-421v66zM206 579l-140 166h103l87 -105l89 105h102l-140 -166h-101z" />
    <glyph glyph-name="uni018F" unicode="&#x18f;" horiz-adv-x="766" 
d="M72 389h531.999c-8 65.333 -33.833 118 -77.5 158s-100.5 60 -170.5 60c-55.333 0 -101.666 -12.333 -138.999 -37s-57.666 -56.667 -60.999 -96h-103c6 69.333 38.167 126 96.5 170s130.166 66 215.499 66c105.333 0 190.5 -33.5 255.5 -100.5s97.5 -152.5 97.5 -256.5
c0 -106 -33 -193 -99 -261s-151 -102 -255 -102c-92 0 -167.167 27 -225.5 81s-87.5 123.667 -87.5 209c0 36 7 72.333 21 109zM600.999 296h-444c0 -62.667 18.667 -112.167 56 -148.5s87.666 -54.5 150.999 -54.5c62 0 114.333 18.667 157 56s69.334 86.333 80.001 147z
" />
    <glyph glyph-name="florin" unicode="&#x192;" horiz-adv-x="407" 
d="M-69 -230l15.999 88c9.33301 -5.33301 21 -8 35 -8c18.667 0 34.5 6 47.5 18s21.167 28.667 24.5 50l78 443h-96l15 84h96l25 145c9.33301 52 30 93 62 123s71.667 45 119 45c38 0 67 -7.33301 87 -22l-14 -80c-9.33301 8 -26 12 -50 12
c-26.667 0 -48.834 -8.33301 -66.501 -25s-29.167 -40 -34.5 -70l-22 -128h124l-15 -84h-124l-84 -478c-7.33301 -40.667 -24.166 -72.667 -50.499 -96s-59.166 -35 -98.499 -35c-30 0 -54.667 6 -74 18z" />
    <glyph glyph-name="uni01DD" unicode="&#x1dd;" horiz-adv-x="560" 
d="M141 330h-95c4.66699 51.333 28.167 93.5 70.5 126.5s93.833 49.5 154.5 49.5c73.333 0 132.833 -24 178.5 -72s68.5 -109.333 68.5 -184c0 -75.333 -23.333 -137.333 -70 -186s-106 -73 -178 -73c-65.333 0 -118.5 19.833 -159.5 59.5s-61.5 90.5 -61.5 152.5
c0 25.333 4.66699 51 14 77h349c-5.33301 40 -21.333 72.167 -48 96.5s-60.667 36.5 -102 36.5c-33.333 0 -61.333 -7.83301 -84 -23.5s-35 -35.5 -37 -59.5zM408 198h-263.001c2.66699 -34.667 15.167 -62.5 37.5 -83.5s51.166 -31.5 86.499 -31.5
c34.667 0 64.334 10.333 89.001 31s41.334 48.667 50.001 84z" />
    <glyph glyph-name="Aringacute" unicode="&#x1fa;" horiz-adv-x="769" 
d="M27 0l300 682c-30 19.333 -45 48.333 -45 87c0 28 9.16699 51.5 27.5 70.5s41.5 29.167 69.5 30.5l84 123h124l-136 -146c23.333 -19.333 35 -45.333 35 -78c0 -38 -14.333 -66.667 -43 -86l300 -683h-122l-68 159h-336l-68 -159h-122zM385 555l-128 -301h256zM385 718
c14 0 25.667 4.83301 35 14.5s14 21.834 14 36.501c0 14 -4.66699 25.667 -14 35s-21 14 -35 14c-14.667 0 -26.667 -4.66699 -36 -14s-14 -21 -14 -35c0 -14.667 4.66699 -26.834 14 -36.501s21.333 -14.5 36 -14.5z" />
    <glyph glyph-name="aringacute" unicode="&#x1fb;" horiz-adv-x="556" 
d="M224 290l146.998 0.000976562v34c0 24.667 -10.333 45.334 -31 62.001s-46 25 -76 25c-28.667 0 -52.667 -7.83301 -72 -23.5s-30 -34.834 -32 -57.501h-97c4.66699 51.333 26.334 93.5 65.001 126.5s86.667 49.5 144 49.5c58.667 0 107.5 -17 146.5 -51
s58.5 -77 58.5 -129v-209c0 -12 3.33301 -21.667 10 -29s15.667 -11 27 -11c10 0 18.333 2.33301 25 7v-73c-18 -12.667 -39.667 -19 -65 -19c-23.333 0 -43.5 5.66699 -60.5 17s-29.167 26.666 -36.5 45.999c-40.667 -44 -93 -66 -157 -66
c-51.333 0 -93.666 14.333 -126.999 43s-50 66 -50 112c0 45.333 16.333 81 49 107s76.667 39 132 39zM171.998 636.001c0 32 10.332 56.833 30.999 74.5s47 26.5 79 26.5l79 116h123l-136 -147c18 -18 27 -41.333 27 -70c0 -29.333 -9.5 -53.666 -28.5 -72.999
s-43.167 -29 -72.5 -29s-53.666 9.66699 -72.999 29s-29 43.666 -29 72.999zM148.997 148.001c0 -18.667 7.99902 -33.834 23.999 -45.501s37 -17.5 63 -17.5c36 0 67.5 11.333 94.5 34s40.5 50.667 40.5 84v8h-129c-27.333 0 -49.666 -5.66699 -66.999 -17
s-26 -26.666 -26 -45.999zM273.996 586.001c14 0 25.667 4.66699 35 14s14 21.333 14 36s-4.66699 26.5 -14 35.5s-21 13.5 -35 13.5c-14.667 0 -26.667 -4.5 -36 -13.5s-14 -20.833 -14 -35.5s4.66699 -26.667 14 -36s21.333 -14 36 -14z" />
    <glyph glyph-name="AEacute" unicode="&#x1fc;" horiz-adv-x="1006" 
d="M19 0l397 700h537v-95h-366v-205h323v-93h-323v-212h376v-95h-488v159h-241l-88 -159h-127zM475 595l-189 -341h189v341zM528 779h-82l114 166h123z" />
    <glyph glyph-name="aeacute" unicode="&#x1fd;" horiz-adv-x="899" 
d="M223 -11c-52 0 -95 14.5 -129 43.5s-51 67.5 -51 115.5c0 45.333 16.333 81 49 107s77.667 39 135 39h149v30c0 24.667 -10.333 45.334 -31 62.001s-46.334 25 -77.001 25c-29.333 0 -54.166 -7.83301 -74.499 -23.5s-31.5 -34.834 -33.5 -57.501h-97
c4.66699 51.333 26.5 93.5 65.5 126.5s87.167 49.5 144.5 49.5c36 0 69 -7.16699 99 -21.5s54 -33.833 72 -58.5c48 53.333 109.667 80 185 80c65.333 0 118.666 -19.833 159.999 -59.5s62 -90.5 62 -152.5c0 -26 -5 -52.333 -15 -79h-354c6 -40 22.5 -71.833 49.5 -95.5
s61.5 -35.5 103.5 -35.5c34.667 0 63.5 7.83301 86.5 23.5s35.5 35.5 37.5 59.5h94c-4.66699 -51.333 -28 -93.5 -70 -126.5s-93.333 -49.5 -154 -49.5c-46.667 0 -88.334 10.333 -125.001 31s-65.667 49 -87 85c-17.333 -36.667 -43.166 -65.5 -77.499 -86.5
s-73.166 -31.5 -116.499 -31.5zM485 297h269.002c-2.66699 35.333 -15.334 63.666 -38.001 84.999s-52.334 32 -89.001 32c-35.333 0 -65.833 -10.667 -91.5 -32s-42.5 -49.666 -50.5 -84.999zM238.002 215c-27.333 0 -49.001 -5.66797 -65.001 -17.001
s-24 -26.666 -24 -45.999c0 -20 8.33301 -36.167 25 -48.5s38.334 -18.5 65.001 -18.5c36.667 0 68.667 11.333 96 34s41 50.667 41 84v12h-138zM476.001 578.999h-82l114 167h123z" />
    <glyph glyph-name="Oslashacute" unicode="&#x1fe;" horiz-adv-x="798" 
d="M399 710c80.667 0 151.332 -22.001 211.999 -66.001l48 56h81l-83 -97c62 -67.333 93 -151.666 93 -252.999c0 -104.667 -33 -190.834 -99 -258.501s-150 -101.5 -252 -101.5c-79.333 0 -149.666 21.667 -210.999 65l-47 -55h-84l84 98c-62 66 -93 150 -93 252
c0 104.667 33 190.834 99 258.501s150 101.5 252 101.5zM211.998 179.999l330 384c-41.333 30.667 -89 46 -143 46c-70 0 -127.833 -24.5 -173.5 -73.5s-68.5 -111.167 -68.5 -186.5c0 -67.333 18.333 -124 55 -170zM585.998 519.999l-329 -385c40.667 -30 88 -45 142 -45
c70 0 127.833 24.5 173.5 73.5s68.5 111.167 68.5 186.5c0 67.333 -18.333 124 -55 170zM412.998 778.999h-82l114 166h123z" />
    <glyph glyph-name="oslashacute" unicode="&#x1ff;" horiz-adv-x="583" 
d="M40 0l63.001 74c-40 47.333 -60 105.333 -60 174c0 74.667 23.5 136.334 70.5 185.001s106.5 73 178.5 73c53.333 0 100.333 -14 141 -42l26 31h84l-63 -73c40 -47.333 60 -105.333 60 -174c0 -74.667 -23.333 -136.334 -70 -185.001s-106 -73 -178 -73
c-54.667 0 -102.334 14.333 -143.001 43l-28 -33h-81zM415.001 344l-204.001 -239.001c22.667 -16.667 49.667 -25 81 -25c42.667 0 77.834 15.833 105.501 47.5s41.5 71.834 41.5 120.501c0 36 -8 68 -24 96zM168 151.999l202.999 240.001
c-23.333 16 -49.666 24 -78.999 24c-42.667 0 -78 -15.833 -106 -47.5s-42 -71.834 -42 -120.501c0 -36 8 -68 24 -96zM315.999 574h-83l115 166h123z" />
    <glyph glyph-name="uni0218" unicode="&#x218;" horiz-adv-x="686" 
d="M63 237h104.999c-6 -14 -9 -28 -9 -42c0 -32.667 17 -58.667 51 -78s80 -29 138 -29c54.667 0 98.334 9.16699 131.001 27.5s49 42.833 49 73.5c0 31.333 -17.5 55.333 -52.5 72s-83.167 29.667 -144.5 39c-89.333 14.667 -156.5 37.334 -201.5 68.001
s-67.5 75.334 -67.5 134.001c0 63.333 24.5 113.833 73.5 151.5s114.5 56.5 196.5 56.5c81.333 0 147.5 -17.667 198.5 -53s76.5 -81 76.5 -137c0 -18.667 -4 -37.334 -12 -56.001h-106c5.33301 13.333 8 27 8 41c0 32.667 -14.833 58.667 -44.5 78s-70.167 29 -121.5 29
c-48.667 0 -87.667 -9 -117 -27s-44 -41.667 -44 -71c0 -32 16.5 -55.833 49.5 -71.5s81.167 -28.167 144.5 -37.5c88 -12 155.333 -34.167 202 -66.5s70 -78.5 70 -138.5c0 -64.667 -26.167 -115.834 -78.5 -153.501s-122.833 -56.5 -211.5 -56.5
c-87.333 0 -158.5 17.833 -213.5 53.5s-82.5 81.5 -82.5 137.5c0 19.333 4.33301 38 13 56zM331.999 -223h-54c26.667 30 40 64 40 102c0 20.667 -4.33301 42 -13 64h83c4 -12.667 6 -26.667 6 -42c0 -50.667 -20.667 -92 -62 -124z" />
    <glyph glyph-name="uni0219" unicode="&#x219;" horiz-adv-x="517" 
d="M49 173l95 0.00292969c-4 -10 -6 -19 -6 -27c0 -20 10.667 -35.833 32 -47.5s50.666 -17.5 87.999 -17.5c35.333 0 63.666 5.16699 84.999 15.5s32 24.166 32 41.499c0 9.33301 -3.16699 17.333 -9.5 24s-17.166 12.667 -32.499 18s-28.666 9.33301 -39.999 12
s-29.333 6.66699 -54 12c-24.667 4.66699 -43.334 8.5 -56.001 11.5s-29 8.33301 -49 16s-35.167 16 -45.5 25s-19.5 21.167 -27.5 36.5s-12 33.333 -12 54c0 48.667 18.667 87.334 56 116.001s86.666 43 147.999 43c60 0 108.833 -13.333 146.5 -40s56.5 -61 56.5 -103
c0 -12.667 -3 -26 -9 -40h-95c4 10 6 19 6 27c0 20 -9.33301 35.667 -28 47s-44.667 17 -78 17c-30.667 0 -55.334 -5 -74.001 -15s-28 -23.333 -28 -40c0 -10 2.83301 -18.333 8.5 -25s16.334 -12.667 32.001 -18s28.334 -9.16602 38.001 -11.499
s27.167 -5.83301 52.5 -10.5c18.667 -4 31.834 -6.83301 39.501 -8.5s20 -4.83398 37 -9.50098s29.667 -9 38 -13s18.666 -9.83301 30.999 -17.5s21.5 -15.834 27.5 -24.501s11.333 -19.334 16 -32.001s7 -26.334 7 -41.001c0 -48.667 -20.167 -87.334 -60.5 -116.001
s-93.166 -43 -158.499 -43c-64 0 -116.333 13.333 -157 40s-61 61 -61 103c0 14.667 3 28.334 9 41.001zM244 -223.997h-54c26.667 30 40 64.333 40 103c0 20 -4.33301 41.667 -13 65h83c4 -13.333 6 -27.666 6 -42.999c0 -50.667 -20.667 -92.334 -62 -125.001z" />
    <glyph glyph-name="uni021A" unicode="&#x21a;" horiz-adv-x="669" 
d="M24 605v95h621v-95h-255v-605h-111v605h-255zM320 -223h-53c26.667 30.667 40 64.667 40 102c0 18.667 -4.66699 40 -14 64h83c4 -12.667 6 -26.667 6 -42c0 -50.667 -20.667 -92 -62 -124z" />
    <glyph glyph-name="uni021B" unicode="&#x21b;" horiz-adv-x="391" 
d="M345 411h-130.999v-251c0 -24 6.83301 -43 20.5 -57s32.5 -21 56.5 -21c24.667 0 42.667 4.66699 54 14v-80c-22.667 -16 -53.667 -24 -93 -24c-44.667 0 -79.834 13.5 -105.501 40.5s-38.5 63.833 -38.5 110.5v268h-84v84h84v107l106 41v-148h131v-84zM224.001 -223h-54
c26.667 30.667 40 64.667 40 102c0 18.667 -4.66699 40 -14 64h84c4 -16 6 -30 6 -42c0 -50.667 -20.667 -92 -62 -124z" />
    <glyph glyph-name="uni0237" unicode="&#x237;" horiz-adv-x="259" 
d="M80 495h105.999v-612c0 -40.667 -11.167 -72.667 -33.5 -96s-53.166 -35 -92.499 -35c-28.667 0 -54.334 6 -77.001 18v88c10.667 -5.33301 23.334 -8 38.001 -8c18.667 0 33.167 6 43.5 18s15.5 28.667 15.5 50v577z" />
    <glyph glyph-name="uni0259" unicode="&#x259;" horiz-adv-x="586" 
d="M141 330h-95c4.66699 51.333 29.167 93.5 73.5 126.5s98.833 49.5 163.5 49.5c78 0 140.833 -24 188.5 -72s71.5 -109.333 71.5 -184c0 -75.333 -24.5 -137.333 -73.5 -186s-111.5 -73 -187.5 -73c-68.667 0 -124.667 19.833 -168 59.5s-65 90.5 -65 152.5
c0 25.333 4.66699 51 14 77h375c-6 40 -23.5 72.167 -52.5 96.5s-66.167 36.5 -111.5 36.5c-36.667 0 -67.5 -7.83301 -92.5 -23.5s-38.5 -35.5 -40.5 -59.5zM433 198h-288.002c2.66699 -34 16.334 -61.667 41.001 -83s56.334 -32 95.001 -32c38 0 70.5 10.5 97.5 31.5
s45.167 48.833 54.5 83.5z" />
    <glyph glyph-name="circumflex" unicode="&#x2c6;" horiz-adv-x="448" 
d="M34 579l139 167h102l140 -167h-103l-88 106l-88 -106h-102z" />
    <glyph glyph-name="caron" unicode="&#x2c7;" horiz-adv-x="448" 
d="M173 579l-139 167h102l88 -106l88 106h103l-140 -167h-102z" />
    <glyph glyph-name="breve" unicode="&#x2d8;" horiz-adv-x="391" 
d="M34 736h74.001c0 -21.333 8.5 -39 25.5 -53s38.167 -21 63.5 -21c24.667 0 45.334 7.16699 62.001 21.5s25 31.833 25 52.5h74c0 -42.667 -15.333 -77.834 -46 -105.501s-69.334 -41.5 -116.001 -41.5s-85.334 13.833 -116.001 41.5s-46 62.834 -46 105.501z" />
    <glyph glyph-name="dotaccent" unicode="&#x2d9;" horiz-adv-x="199" 
d="M34 672c0 18.667 6.16895 34.167 18.502 46.5s27.833 18.5 46.5 18.5c19.333 0 35.166 -6.16699 47.499 -18.5s18.5 -27.833 18.5 -46.5s-6.33301 -34.167 -19 -46.5s-28.334 -18.5 -47.001 -18.5s-34.167 6.16699 -46.5 18.5s-18.5 27.833 -18.5 46.5z" />
    <glyph glyph-name="ring" unicode="&#x2da;" horiz-adv-x="272" 
d="M34 682c0 29.333 9.66699 53.5 29 72.5s43.666 28.5 72.999 28.5s53.666 -9.5 72.999 -28.5s29 -43.167 29 -72.5c0 -30 -9.66699 -54.667 -29 -74s-43.666 -29 -72.999 -29s-53.666 9.66699 -72.999 29s-29 44 -29 74zM87 682c0 -14.667 4.66699 -26.667 14 -36
s21 -14 35 -14s25.833 4.66699 35.5 14s14.5 21.333 14.5 36c0 14 -4.83301 25.667 -14.5 35s-21.5 14 -35.5 14s-25.667 -4.66699 -35 -14s-14 -21 -14 -35z" />
    <glyph glyph-name="ogonek" unicode="&#x2db;" horiz-adv-x="280" 
d="M104 0l73.001 -0.000976562c-5.33301 -3.33301 -11.833 -8 -19.5 -14s-17.834 -17.5 -30.501 -34.5s-19 -33.167 -19 -48.5c0 -16 6 -28.833 18 -38.5s28 -14.5 48 -14.5c26.667 0 50.667 9 72 27v-71c-20.667 -17.333 -48 -26 -82 -26c-38 0 -69.167 9.83301 -93.5 29.5
s-36.5 45.5 -36.5 77.5c0 21.333 5.83301 41.333 17.5 60s23.167 32.334 34.5 41.001z" />
    <glyph glyph-name="tilde" unicode="&#x2dc;" horiz-adv-x="422" 
d="M108 604l-73.999 0.00195312c0 36 10.5 65.833 31.5 89.5s48.167 35.5 81.5 35.5c24 0 47.667 -9.33301 71 -28s40.666 -28 51.999 -28c13.333 0 24 4.83301 32 14.5s12 22.167 12 37.5h74c0 -36.667 -10.667 -66.834 -32 -90.501s-48.333 -35.5 -81 -35.5
c-23.333 0 -46.833 9.33301 -70.5 28s-41.167 28 -52.5 28c-12.667 0 -23.167 -4.83301 -31.5 -14.5s-12.5 -21.834 -12.5 -36.501z" />
    <glyph glyph-name="hungarumlaut" unicode="&#x2dd;" horiz-adv-x="481" 
d="M307 579h-80l115 167h105zM114 579h-80l114 167h105z" />
    <glyph glyph-name="uni0400" unicode="&#x400;" horiz-adv-x="648" 
d="M78 0v700h516v-95h-405v-205h363v-93h-363v-212h415v-95h-526zM314 779l-154 166h123l114 -166h-83z" />
    <glyph glyph-name="uni0401" unicode="&#x401;" horiz-adv-x="648" 
d="M604 0h-526v700h516v-95h-405v-205h363v-93h-363v-212h415v-95zM394 872c0 16.667 5.66699 30.667 17 42s25.333 17 42 17s30.667 -5.66699 42 -17s17 -25.333 17 -42s-5.66699 -30.667 -17 -42s-25.333 -17 -42 -17s-30.667 5.66699 -42 17s-17 25.333 -17 42zM224 931
c16.667 0 30.667 -5.66699 42 -17s17 -25.333 17 -42s-5.66699 -30.667 -17 -42s-25.333 -17 -42 -17s-30.667 5.66699 -42 17s-17 25.333 -17 42s5.66699 30.667 17 42s25.333 17 42 17z" />
    <glyph glyph-name="uni0402" unicode="&#x402;" horiz-adv-x="888" 
d="M24 605l-0.000976562 94.999h621v-95h-255v-222c26 19.333 60 34.666 102 45.999s82.333 17 121 17c72.667 0 129.834 -20.333 171.501 -61s62.5 -95 62.5 -163c0 -69.333 -21.5 -125.333 -64.5 -168s-99.5 -64 -169.5 -64c-39.333 0 -71 5.66699 -95 17v94
c22.667 -8.66699 48 -13 76 -13c42 0 76.167 12.5 102.5 37.5s39.5 57.167 39.5 96.5c0 38.667 -12.667 69.334 -38 92.001s-61 34 -107 34c-34.667 0 -71 -6.16699 -109 -18.5s-68.667 -28.166 -92 -47.499v-282h-111v605h-255z" />
    <glyph glyph-name="uni0403" unicode="&#x403;" horiz-adv-x="569" 
d="M189 0h-111v700h467v-95h-356v-605zM256 779l114 166h123l-155 -166h-82z" />
    <glyph glyph-name="uni0404" unicode="&#x404;" horiz-adv-x="757" 
d="M406 710c85.333 0 155.167 -21 209.5 -63s81.5 -96 81.5 -162c0 -21.333 -3.66699 -42 -11 -62h-103c6 20 9 38.333 9 55c0 37.333 -17.333 68.166 -52 92.499s-79 36.5 -133 36.5c-67.333 0 -122.666 -19 -165.999 -57s-70 -88 -80 -150h308v-93h-309
c8 -64 33.5 -115.667 76.5 -155s97.167 -59 162.5 -59c57.333 0 104.666 14.833 141.999 44.5s58 67.834 62 114.501h106c-6.66699 -76.667 -39.5 -139.5 -98.5 -188.5s-132.167 -73.5 -219.5 -73.5c-102 0 -184.667 33.667 -248 101s-95 153.333 -95 258
c0 106 32.833 192.667 98.5 260s152.167 101 259.5 101z" />
    <glyph glyph-name="uni0405" unicode="&#x405;" horiz-adv-x="686" 
d="M63 237h104.999c-6 -14 -9 -28 -9 -42c0 -32.667 17 -58.667 51 -78s80 -29 138 -29c54.667 0 98.334 9.16699 131.001 27.5s49 42.833 49 73.5c0 31.333 -17.5 55.333 -52.5 72s-83.167 29.667 -144.5 39c-89.333 14.667 -156.5 37.334 -201.5 68.001
s-67.5 75.334 -67.5 134.001c0 63.333 24.5 113.833 73.5 151.5s114.5 56.5 196.5 56.5c81.333 0 147.5 -17.667 198.5 -53s76.5 -81 76.5 -137c0 -18.667 -4 -37.334 -12 -56.001h-106c5.33301 13.333 8 27 8 41c0 32.667 -14.833 58.667 -44.5 78s-70.167 29 -121.5 29
c-48.667 0 -87.667 -9 -117 -27s-44 -41.667 -44 -71c0 -32 16.5 -55.833 49.5 -71.5s81.167 -28.167 144.5 -37.5c88 -12 155.333 -34.167 202 -66.5s70 -78.5 70 -138.5c0 -64.667 -26.167 -115.834 -78.5 -153.501s-122.833 -56.5 -211.5 -56.5
c-87.333 0 -158.5 17.833 -213.5 53.5s-82.5 81.5 -82.5 137.5c0 19.333 4.33301 38 13 56z" />
    <glyph glyph-name="uni0406" unicode="&#x406;" horiz-adv-x="267" 
d="M78 0v700h111v-700h-111z" />
    <glyph glyph-name="uni0407" unicode="&#x407;" horiz-adv-x="267" 
d="M78 0v700h111v-700h-111zM-31 843c0 16.667 5.66699 30.667 17 42s25.333 17 42 17s30.667 -5.66699 42 -17s17 -25.333 17 -42s-5.66699 -30.667 -17 -42s-25.333 -17 -42 -17s-30.667 5.66699 -42 17s-17 25.333 -17 42zM180 843c0 16.667 5.66699 30.667 17 42
s25.333 17 42 17s30.667 -5.66699 42 -17s17 -25.333 17 -42s-5.66699 -30.667 -17 -42s-25.333 -17 -42 -17s-30.667 5.66699 -42 17s-17 25.333 -17 42z" />
    <glyph glyph-name="uni0408" unicode="&#x408;" horiz-adv-x="449" 
d="M29 7l-0.000976562 100c26.667 -9.33301 54.334 -14 83.001 -14c48 0 86 14.167 114 42.5s42 67.166 42 116.499v448h111v-464c0 -73.333 -23 -132.666 -69 -177.999s-106.667 -68 -182 -68c-41.333 0 -74.333 5.66699 -99 17z" />
    <glyph glyph-name="uni0409" unicode="&#x409;" horiz-adv-x="1149" 
d="M21 7l-0.000976562 94.002c14.667 -7.33301 30.334 -11 47.001 -11c28.667 0 50.667 16.167 66 48.5s26.833 92.5 34.5 180.5s11.5 215 11.5 381h491v-275h200c70 0 127 -19.667 171 -59s66 -90.333 66 -153s-22 -113.834 -66 -153.501s-101.333 -59.5 -172 -59.5h-310
v605h-280c0 -158 -6.83301 -282.333 -20.5 -373s-33 -153.334 -58 -188.001s-58.167 -52 -99.5 -52c-28.667 0 -55.667 5 -81 15zM670.999 95.002h199c38.667 0 69.5 11 92.5 33s34.5 50.333 34.5 85c0 34 -11.5 62 -34.5 84s-53.833 33 -92.5 33h-199v-235z" />
    <glyph glyph-name="uni040A" unicode="&#x40a;" horiz-adv-x="1160" 
d="M78 0l0.000976562 700h111v-290h381v290h112v-290h200c69.333 0 126.166 -19 170.499 -57s66.5 -87.333 66.5 -148c0 -60 -22 -109.167 -66 -147.5s-101.333 -57.5 -172 -57.5h-311v315h-381v-315h-111zM682.001 315v-220h198c38.667 0 69.667 10.333 93 31s35 47 35 79
s-11.667 58.333 -35 79s-54.333 31 -93 31h-198z" />
    <glyph glyph-name="uni040B" unicode="&#x40b;" horiz-adv-x="901" 
d="M645 605h-254.998v-230c26.667 20 61.167 36 103.5 48s83.166 18 122.499 18c71.333 0 127.666 -19.833 168.999 -59.5s62 -91.834 62 -156.501v-225h-111v203c0 41.333 -13 74.5 -39 99.5s-62.333 37.5 -109 37.5c-33.333 0 -68.833 -6.16699 -106.5 -18.5
s-68.167 -28.166 -91.5 -47.499v-274h-111v605h-255v95h621v-95z" />
    <glyph glyph-name="uni040C" unicode="&#x40c;" horiz-adv-x="682" 
d="M181 0h-111v700h111v-293h83c24 0 42.333 9.66699 55 29l148 210c24 38 57.667 57 101 57h50v-96h-13c-23.333 0 -42 -9.66699 -56 -29l-151 -216l173 -240c12.667 -19.333 31.334 -29 56.001 -29h10v-96h-44c-44.667 0 -79.334 18.667 -104.001 56l-168 230
c-14 19.333 -32.333 29 -55 29h-85v-312zM370 779h-82l114 166h123z" />
    <glyph glyph-name="uni040D" unicode="&#x40d;" horiz-adv-x="791" 
d="M78 700h111v-520l424 520h100v-700h-111v521l-428 -521h-96v700zM223 945h123l114 -166h-83z" />
    <glyph glyph-name="uni040E" unicode="&#x40e;" horiz-adv-x="734" 
d="M19 700l131.001 0.000976562l224 -384l211 384h130l-293 -514c-42 -72.667 -79.5 -123.167 -112.5 -151.5s-70.833 -42.5 -113.5 -42.5c-36 0 -67.333 6.66699 -94 20v94c18 -10 40.667 -15 68 -15c28 0 52.167 8.16699 72.5 24.5s45.166 47.166 74.499 92.499z
M205.001 886.001h80.999c0 -21.333 8 -39.333 24 -54s36 -22 60 -22s43.833 7.33301 59.5 22s23.5 32.667 23.5 54h81c0 -42.667 -15.5 -77.834 -46.5 -105.501s-70.167 -41.5 -117.5 -41.5s-86.666 13.833 -117.999 41.5s-47 62.834 -47 105.501z" />
    <glyph glyph-name="uni040F" unicode="&#x40f;" horiz-adv-x="766" 
d="M332 0h-254v700h111v-605h388v605h111v-700h-254v-170h-102v170z" />
    <glyph glyph-name="uni0410" unicode="&#x410;" horiz-adv-x="754" 
d="M141 0h-122l308 700h101l307 -700h-122l-67 159h-337zM378 555l-129 -301h256z" />
    <glyph glyph-name="uni0411" unicode="&#x411;" horiz-adv-x="667" 
d="M78 0v699.999h483v-95h-372v-184h200c70 0 127.167 -19.667 171.5 -59s66.5 -89.666 66.5 -150.999c0 -62 -22 -112.667 -66 -152s-101.333 -59 -172 -59h-311zM189 324.999v-229.999h199c38.667 0 69.5 10.833 92.5 32.5s34.5 49.5 34.5 83.5
c0 33.333 -11.5 60.666 -34.5 81.999s-53.833 32 -92.5 32h-199z" />
    <glyph glyph-name="uni0412" unicode="&#x412;" horiz-adv-x="697" 
d="M78 700l319.999 -0.000976562c70 0 126.667 -17.667 170 -53s65 -80.666 65 -135.999c0 -68.667 -31.333 -119 -94 -151c36.667 -14 65.334 -35.5 86.001 -64.5s31 -62.833 31 -101.5c0 -56.667 -22 -103.167 -66 -139.5s-101.333 -54.5 -172 -54.5h-340v700z
M416.999 309.999l-228 0.000976562v-215h228c38.667 0 69.5 10.167 92.5 30.5s34.5 46.166 34.5 77.499s-11.5 57 -34.5 77s-53.833 30 -92.5 30zM396.999 605l-208 0.000976562v-205h208c37.333 0 67.5 9.66699 90.5 29s34.5 44 34.5 74
c0 29.333 -11.5 53.666 -34.5 72.999s-53.167 29 -90.5 29z" />
    <glyph glyph-name="uni0413" unicode="&#x413;" horiz-adv-x="569" 
d="M189 0h-111v700h467v-95h-356v-605z" />
    <glyph glyph-name="uni0414" unicode="&#x414;" horiz-adv-x="827" 
d="M27 -170v264.999h88c51.333 74.667 77 276.334 77 605.001h504v-605h105v-265h-101v170h-573v-170h-100zM233 94.999h352v510h-287c0 -234.667 -21.667 -404.667 -65 -510z" />
    <glyph glyph-name="uni0415" unicode="&#x415;" horiz-adv-x="648" 
d="M78 0v700h516v-95h-405v-205h363v-93h-363v-212h415v-95h-526z" />
    <glyph glyph-name="uni0416" unicode="&#x416;" horiz-adv-x="1027" 
d="M79 -3h-44.998v96h10c25.333 0 44.333 9.66699 57 29l162 240l-142 216c-12 19.333 -31 29 -57 29h-13v96h46c46 0 80.333 -18.667 103 -56l136 -211c11.333 -19.333 29.666 -29 54.999 -29h70v293h106v-293h69c25.333 0 43.666 9.66699 54.999 29l136 211
c22.667 37.333 57 56 103 56h46v-96h-13c-26 0 -45 -9.66699 -57 -29l-142 -216l162 -240c12.667 -19.333 31.667 -29 57 -29h10v-96h-45c-20.667 0 -40.167 5.16699 -58.5 15.5s-32.833 24.166 -43.5 41.499l-154 228c-12.667 20 -31 30 -55 30h-70v-312h-106v312h-71
c-24 0 -42.333 -10 -55 -30l-154 -228c-10.667 -17.333 -25.167 -31.166 -43.5 -41.499s-37.833 -15.5 -58.5 -15.5z" />
    <glyph glyph-name="uni0417" unicode="&#x417;" horiz-adv-x="681" 
d="M160 463l-105.999 -0.00390625c6.66699 74.667 37.667 134.5 93 179.5s125.666 67.5 210.999 67.5c78 0 141.167 -18.333 189.5 -55s72.5 -84.334 72.5 -143.001c0 -67.333 -31.667 -117.666 -95 -150.999c35.333 -14.667 63.333 -36.667 84 -66s31 -61.666 31 -96.999
c0 -61.333 -27.667 -111.333 -83 -150s-126.666 -58 -213.999 -58c-86 0 -155.667 18.5 -209 55.5s-80 85.5 -80 145.5c0 18 4 36.667 12 56h102c-5.33301 -18 -8 -33.667 -8 -47c0 -32 16.833 -57.833 50.5 -77.5s77.5 -29.5 131.5 -29.5
c55.333 0 100.166 10.667 134.499 32s51.5 49.333 51.5 84c0 28.667 -11.5 52.834 -34.5 72.501s-53.167 29.5 -90.5 29.5h-139v90h119c38 0 68.333 9.33301 91 28s34 42.334 34 71.001c0 32 -14.333 57.833 -43 77.5s-66.667 29.5 -114 29.5
c-54 0 -98.5 -13.167 -133.5 -39.5s-54.167 -61.166 -57.5 -104.499z" />
    <glyph glyph-name="uni0418" unicode="&#x418;" horiz-adv-x="791" 
d="M78 700h111v-520l424 520h100v-700h-111v521l-428 -521h-96v700z" />
    <glyph glyph-name="uni0419" unicode="&#x419;" horiz-adv-x="791" 
d="M78 0v700h111v-520l424 520h100v-700h-111v521l-428 -521h-96zM231 886h79.999c0 -21.333 8 -39.333 24 -54s36 -22 60 -22s44 7.33301 60 22s24 32.667 24 54h81c0 -42.667 -15.667 -77.834 -47 -105.501s-70.666 -41.5 -117.999 -41.5s-86.5 13.833 -117.5 41.5
s-46.5 62.834 -46.5 105.501z" />
    <glyph glyph-name="uni041A" unicode="&#x41a;" horiz-adv-x="682" 
d="M70 0v700h111v-293h83c24 0 42.333 9.66699 55 29l148 210c24 38 57.667 57 101 57h50v-96h-13c-23.333 0 -42 -9.66699 -56 -29l-151 -216l173 -240c12.667 -19.333 31.334 -29 56.001 -29h10v-96h-44c-44.667 0 -79.334 18.667 -104.001 56l-168 230
c-14 19.333 -32.333 29 -55 29h-85v-312h-111z" />
    <glyph glyph-name="uni041B" unicode="&#x41b;" horiz-adv-x="768" 
d="M21 7l-0.000976562 93.998c14.667 -7.33301 30.334 -11 47.001 -11c28.667 0 51.167 16 67.5 48s28.666 92.667 36.999 182s12.5 216 12.5 380h506v-700h-112v605h-291c0 -157.333 -7.33301 -281.666 -22 -372.999s-35 -154.166 -61 -188.499s-60 -51.5 -102 -51.5
c-29.333 0 -56.666 5 -81.999 15z" />
    <glyph glyph-name="uni041C" unicode="&#x41c;" horiz-adv-x="932" 
d="M186 0h-108v700h157l231 -515l231 515h158v-700h-109v554l-232 -519h-95l-233 519v-554z" />
    <glyph glyph-name="uni041D" unicode="&#x41d;" horiz-adv-x="776" 
d="M189 0h-111v700h111v-299h398v299h111v-700h-111v305h-398v-305z" />
    <glyph glyph-name="uni041E" unicode="&#x41e;" horiz-adv-x="798" 
d="M48 350c0 104.667 33 190.834 99 258.501s150 101.5 252 101.5s186 -33.833 252 -101.5s99 -153.834 99 -258.501s-33 -190.834 -99 -258.501s-150 -101.5 -252 -101.5s-186 33.833 -252 101.5s-99 153.834 -99 258.501zM160 350c0 -74.667 22.5 -136.167 67.5 -184.5
s102.167 -72.5 171.5 -72.5s126.5 24.167 171.5 72.5s67.5 109.833 67.5 184.5s-22.5 136.167 -67.5 184.5s-102.167 72.5 -171.5 72.5s-126.5 -24.167 -171.5 -72.5s-67.5 -109.833 -67.5 -184.5z" />
    <glyph glyph-name="uni041F" unicode="&#x41f;" horiz-adv-x="768" 
d="M189 0h-111v700h612v-700h-111v605h-390v-605z" />
    <glyph glyph-name="uni0420" unicode="&#x420;" horiz-adv-x="667" 
d="M78 700l311 0.000976562c70.667 0 128 -19.833 172 -59.5s66 -90.834 66 -153.501s-22.167 -113.667 -66.5 -153s-101.5 -59 -171.5 -59h-200v-275h-111v700zM189 370.001h199c38.667 0 69.5 11 92.5 33s34.5 50 34.5 84c0 34.667 -11.5 63 -34.5 85s-53.833 33 -92.5 33
h-199v-235z" />
    <glyph glyph-name="uni0421" unicode="&#x421;" horiz-adv-x="755" 
d="M686 423l-102.999 -0.000976562c6 20 9 38.333 9 55c0 37.333 -17.167 68.166 -51.5 92.499s-78.5 36.5 -132.5 36.5c-75.333 0 -135.5 -24.167 -180.5 -72.5s-67.5 -110.166 -67.5 -185.499c0 -74.667 22 -136 66 -184s102 -72 174 -72
c57.333 0 104.5 14.833 141.5 44.5s57.5 67.834 61.5 114.501h106c-6.66699 -76.667 -39.5 -139.5 -98.5 -188.5s-132.167 -73.5 -219.5 -73.5c-102 0 -184.667 33.667 -248 101s-95 153.333 -95 258c0 106 32.833 192.667 98.5 260s152.167 101 259.5 101
c85.333 0 155.166 -21 209.499 -63s81.5 -96 81.5 -162c0 -21.333 -3.66699 -42 -11 -62z" />
    <glyph glyph-name="uni0422" unicode="&#x422;" horiz-adv-x="669" 
d="M645 605h-255v-605h-111v605h-255v95h621v-95z" />
    <glyph glyph-name="uni0423" unicode="&#x423;" horiz-adv-x="734" 
d="M19 700l131.001 0.000976562l224 -384l211 384h130l-293 -514c-42 -72.667 -79.5 -123.167 -112.5 -151.5s-70.833 -42.5 -113.5 -42.5c-36 0 -67.333 6.66699 -94 20v94c18 -10 40.667 -15 68 -15c28 0 52.167 8.16699 72.5 24.5s45.166 47.166 74.499 92.499z" />
    <glyph glyph-name="uni0424" unicode="&#x424;" horiz-adv-x="858" 
d="M43 350c0 84.667 31.333 154.167 94 208.5s142.334 81.5 239.001 81.5v70h106v-70c96.667 0 176.334 -27.167 239.001 -81.5s94 -123.833 94 -208.5s-31.333 -154.167 -94 -208.5s-142.334 -81.5 -239.001 -81.5v-70h-106v70c-96.667 0 -176.334 27.167 -239.001 81.5
s-94 123.833 -94 208.5zM376 160v380c-64.667 0 -118.167 -17.833 -160.5 -53.5s-63.5 -81.167 -63.5 -136.5s21.167 -100.833 63.5 -136.5s95.833 -53.5 160.5 -53.5zM482 540v-380c64.667 0 118.167 18 160.5 54s63.5 81.333 63.5 136s-21.167 100 -63.5 136
s-95.833 54 -160.5 54z" />
    <glyph glyph-name="uni0425" unicode="&#x425;" horiz-adv-x="732" 
d="M24 0l268 361l-248 339h135l187 -262l187 262h135l-247 -339l267 -361h-136l-206 285l-206 -285h-136z" />
    <glyph glyph-name="uni0426" unicode="&#x426;" horiz-adv-x="817" 
d="M687 0h-609v700h111v-605h383v605h111v-605h105v-265h-101v170z" />
    <glyph glyph-name="uni0427" unicode="&#x427;" horiz-adv-x="714" 
d="M54 456l-0.000976562 244h111v-222c0 -41.333 13.333 -74.5 40 -99.5s64.334 -37.5 113.001 -37.5c34.667 0 71.667 6.33301 111 19s71.333 28.334 96 47.001v293h112v-700h-112v309c-28 -20.667 -63.833 -37.334 -107.5 -50.001s-86.167 -19 -127.5 -19
c-72 0 -129.333 20 -172 60s-64 92 -64 156z" />
    <glyph glyph-name="uni0428" unicode="&#x428;" horiz-adv-x="1112" 
d="M78 0v700h111v-605h312v605h111v-605h311v605h112v-700h-957z" />
    <glyph glyph-name="uni0429" unicode="&#x429;" horiz-adv-x="1169" 
d="M78 0v700h111v-605h312v605h111v-605h311v605h112v-605h104v-265h-111v170h-950z" />
    <glyph glyph-name="uni042A" unicode="&#x42a;" horiz-adv-x="848" 
d="M259 605l-235 0.000976562v96h293v-1h53v-275h200c70 0 127 -19.667 171 -59s66 -90.333 66 -153s-22 -113.834 -66 -153.501s-101.333 -59.5 -172 -59.5h-310v605zM370 95.001h199c38.667 0 69.5 11 92.5 33s34.5 50.333 34.5 85c0 34 -11.5 62 -34.5 84
s-53.833 33 -92.5 33h-199v-235z" />
    <glyph glyph-name="uni042B" unicode="&#x42b;" horiz-adv-x="919" 
d="M78 700l111 0.000976562v-275h200c70 0 127.167 -19.667 171.5 -59s66.5 -90.333 66.5 -153s-22 -113.834 -66 -153.501s-101.333 -59.5 -172 -59.5h-311v700zM841 0.000976562h-111v700h111v-700zM189 330.001v-235h199c38.667 0 69.5 11 92.5 33s34.5 50.333 34.5 85
c0 34 -11.5 62 -34.5 84s-53.833 33 -92.5 33h-199z" />
    <glyph glyph-name="uni042C" unicode="&#x42c;" horiz-adv-x="667" 
d="M78 700l111 0.000976562v-275h200c70 0 127.167 -19.667 171.5 -59s66.5 -90.333 66.5 -153s-22 -113.834 -66 -153.501s-101.333 -59.5 -172 -59.5h-311v700zM189 330.001v-235h199c38.667 0 69.5 11 92.5 33s34.5 50.333 34.5 85c0 34 -11.5 62 -34.5 84
s-53.833 33 -92.5 33h-199z" />
    <glyph glyph-name="uni042D" unicode="&#x42d;" horiz-adv-x="757" 
d="M369 710c101.333 0 183.331 -33.668 245.998 -101.001s94 -153.666 94 -258.999c0 -106 -32.5 -192.5 -97.5 -259.5s-151.5 -100.5 -259.5 -100.5c-84.667 0 -155.167 20.167 -211.5 60.5s-84.5 91.5 -84.5 153.5c0 18.667 4 38.334 12 59.001h102
c-5.33301 -20 -8 -37 -8 -51c0 -34 18 -62.333 54 -85s80.667 -34 134 -34c70 0 126.833 19.667 170.5 59s69.5 91 77.5 155h-286v93h285c-9.33301 62 -35 112 -77 150s-95 57 -159 57c-56.667 0 -103.5 -14.833 -140.5 -44.5s-57.5 -67.834 -61.5 -114.501h-106
c6.66699 76.667 39.334 139.5 98.001 188.5s131.334 73.5 218.001 73.5z" />
    <glyph glyph-name="uni042E" unicode="&#x42e;" horiz-adv-x="1093" 
d="M189 0l-110.999 0.00292969v700h111v-299h167c10.667 92 47.5 166.5 110.5 223.5s140.5 85.5 232.5 85.5c100.667 0 183.5 -33.833 248.5 -101.5s97.5 -153.834 97.5 -258.501s-32.5 -190.834 -97.5 -258.501s-147.833 -101.5 -248.5 -101.5
c-92.667 0 -170.834 29.167 -234.501 87.5s-100.167 134.166 -109.5 227.499h-166v-305zM464.001 350.003c0 -74.667 22.167 -136.167 66.5 -184.5s100.5 -72.5 168.5 -72.5c67.333 0 123.166 24.167 167.499 72.5s66.5 109.833 66.5 184.5s-22.167 136.167 -66.5 184.5
s-100.166 72.5 -167.499 72.5c-68 0 -124.167 -24.167 -168.5 -72.5s-66.5 -109.833 -66.5 -184.5z" />
    <glyph glyph-name="uni042F" unicode="&#x42f;" horiz-adv-x="680" 
d="M34 -3l0.000976562 96h16c22.667 0 39.667 9.66699 51 29l87 165l3 6c-44 14 -78.833 38.5 -104.5 73.5s-38.5 76.5 -38.5 124.5c0 60.667 21.333 110.667 64 150s98 59 166 59h324v-700h-111v268h-166c-20 0 -34.333 -9 -43 -27l-103 -190
c-20.667 -36 -50.334 -54 -89.001 -54h-56zM280.001 363l211 -0.000976562v242h-211c-36.667 0 -65.834 -11.167 -87.501 -33.5s-32.5 -51.166 -32.5 -86.499s10.833 -64.5 32.5 -87.5s50.834 -34.5 87.501 -34.5z" />
    <glyph glyph-name="uni0430" unicode="&#x430;" horiz-adv-x="561" 
d="M224 290l146.998 0.000976562v34c0 24.667 -10.333 45.334 -31 62.001s-46 25 -76 25c-28.667 0 -52.667 -7.83301 -72 -23.5s-30 -34.834 -32 -57.501h-97c4.66699 51.333 26.334 93.5 65.001 126.5s86.667 49.5 144 49.5c58.667 0 107.5 -17 146.5 -51
s58.5 -77 58.5 -129v-209c0 -12 3.33301 -21.667 10 -29s15.667 -11 27 -11c10 0 18.333 2.33301 25 7v-73c-18 -12.667 -39.667 -19 -65 -19c-23.333 0 -43.5 5.66699 -60.5 17s-29.167 26.666 -36.5 45.999c-40.667 -44 -93 -66 -157 -66
c-51.333 0 -93.666 14.333 -126.999 43s-50 66 -50 112c0 45.333 16.333 81 49 107s76.667 39 132 39zM148.998 148.001c0 -18.667 7.99902 -33.834 23.999 -45.501s37 -17.5 63 -17.5c36 0 67.5 11.333 94.5 34s40.5 50.667 40.5 84v8h-129
c-27.333 0 -49.666 -5.66699 -66.999 -17s-26 -26.666 -26 -45.999z" />
    <glyph glyph-name="uni0431" unicode="&#x431;" horiz-adv-x="599" 
d="M45 354c0 112 21 198.5 63 259.5s98.667 95.833 170 104.5l107 14c44.667 5.33301 86 15.333 124 30v-98c-36.667 -15.333 -73.334 -25.666 -110.001 -30.999l-104 -13c-50.667 -6.66699 -91.167 -31.834 -121.5 -75.501s-43.5 -104.5 -39.5 -182.5
c10.667 42 32.667 75.833 66 101.5s73.333 38.5 120 38.5c67.333 0 123.5 -24.333 168.5 -73s67.5 -109.667 67.5 -183c0 -74 -23.667 -135.167 -71 -183.5s-107 -72.5 -179 -72.5c-77.333 0 -140.166 30.333 -188.499 91s-72.5 151.667 -72.5 273zM170 246
c0 -47.333 13.167 -86.333 39.5 -117s59.833 -46 100.5 -46s74.167 15.333 100.5 46s39.5 69.667 39.5 117c0 46.667 -13.167 85.334 -39.5 116.001s-59.833 46 -100.5 46s-74.167 -15.333 -100.5 -46s-39.5 -69.334 -39.5 -116.001z" />
    <glyph glyph-name="uni0432" unicode="&#x432;" horiz-adv-x="554" 
d="M72 0l-0.000976562 496h275c42.667 0 77.834 -12.833 105.501 -38.5s41.5 -58.167 41.5 -97.5c0 -44 -16.333 -78.667 -49 -104c46 -26 69 -65.333 69 -118c0 -40 -14 -73 -42 -99s-63.667 -39 -107 -39h-293zM337.999 211l-160 -0.00195312v-126h160
c20.667 0 37.5 5.83301 50.5 17.5s19.5 26.834 19.5 45.501s-6.5 33.834 -19.5 45.501s-29.833 17.5 -50.5 17.5zM319.999 410.998l-142 0.000976562v-121h142c20 0 36.333 5.83301 49 17.5s19 26.167 19 43.5s-6.33301 31.666 -19 42.999s-29 17 -49 17z" />
    <glyph glyph-name="uni0433" unicode="&#x433;" horiz-adv-x="429" 
d="M179 0h-106v495h332v-84h-226v-411z" />
    <glyph glyph-name="uni0434" unicode="&#x434;" horiz-adv-x="649" 
d="M122 -155h-95v240h67c43.333 43.333 65 180 65 410h377v-410h87v-240h-95v155h-406v-155zM206 85l224 0.000976562v326h-177c0 -150.667 -15.667 -259.334 -47 -326.001z" />
    <glyph glyph-name="uni0435" unicode="&#x435;" horiz-adv-x="566" 
d="M293 506c66 0 120.001 -19.833 162.001 -59.5s63 -90.5 63 -152.5c0 -24 -5 -50.333 -15 -79h-355c6 -40 22.5 -71.833 49.5 -95.5s61.5 -35.5 103.5 -35.5c34.667 0 63.5 7.83301 86.5 23.5s35.5 35.5 37.5 59.5h95c-4.66699 -51.333 -28.334 -93.5 -71.001 -126.5
s-95 -49.5 -157 -49.5c-74 0 -134 24 -180 72s-69 109.333 -69 184c0 75.333 23.5 137.333 70.5 186s106.833 73 179.5 73zM152.001 297l269 -0.00195312c-2 34.667 -14.5 62.834 -37.5 84.501s-52.833 32.5 -89.5 32.5c-35.333 0 -65.833 -10.667 -91.5 -32
s-42.5 -49.666 -50.5 -84.999z" />
    <glyph glyph-name="uni0436" unicode="&#x436;" horiz-adv-x="805" 
d="M39 81h5c24.667 0 42.667 10.333 54 31l94 143l-80 128c-12 21.333 -29.667 32 -53 32h-8v84h46c44 0 76 -19.667 96 -59l71 -114c12 -20 29.333 -30 52 -30h36v199h101v-199h36c24.667 0 42.334 10 53.001 30l70 114c20 39.333 52.333 59 97 59h45v-84h-7
c-24 0 -42 -10.667 -54 -32l-79 -128l93 -144c11.333 -20 29.333 -30 54 -30h5v-85h-41c-20.667 0 -39.834 5.16699 -57.501 15.5s-31.5 24.5 -41.5 42.5l-82 127c-11.333 20 -29.333 30 -54 30h-37v-211h-101v211h-37c-24 0 -41.667 -10 -53 -30l-84 -126
c-22 -39.333 -54.667 -59 -98 -59h-41v85z" />
    <glyph glyph-name="uni0437" unicode="&#x437;" horiz-adv-x="521" 
d="M265 506c58 0 105.169 -13.333 141.502 -40s54.5 -61 54.5 -103c0 -44.667 -20 -80 -60 -106c24.667 -11.333 44.167 -27.5 58.5 -48.5s21.5 -44.5 21.5 -70.5c0 -44 -19.5 -79.833 -58.5 -107.5s-90.167 -41.5 -153.5 -41.5c-66.667 0 -120.5 15.167 -161.5 45.5
s-61.5 69.833 -61.5 118.5c0 12.667 3 27 9 43h93c-4 -10.667 -6 -21.667 -6 -33c0 -23.333 11.167 -42.5 33.5 -57.5s52.5 -22.5 90.5 -22.5c34 0 60.667 6.16699 80 18.5s29 29.166 29 50.499c0 17.333 -6.5 31.833 -19.5 43.5s-28.833 17.5 -47.5 17.5h-96v79h77
c19.333 0 35.166 5.5 47.499 16.5s18.5 24.167 18.5 39.5c0 18.667 -9.16699 33.834 -27.5 45.501s-42.5 17.5 -72.5 17.5c-33.333 0 -60.333 -7.33301 -81 -22s-32.334 -35 -35.001 -61h-95c4.66699 54.667 27.167 98 67.5 130s91.5 48 153.5 48z" />
    <glyph glyph-name="uni0438" unicode="&#x438;" horiz-adv-x="609" 
d="M73 495h106v-336l257 336h100v-495h-106v337l-262 -337h-95v495z" />
    <glyph glyph-name="uni0439" unicode="&#x439;" horiz-adv-x="609" 
d="M73 495h106v-336l257 336h100v-495h-106v337l-262 -337h-95v495zM137 713h80.998c0 -21.333 8 -39.333 24 -54s36 -22 60 -22s44 7.33301 60 22s24 32.667 24 54h81c0 -42.667 -15.667 -77.667 -47 -105s-70.666 -41 -117.999 -41s-86.666 13.667 -117.999 41
s-47 62.333 -47 105z" />
    <glyph glyph-name="uni043A" unicode="&#x43a;" horiz-adv-x="553" 
d="M70 0v495h106v-199h48c23.333 0 41 9.66699 53 29l80 116c10 18 23.833 32.167 41.5 42.5s36.834 15.5 57.501 15.5h45v-84h-5c-24.667 0 -43.334 -10.333 -56.001 -31l-87 -129l102 -144c12.667 -20 31 -30 55 -30h4v-85h-41c-44 0 -78 19 -102 57l-94 128
c-13.333 20 -31.333 30 -54 30h-47v-211h-106z" />
    <glyph glyph-name="uni043B" unicode="&#x43b;" horiz-adv-x="604" 
d="M24 5l0.000976562 86c12 -6 25.333 -9 40 -9c33.333 0 56.5 29.5 69.5 88.5s19.5 167.167 19.5 324.5h379v-495h-106v411h-180c0 -152.667 -12 -260.667 -36 -324s-61.333 -95 -112 -95c-26.667 0 -51.334 4.33301 -74.001 13z" />
    <glyph glyph-name="uni043C" unicode="&#x43c;" horiz-adv-x="723" 
d="M172 0h-99v495h148l140 -321l141 321h148v-495h-99v370l-145 -335h-89l-145 335v-370z" />
    <glyph glyph-name="uni043D" unicode="&#x43d;" horiz-adv-x="599" 
d="M179 0h-106v495h106v-201h241v201h106v-495h-106v209h-241v-209z" />
    <glyph glyph-name="uni043E" unicode="&#x43e;" horiz-adv-x="583" 
d="M43 248c0 74.667 23.5 136.334 70.5 185.001s106.5 73 178.5 73s131.333 -24.333 178 -73s70 -110.334 70 -185.001s-23.333 -136.334 -70 -185.001s-106 -73 -178 -73s-131.5 24.333 -178.5 73s-70.5 110.334 -70.5 185.001zM149 248c0 -47.333 13.5 -86.333 40.5 -117
s61.167 -46 102.5 -46s75.333 15.333 102 46s40 69.667 40 117s-13.5 86.333 -40.5 117s-60.833 46 -101.5 46c-41.333 0 -75.5 -15.333 -102.5 -46s-40.5 -69.667 -40.5 -117z" />
    <glyph glyph-name="uni043F" unicode="&#x43f;" horiz-adv-x="599" 
d="M73 495h453v-495h-106v411h-241v-411h-106v495z" />
    <glyph glyph-name="uni0440" unicode="&#x440;" horiz-adv-x="608" 
d="M179 -240l-106 0.00195312v735h106v-64c42.667 50 96.667 75 162 75s119 -24.333 161 -73s63 -110.334 63 -185.001s-21 -136.334 -63 -185.001s-95.667 -73 -161 -73s-119.333 25 -162 75v-305zM181 248.002c0 -47.333 13.167 -86.333 39.5 -117s59.5 -46 99.5 -46
s73.167 15.333 99.5 46s39.5 69.667 39.5 117c0 46.667 -13.167 85.5 -39.5 116.5s-59.5 46.5 -99.5 46.5s-73.167 -15.5 -99.5 -46.5s-39.5 -69.833 -39.5 -116.5z" />
    <glyph glyph-name="uni0441" unicode="&#x441;" horiz-adv-x="553" 
d="M494 290h-94.999c4 12.667 6 24.334 6 35.001c0 25.333 -10.167 46 -30.5 62s-46.5 24 -78.5 24c-44.667 0 -80.334 -15.167 -107.001 -45.5s-40 -69.5 -40 -117.5s13.333 -87.167 40 -117.5s62.334 -45.5 107.001 -45.5c33.333 0 61.166 8.66699 83.499 26
s34.5 39.666 36.5 66.999h96c-4.66699 -54.667 -28 -99.667 -70 -135s-94 -53 -156 -53c-72 0 -130.5 24 -175.5 72s-67.5 109.667 -67.5 185c0 76 23.167 138.167 69.5 186.5s106.833 72.5 181.5 72.5c61.333 0 111.5 -16 150.5 -48s58.5 -72.667 58.5 -122
c0 -14.667 -3 -30 -9 -46z" />
    <glyph glyph-name="uni0442" unicode="&#x442;" horiz-adv-x="499" 
d="M475 411h-172v-411h-106v411h-173v84h451v-84z" />
    <glyph glyph-name="uni0443" unicode="&#x443;" horiz-adv-x="572" 
d="M19 495h117.001l150 -371l150 371h117l-273 -620c-16.667 -38 -39 -68 -67 -90s-59 -33 -93 -33c-29.333 0 -53.333 6.66699 -72 20v87c20 -10 39 -15 57 -15c37.333 0 66.666 24.333 87.999 73l41 88z" />
    <glyph glyph-name="uni0444" unicode="&#x444;" horiz-adv-x="732" 
d="M43 248c0 77.333 25.001 139.666 75.001 186.999s116 71 198 71v244h100v-244c82 0 148 -23.667 198 -71s75 -109.666 75 -186.999s-25 -139.666 -75 -186.999s-116 -71 -198 -71v-230h-100v230c-82.667 0 -148.834 23.667 -198.501 71s-74.5 109.666 -74.5 186.999z
M416.001 411v-326c50.667 0 91.167 15 121.5 45s45.5 69.333 45.5 118s-15.167 88 -45.5 118s-70.833 45 -121.5 45zM149.001 248c0 -48.667 15.167 -88 45.5 -118s70.833 -45 121.5 -45v326c-50.667 0 -91.167 -15 -121.5 -45s-45.5 -69.333 -45.5 -118z" />
    <glyph glyph-name="uni0445" unicode="&#x445;" horiz-adv-x="560" 
d="M22 0l189 254l-179 241h128l120 -167l120 167h128l-178 -241l188 -254h-128l-130 180l-130 -180h-128z" />
    <glyph glyph-name="uni0446" unicode="&#x446;" horiz-adv-x="632" 
d="M73 0v495h106v-410h233v410h106v-410h87v-240h-95v155h-437z" />
    <glyph glyph-name="uni0447" unicode="&#x447;" horiz-adv-x="542" 
d="M48 325l-0.000976562 170h106v-146c0 -28 8.16699 -50.167 24.5 -66.5s38.5 -24.5 66.5 -24.5c20 0 41 4.16699 63 12.5s40.333 18.833 55 31.5v193h106v-495h-106v209c-45.333 -30.667 -97.666 -46 -156.999 -46c-48 0 -86.333 14.5 -115 43.5s-43 68.5 -43 118.5z" />
    <glyph glyph-name="uni0448" unicode="&#x448;" horiz-adv-x="864" 
d="M791 0h-718v495h106v-410h200v410h106v-410h200v410h106v-495z" />
    <glyph glyph-name="uni0449" unicode="&#x449;" horiz-adv-x="914" 
d="M73 495h106v-410h205v410h106v-410h204v410h106v-410h87v-240h-95v155h-719v495z" />
    <glyph glyph-name="uni044A" unicode="&#x44a;" horiz-adv-x="655" 
d="M197 411h-173v84h279v-180h145c49.333 0 90 -14.833 122 -44.5s48 -67.167 48 -112.5s-16 -83 -48 -113s-72.667 -45 -122 -45h-251v411zM303 85h128c23.333 0 42.666 6.83301 57.999 20.5s23 31.167 23 52.5s-7.66699 38.833 -23 52.5s-34.666 20.5 -57.999 20.5h-128
v-146z" />
    <glyph glyph-name="uni044B" unicode="&#x44b;" horiz-adv-x="760" 
d="M73 495h106v-180h145c49.333 0 90.166 -14.833 122.499 -44.5s48.5 -67.167 48.5 -112.5s-16.167 -83 -48.5 -113s-73.166 -45 -122.499 -45h-251v495zM581 495h106v-495h-106v495zM179 85h129c23.333 0 42.666 6.83301 57.999 20.5s23 31.167 23 52.5
s-7.66699 38.833 -23 52.5s-34.666 20.5 -57.999 20.5h-129v-146z" />
    <glyph glyph-name="uni044C" unicode="&#x44c;" horiz-adv-x="531" 
d="M73 0v495h106v-180h145c49.333 0 90.166 -14.833 122.499 -44.5s48.5 -67.167 48.5 -112.5s-16.167 -83 -48.5 -113s-73.166 -45 -122.499 -45h-251zM179 85h129c23.333 0 42.666 6.83301 57.999 20.5s23 31.167 23 52.5s-7.66699 38.833 -23 52.5
s-34.666 20.5 -57.999 20.5h-129v-146z" />
    <glyph glyph-name="uni044D" unicode="&#x44d;" horiz-adv-x="551" 
d="M267 506c72 0 130.335 -24.1689 175.002 -72.502s67 -110.166 67 -185.499c0 -76 -23.333 -138.167 -70 -186.5s-107.334 -72.5 -182.001 -72.5c-60.667 0 -110.667 16 -150 48s-59 72.667 -59 122c0 14.667 3 30 9 46h93c-4 -12.667 -6 -24.667 -6 -36
c0 -24.667 10.5 -45.167 31.5 -61.5s47.833 -24.5 80.5 -24.5c38 0 69.833 11.333 95.5 34s42.167 53 49.5 91h-171v83h170c-7.33301 36.667 -23.5 65.834 -48.5 87.501s-55.833 32.5 -92.5 32.5c-34 0 -62 -8.5 -84 -25.5s-34 -39.167 -36 -66.5h-95
c5.33301 54.667 28.666 99.5 69.999 134.5s92.333 52.5 153 52.5z" />
    <glyph glyph-name="uni044E" unicode="&#x44e;" horiz-adv-x="817" 
d="M179 0l-105.997 0.000976562v495h106v-201h106c9.33301 63.333 36.166 114.5 80.499 153.5s98.5 58.5 162.5 58.5c71.333 0 130.166 -24.333 176.499 -73s69.5 -110.334 69.5 -185.001s-23.167 -136.334 -69.5 -185.001s-105.166 -73 -176.499 -73
c-64.667 0 -119.334 20.333 -164.001 61s-71.334 93.334 -80.001 158.001h-105v-209zM388.003 248.001c0 -47.333 13.167 -86.333 39.5 -117s59.833 -46 100.5 -46s74.167 15.333 100.5 46s39.5 69.667 39.5 117s-13.167 86.333 -39.5 117s-59.833 46 -100.5 46
s-74.167 -15.333 -100.5 -46s-39.5 -69.667 -39.5 -117z" />
    <glyph glyph-name="uni044F" unicode="&#x44f;" horiz-adv-x="551" 
d="M39 -3v85.001h16c20.667 0 38 10.333 52 31l60 90c-35.333 9.33301 -63.5 26.666 -84.5 51.999s-31.5 55.333 -31.5 90c0 43.333 16 79.333 48 108s72.667 43 122 43h258v-496h-106v182h-68c-20 0 -35.333 -8.66699 -46 -26l-72 -108c-22.667 -34 -53 -51 -91 -51h-57z
M240 267.001h133v144h-133c-24 0 -43.833 -6.83301 -59.5 -20.5s-23.5 -31.167 -23.5 -52.5c0 -20.667 7.83301 -37.667 23.5 -51s35.5 -20 59.5 -20z" />
    <glyph glyph-name="uni0450" unicode="&#x450;" horiz-adv-x="566" 
d="M293 506c66 0 120.001 -19.833 162.001 -59.5s63 -90.5 63 -152.5c0 -24 -5 -50.333 -15 -79h-355c6 -40 22.5 -71.833 49.5 -95.5s61.5 -35.5 103.5 -35.5c34.667 0 63.5 7.83301 86.5 23.5s35.5 35.5 37.5 59.5h95c-4.66699 -51.333 -28.334 -93.5 -71.001 -126.5
s-95 -49.5 -157 -49.5c-74 0 -134 24 -180 72s-69 109.333 -69 184c0 75.333 23.5 137.333 70.5 186s106.833 73 179.5 73zM152.001 297l269 -0.00195312c-2 34.667 -14.5 62.834 -37.5 84.501s-52.833 32.5 -89.5 32.5c-35.333 0 -65.833 -10.667 -91.5 -32
s-42.5 -49.666 -50.5 -84.999zM262.001 578.998l-154 167h122l115 -167h-83z" />
    <glyph glyph-name="uni0451" unicode="&#x451;" horiz-adv-x="566" 
d="M293 506c66 0 120.001 -19.833 162.001 -59.5s63 -90.5 63 -152.5c0 -24 -5 -50.333 -15 -79h-355c6 -40 22.5 -71.833 49.5 -95.5s61.5 -35.5 103.5 -35.5c34.667 0 63.5 7.83301 86.5 23.5s35.5 35.5 37.5 59.5h95c-4.66699 -51.333 -28.334 -93.5 -71.001 -126.5
s-95 -49.5 -157 -49.5c-74 0 -134 24 -180 72s-69 109.333 -69 184c0 75.333 23.5 137.333 70.5 186s106.833 73 179.5 73zM152.001 297l269 -0.00195312c-2 34.667 -14.5 62.834 -37.5 84.501s-52.833 32.5 -89.5 32.5c-35.333 0 -65.833 -10.667 -91.5 -32
s-42.5 -49.666 -50.5 -84.999zM401.001 730.998c16.667 0 30.5 -5.66699 41.5 -17s16.5 -25.333 16.5 -42s-5.5 -30.667 -16.5 -42s-24.833 -17 -41.5 -17s-30.667 5.66699 -42 17s-17 25.333 -17 42c0 17.333 5.66699 31.5 17 42.5s25.333 16.5 42 16.5zM113.001 671.998
c0 16.667 5.5 30.667 16.5 42s24.833 17 41.5 17s30.667 -5.5 42 -16.5s17 -25.167 17 -42.5c0 -16.667 -5.66699 -30.667 -17 -42s-25.333 -17 -42 -17s-30.5 5.66699 -41.5 17s-16.5 25.333 -16.5 42z" />
    <glyph glyph-name="uni0452" unicode="&#x452;" horiz-adv-x="596" 
d="M349 584l-169.999 -0.000976562v-151c43.333 48.667 99.333 73 168 73c54.667 0 98.167 -16.333 130.5 -49s48.5 -77 48.5 -133v-441c0 -40.667 -11.333 -72.667 -34 -96s-53.334 -35 -92.001 -35c-28.667 0 -54.334 6 -77.001 18v88c10.667 -5.33301 23 -8 37 -8
c18.667 0 33.334 6 44.001 18s16 28.667 16 50v382c0 34.667 -9.5 61.834 -28.5 81.501s-44.5 29.5 -76.5 29.5c-40 0 -72.667 -14.5 -98 -43.5s-38 -65.833 -38 -110.5v-257h-106v584h-77v63h77v103h106v-103h170v-63z" />
    <glyph glyph-name="uni0453" unicode="&#x453;" horiz-adv-x="429" 
d="M179 0h-106v495h332v-84h-226v-411zM181 559l114 166h123l-155 -166h-82z" />
    <glyph glyph-name="uni0454" unicode="&#x454;" horiz-adv-x="551" 
d="M294 506c60.667 0 110.502 -15.999 149.502 -47.999s58.5 -72.667 58.5 -122c0 -14.667 -3 -30 -9 -46h-93c4 17.333 6 29.333 6 36c0 25.333 -10.333 46 -31 62s-47.334 24 -80.001 24c-38 0 -69.667 -11 -95 -33s-41.666 -51.333 -48.999 -88h193v-83h-194
c7.33301 -38 23.666 -68.167 48.999 -90.5s57.333 -33.5 96 -33.5c34 0 62.333 8.66699 85 26s35 39.333 37 66h95c-5.33301 -54 -28.833 -98.667 -70.5 -134s-93.167 -53 -154.5 -53c-72.667 0 -131.667 24.167 -177 72.5s-68 110.166 -68 185.499
c0 76 23.167 138.167 69.5 186.5s107.166 72.5 182.499 72.5z" />
    <glyph glyph-name="uni0455" unicode="&#x455;" horiz-adv-x="517" 
d="M49 173l95 0.00292969c-4 -10 -6 -19 -6 -27c0 -20 10.667 -35.833 32 -47.5s50.666 -17.5 87.999 -17.5c35.333 0 63.666 5.16699 84.999 15.5s32 24.166 32 41.499c0 9.33301 -3.16699 17.333 -9.5 24s-17.166 12.667 -32.499 18s-28.666 9.33301 -39.999 12
s-29.333 6.66699 -54 12c-24.667 4.66699 -43.334 8.5 -56.001 11.5s-29 8.33301 -49 16s-35.167 16 -45.5 25s-19.5 21.167 -27.5 36.5s-12 33.333 -12 54c0 48.667 18.667 87.334 56 116.001s86.666 43 147.999 43c60 0 108.833 -13.333 146.5 -40s56.5 -61 56.5 -103
c0 -12.667 -3 -26 -9 -40h-95c4 10 6 19 6 27c0 20 -9.33301 35.667 -28 47s-44.667 17 -78 17c-30.667 0 -55.334 -5 -74.001 -15s-28 -23.333 -28 -40c0 -10 2.83301 -18.333 8.5 -25s16.334 -12.667 32.001 -18s28.334 -9.16602 38.001 -11.499
s27.167 -5.83301 52.5 -10.5c18.667 -4 31.834 -6.83301 39.501 -8.5s20 -4.83398 37 -9.50098s29.667 -9 38 -13s18.666 -9.83301 30.999 -17.5s21.5 -15.834 27.5 -24.501s11.333 -19.334 16 -32.001s7 -26.334 7 -41.001c0 -48.667 -20.167 -87.334 -60.5 -116.001
s-93.166 -43 -158.499 -43c-64 0 -116.333 13.333 -157 40s-61 61 -61 103c0 14.667 3 28.334 9 41.001z" />
    <glyph glyph-name="uni0456" unicode="&#x456;" horiz-adv-x="252" 
d="M73 0v495h106v-495h-106zM60 672c0 18.667 6.16699 34.167 18.5 46.5s28.166 18.5 47.499 18.5c18.667 0 34.167 -6.16699 46.5 -18.5s18.5 -27.833 18.5 -46.5s-6.16699 -34.167 -18.5 -46.5s-27.833 -18.5 -46.5 -18.5c-19.333 0 -35.166 6.16699 -47.499 18.5
s-18.5 27.833 -18.5 46.5z" />
    <glyph glyph-name="uni0457" unicode="&#x457;" horiz-adv-x="252" 
d="M73 0v495h106v-495h-106zM-30 672c0 17.333 5.66699 31.5 17 42.5s25.333 16.5 42 16.5s30.5 -5.66699 41.5 -17s16.5 -25.333 16.5 -42s-5.5 -30.667 -16.5 -42s-24.833 -17 -41.5 -17s-30.667 5.5 -42 16.5s-17 25.167 -17 42.5zM161 672c0 17.333 5.5 31.5 16.5 42.5
s25.167 16.5 42.5 16.5s31.5 -5.5 42.5 -16.5s16.5 -25.167 16.5 -42.5s-5.5 -31.5 -16.5 -42.5s-25.167 -16.5 -42.5 -16.5s-31.5 5.5 -42.5 16.5s-16.5 25.167 -16.5 42.5z" />
    <glyph glyph-name="uni0458" unicode="&#x458;" horiz-adv-x="259" 
d="M68 672c0 18.667 6.16699 34.167 18.5 46.5s27.833 18.5 46.5 18.5c19.333 0 35.166 -6.16699 47.499 -18.5s18.5 -27.833 18.5 -46.5s-6.16699 -34.167 -18.5 -46.5s-28.166 -18.5 -47.499 -18.5c-18.667 0 -34.167 6.16699 -46.5 18.5s-18.5 27.833 -18.5 46.5zM80 495
h105.999v-612c0 -40.667 -11.167 -72.667 -33.5 -96s-53.166 -35 -92.499 -35c-28.667 0 -54.334 6 -77.001 18v88c10.667 -5.33301 23.334 -8 38.001 -8c18.667 0 33.167 6 43.5 18s15.5 28.667 15.5 50v577z" />
    </font>
</defs>
</svg>
